CascadiaCode-BoldItalic.ufo
<glyph name="exclam" format="2">
  <advance width="1200"/>
  <unicode hex="0021"/>
  <outline>
    <contour>
      <point x="470" y="556" type="line"/>
      <point x="734" y="556" type="line"/>
      <point x="907" y="1430" type="line"/>
      <point x="612" y="1430" type="line"/>
    </contour>
    <component base="period"/>
  </outline>
</glyph>
<glyph name="numbersign" format="2">
  <advance width="1200"/>
  <unicode hex="0023"/>
  <outline>
    <contour>
      <point x="534" y="0" type="line"/>
      <point x="777" y="0" type="line"/>
      <point x="1147" y="1420" type="line"/>
      <point x="904" y="1420" type="line"/>
    </contour>
    <contour>
      <point x="44" y="310" type="line"/>
      <point x="1077" y="310" type="line"/>
      <point x="1121" y="558" type="line"/>
      <point x="88" y="558" type="line"/>
    </contour>
    <contour>
      <point x="115" y="0" type="line"/>
      <point x="358" y="0" type="line"/>
      <point x="728" y="1420" type="line"/>
      <point x="485" y="1420" type="line"/>
    </contour>
    <contour>
      <point x="142" y="862" type="line"/>
      <point x="1175" y="862" type="line"/>
      <point x="1219" y="1110" type="line"/>
      <point x="186" y="1110" type="line"/>
    </contour>
  </outline>
</glyph>
<glyph name="percent" format="2">
  <advance width="1200"/>
  <unicode hex="0025"/>
  <outline>
    <contour>
      <point x="165" y="261" type="line"/>
      <point x="1192" y="989" type="line"/>
      <point x="1091" y="1146" type="line"/>
      <point x="71" y="421" type="line"/>
    </contour>
    <component base="zerosuperior" xOffset="-260"/>
    <component base="zeroinferior" xOffset="270"/>
  </outline>
</glyph>
<glyph name="ampersand" format="2">
  <advance width="1200"/>
  <unicode hex="0026"/>
  <outline>
    <contour>
      <point x="730" y="410" type="line"/>
      <point x="734" y="398"/>
      <point x="737" y="384"/>
      <point x="737" y="372" type="curve" smooth="yes"/>
      <point x="737" y="284"/>
      <point x="638" y="232"/>
      <point x="472" y="232" type="curve" smooth="yes"/>
      <point x="349" y="232"/>
      <point x="276" y="294"/>
      <point x="276" y="399" type="curve" smooth="yes"/>
      <point x="276" y="567"/>
      <point x="479" y="685"/>
      <point x="823" y="720" type="curve"/>
      <point x="825" y="950" type="line"/>
      <point x="664" y="911" type="line"/>
      <point x="245" y="860"/>
      <point x="-2" y="655"/>
      <point x="-2" y="363" type="curve" smooth="yes"/>
      <point x="-2" y="122"/>
      <point x="164" y="-20"/>
      <point x="446" y="-20" type="curve" smooth="yes"/>
      <point x="804" y="-20"/>
      <point x="1016" y="131"/>
      <point x="1016" y="386" type="curve" smooth="yes"/>
      <point x="1016" y="406"/>
      <point x="1013" y="430"/>
      <point x="1009" y="450" type="curve"/>
    </contour>
    <contour>
      <point x="1132" y="713" type="line"/>
      <point x="975" y="661"/>
      <point x="746" y="617"/>
      <point x="515" y="597" type="curve"/>
      <point x="542" y="356" type="line"/>
      <point x="790" y="375"/>
      <point x="1031" y="423"/>
      <point x="1191" y="482" type="curve"/>
    </contour>
    <contour>
      <point x="1175" y="1263" type="line"/>
      <point x="1077" y="1379"/>
      <point x="919" y="1440"/>
      <point x="715" y="1440" type="curve" smooth="yes"/>
      <point x="422" y="1440"/>
      <point x="248" y="1326"/>
      <point x="248" y="1133" type="curve" smooth="yes"/>
      <point x="248" y="1003"/>
      <point x="338" y="912"/>
      <point x="464" y="889" type="curve"/>
      <point x="464" y="820" type="line"/>
      <point x="825" y="950" type="line"/>
      <point x="649" y="950"/>
      <point x="526" y="990"/>
      <point x="526" y="1079" type="curve" smooth="yes"/>
      <point x="526" y="1147"/>
      <point x="612" y="1188"/>
      <point x="725" y="1188" type="curve" smooth="yes"/>
      <point x="824" y="1188"/>
      <point x="915" y="1147"/>
      <point x="988" y="1068" type="curve"/>
    </contour>
  </outline>
</glyph>
<glyph name="quotesingle" format="2">
  <advance width="1200"/>
  <unicode hex="0027"/>
  <outline>
    <contour>
      <point x="524" y="780" type="line"/>
      <point x="766" y="780" type="line"/>
      <point x="915" y="1420" type="line"/>
      <point x="599" y="1420" type="line"/>
    </contour>
  </outline>
</glyph>
<glyph name="parenleft" format="2">
  <advance width="1200"/>
  <unicode hex="0028"/>
  <outline>
    <contour>
      <point x="1205" y="1620" type="line"/>
      <point x="1162" y="1620" type="line" smooth="yes"/>
      <point x="705" y="1620"/>
      <point x="384" y="1417"/>
      <point x="281" y="704" type="curve" smooth="yes"/>
      <point x="198" y="129"/>
      <point x="385" y="-200"/>
      <point x="842" y="-200" type="curve" smooth="yes"/>
      <point x="885" y="-200" type="line"/>
      <point x="929" y="51" type="line"/>
      <point x="886" y="51" type="line" smooth="yes"/>
      <point x="602" y="51"/>
      <point x="492" y="290"/>
      <point x="558" y="704" type="curve" smooth="yes"/>
      <point x="632" y="1166"/>
      <point x="834" y="1369"/>
      <point x="1118" y="1369" type="curve" smooth="yes"/>
      <point x="1161" y="1369" type="line"/>
    </contour>
  </outline>
</glyph>
<glyph name="parenright" format="2">
  <advance width="1200"/>
  <unicode hex="0029"/>
  <outline>
    <contour>
      <point x="58" y="-200" type="line"/>
      <point x="101" y="-200" type="line" smooth="yes"/>
      <point x="560" y="-200"/>
      <point x="881" y="3"/>
      <point x="984" y="716" type="curve" smooth="yes"/>
      <point x="1067" y="1291"/>
      <point x="880" y="1620"/>
      <point x="421" y="1620" type="curve" smooth="yes"/>
      <point x="378" y="1620" type="line"/>
      <point x="334" y="1369" type="line"/>
      <point x="377" y="1369" type="line" smooth="yes"/>
      <point x="663" y="1369"/>
      <point x="773" y="1130"/>
      <point x="707" y="716" type="curve" smooth="yes"/>
      <point x="633" y="254"/>
      <point x="431" y="51"/>
      <point x="145" y="51" type="curve" smooth="yes"/>
      <point x="102" y="51" type="line"/>
    </contour>
  </outline>
</glyph>
<glyph name="asterisk" format="2">
  <advance width="1200"/>
  <unicode hex="002A"/>
  <outline>
    <contour>
      <point x="343" y="227" type="line"/>
      <point x="694" y="617" type="line"/>
      <point x="553" y="755" type="line"/>
      <point x="156" y="416" type="line"/>
    </contour>
    <contour>
      <point x="563" y="599" type="line"/>
      <point x="669" y="801" type="line"/>
      <point x="258" y="981" type="line"/>
      <point x="132" y="713" type="line"/>
    </contour>
    <contour>
      <point x="729" y="227" type="line"/>
      <point x="976" y="396" type="line"/>
      <point x="721" y="740" type="line"/>
      <point x="524" y="622" type="line"/>
    </contour>
    <contour>
      <point x="517" y="696" type="line"/>
      <point x="730" y="696" type="line"/>
      <point x="840" y="1176" type="line"/>
      <point x="558" y="1176" type="line"/>
    </contour>
    <contour>
      <point x="631" y="591" type="line"/>
      <point x="1132" y="713" type="line"/>
      <point x="1061" y="981" type="line"/>
      <point x="599" y="793" type="line"/>
    </contour>
  </outline>
</glyph>
<glyph name="plus" format="2">
  <advance width="1200"/>
  <unicode hex="002B"/>
  <outline>
    <contour>
      <point x="407" y="190" type="line"/>
      <point x="672" y="190" type="line"/>
      <point x="855" y="1228" type="line"/>
      <point x="591" y="1228" type="line"/>
    </contour>
    <contour>
      <point x="110" y="588" type="line"/>
      <point x="1110" y="588" type="line"/>
      <point x="1153" y="831" type="line"/>
      <point x="153" y="831" type="line"/>
    </contour>
  </outline>
</glyph>
<glyph name="comma" format="2">
  <advance width="1200"/>
  <unicode hex="002C"/>
  <outline>
    <contour>
      <point x="208" y="-436" type="line"/>
      <point x="466" y="-436" type="line"/>
      <point x="708" y="254" type="line"/>
      <point x="410" y="254" type="line"/>
    </contour>
  </outline>
</glyph>
<glyph name="period" format="2">
  <advance width="1200"/>
  <unicode hex="002E"/>
  <outline>
    <contour>
      <point x="535" y="-20" type="curve" smooth="yes"/>
      <point x="636" y="-20"/>
      <point x="717" y="62"/>
      <point x="717" y="162" type="curve" smooth="yes"/>
      <point x="717" y="263"/>
      <point x="636" y="344"/>
      <point x="535" y="344" type="curve" smooth="yes"/>
      <point x="434" y="344"/>
      <point x="353" y="263"/>
      <point x="353" y="162" type="curve" smooth="yes"/>
      <point x="353" y="62"/>
      <point x="434" y="-20"/>
    </contour>
  </outline>
</glyph>
<glyph name="zero" format="2">
  <advance width="1200"/>
  <unicode hex="0030"/>
  <outline>
    <contour>
      <point x="506" y="-20" type="curve" smooth="yes"/>
      <point x="940" y="-20"/>
      <point x="1167" y="304"/>
      <point x="1167" y="925" type="curve" smooth="yes"/>
      <point x="1167" y="1263"/>
      <point x="1028" y="1440"/>
      <point x="762" y="1440" type="curve" smooth="yes"/>
      <point x="326" y="1440"/>
      <point x="98" y="1120"/>
      <point x="98" y="506" type="curve" smooth="yes"/>
      <point x="98" y="160"/>
      <point x="238" y="-20"/>
    </contour>
    <contour>
      <point x="599" y="518" type="curve" smooth="yes"/>
      <point x="701" y="518"/>
      <point x="762" y="600"/>
      <point x="762" y="740" type="curve" smooth="yes"/>
      <point x="762" y="831"/>
      <point x="726" y="884"/>
      <point x="664" y="884" type="curve" smooth="yes"/>
      <point x="562" y="884"/>
      <point x="502" y="805"/>
      <point x="502" y="670" type="curve" smooth="yes"/>
      <point x="502" y="574"/>
      <point x="538" y="518"/>
    </contour>
    <contour>
      <point x="549" y="232" type="curve" smooth="yes"/>
      <point x="435" y="232"/>
      <point x="376" y="328"/>
      <point x="376" y="511" type="curve" smooth="yes"/>
      <point x="376" y="956"/>
      <point x="493" y="1188"/>
      <point x="717" y="1188" type="curve" smooth="yes"/>
      <point x="830" y="1188"/>
      <point x="889" y="1094"/>
      <point x="889" y="914" type="curve" smooth="yes"/>
      <point x="889" y="466"/>
      <point x="772" y="232"/>
    </contour>
  </outline>
</glyph>
<glyph name="one" format="2">
  <advance width="1200"/>
  <unicode hex="0031"/>
  <outline>
    <contour>
      <point x="404" y="0" type="line"/>
      <point x="670" y="0" type="line"/>
      <point x="920" y="1420" type="line"/>
      <point x="654" y="1420" type="line"/>
    </contour>
    <contour>
      <point x="60" y="0" type="line"/>
      <point x="424" y="0" type="line"/>
      <point x="465" y="234" type="line"/>
      <point x="101" y="234" type="line"/>
    </contour>
    <contour>
      <point x="650" y="0" type="line"/>
      <point x="976" y="0" type="line"/>
      <point x="1017" y="234" type="line"/>
      <point x="691" y="234" type="line"/>
    </contour>
    <contour>
      <point x="265" y="1048" type="line"/>
      <point x="609" y="1164" type="line"/>
      <point x="654" y="1420" type="line"/>
      <point x="309" y="1300" type="line"/>
    </contour>
  </outline>
</glyph>
<glyph name="two" format="2">
  <advance width="1200"/>
  <unicode hex="0032"/>
  <outline>
    <contour>
      <point x="59" y="0" type="line"/>
      <point x="509" y="0" type="line"/>
      <point x="517" y="276" type="line"/>
      <point x="906" y="515"/>
      <point x="1132" y="794"/>
      <point x="1132" y="1107" type="curve" smooth="yes"/>
      <point x="1132" y="1329"/>
      <point x="998" y="1440"/>
      <point x="729" y="1440" type="curve" smooth="yes"/>
      <point x="534" y="1440"/>
      <point x="325" y="1349"/>
      <point x="203" y="1211" type="curve"/>
      <point x="342" y="1041" type="line"/>
      <point x="447" y="1132"/>
      <point x="586" y="1188"/>
      <point x="692" y="1188" type="curve" smooth="yes"/>
      <point x="794" y="1188"/>
      <point x="844" y="1145"/>
      <point x="844" y="1061" type="curve" smooth="yes"/>
      <point x="844" y="792"/>
      <point x="558" y="512"/>
      <point x="47" y="272" type="curve"/>
    </contour>
    <contour>
      <point x="119" y="0" type="line"/>
      <point x="983" y="0" type="line"/>
      <point x="1024" y="234" type="line"/>
      <point x="110" y="234" type="line"/>
    </contour>
  </outline>
</glyph>
<glyph name="three" format="2">
  <advance width="1200"/>
  <unicode hex="0033"/>
  <outline>
    <contour>
      <point x="426" y="-20" type="curve" smooth="yes"/>
      <point x="799" y="-20"/>
      <point x="1042" y="155"/>
      <point x="1042" y="426" type="curve" smooth="yes"/>
      <point x="1042" y="615"/>
      <point x="908" y="714"/>
      <point x="700" y="744" type="curve" smooth="yes"/>
      <point x="394" y="828" type="line"/>
      <point x="399" y="600" type="line"/>
      <point x="502" y="596" type="line" smooth="yes"/>
      <point x="670" y="589"/>
      <point x="764" y="535"/>
      <point x="764" y="430" type="curve" smooth="yes"/>
      <point x="764" y="310"/>
      <point x="635" y="232"/>
      <point x="440" y="232" type="curve" smooth="yes"/>
      <point x="285" y="232"/>
      <point x="198" y="261"/>
      <point x="121" y="282" type="curve"/>
      <point x="40" y="28" type="line"/>
      <point x="137" y="-1"/>
      <point x="267" y="-20"/>
    </contour>
    <contour>
      <point x="399" y="600" type="line"/>
      <point x="790" y="600" type="line"/>
      <point x="790" y="758" type="line"/>
      <point x="1018" y="809"/>
      <point x="1143" y="969"/>
      <point x="1143" y="1147" type="curve" smooth="yes"/>
      <point x="1143" y="1336"/>
      <point x="1010" y="1440"/>
      <point x="767" y="1440" type="curve" smooth="yes"/>
      <point x="549" y="1440"/>
      <point x="360" y="1377"/>
      <point x="199" y="1231" type="curve"/>
      <point x="353" y="1054" type="line"/>
      <point x="481" y="1145"/>
      <point x="617" y="1188"/>
      <point x="723" y="1188" type="curve" smooth="yes"/>
      <point x="815" y="1188"/>
      <point x="865" y="1145"/>
      <point x="865" y="1072" type="curve" smooth="yes"/>
      <point x="865" y="944"/>
      <point x="701" y="859"/>
      <point x="394" y="828" type="curve"/>
    </contour>
  </outline>
</glyph>
<glyph name="four" format="2">
  <advance width="1200"/>
  <unicode hex="0034"/>
  <outline>
    <contour>
      <point x="13" y="286" type="line"/>
      <point x="285" y="286" type="line"/>
      <point x="648" y="1340" type="line"/>
      <point x="374" y="1340" type="line"/>
    </contour>
    <contour>
      <point x="13" y="286" type="line"/>
      <point x="713" y="286" type="line"/>
      <point x="756" y="527" type="line"/>
      <point x="213" y="527" type="line"/>
    </contour>
    <contour>
      <point x="936" y="286" type="line"/>
      <point x="1093" y="286" type="line"/>
      <point x="1136" y="527" type="line"/>
      <point x="979" y="527" type="line"/>
    </contour>
    <contour>
      <point x="640" y="0" type="line"/>
      <point x="906" y="0" type="line"/>
      <point x="1156" y="1420" type="line"/>
      <point x="890" y="1420" type="line"/>
    </contour>
  </outline>
</glyph>
<glyph name="five" format="2">
  <advance width="1200"/>
  <unicode hex="0035"/>
  <outline>
    <contour>
      <point x="546" y="-20" type="curve" smooth="yes"/>
      <point x="902" y="-20"/>
      <point x="1113" y="188"/>
      <point x="1113" y="542" type="curve" smooth="yes"/>
      <point x="1113" y="785"/>
      <point x="975" y="930"/>
      <point x="741" y="930" type="curve" smooth="yes"/>
      <point x="628" y="930"/>
      <point x="530" y="909"/>
      <point x="384" y="830" type="curve"/>
      <point x="386" y="610" type="line"/>
      <point x="446" y="654"/>
      <point x="529" y="678"/>
      <point x="629" y="678" type="curve" smooth="yes"/>
      <point x="759" y="678"/>
      <point x="835" y="608"/>
      <point x="835" y="489" type="curve" smooth="yes"/>
      <point x="835" y="327"/>
      <point x="737" y="232"/>
      <point x="571" y="232" type="curve" smooth="yes"/>
      <point x="427" y="232"/>
      <point x="355" y="306"/>
      <point x="375" y="430" type="curve"/>
      <point x="98" y="430" type="line"/>
      <point x="50" y="147"/>
      <point x="214" y="-20"/>
    </contour>
    <contour>
      <point x="212" y="610" type="line"/>
      <point x="386" y="610" type="line"/>
      <point x="521" y="804" type="line"/>
      <point x="628" y="1420" type="line"/>
      <point x="354" y="1420" type="line"/>
    </contour>
    <contour>
      <point x="427" y="1177" type="line"/>
      <point x="1137" y="1177" type="line"/>
      <point x="1180" y="1420" type="line"/>
      <point x="452" y="1420" type="line"/>
    </contour>
  </outline>
</glyph>
<glyph name="six" format="2">
  <advance width="1200"/>
  <unicode hex="0036"/>
  <outline>
    <contour>
      <point x="538" y="-20" type="curve" smooth="yes"/>
      <point x="881" y="-20"/>
      <point x="1115" y="209"/>
      <point x="1115" y="541" type="curve" smooth="yes"/>
      <point x="1115" y="771"/>
      <point x="995" y="900"/>
      <point x="768" y="900" type="curve" smooth="yes"/>
      <point x="616" y="900"/>
      <point x="490" y="810"/>
      <point x="431" y="652" type="curve"/>
      <point x="406" y="652" type="line"/>
      <point x="493" y="986"/>
      <point x="705" y="1156"/>
      <point x="1125" y="1174" type="curve"/>
      <point x="1139" y="1426" type="line"/>
      <point x="436" y="1394"/>
      <point x="99" y="1011"/>
      <point x="99" y="396" type="curve" smooth="yes"/>
      <point x="99" y="122"/>
      <point x="250" y="-20"/>
    </contour>
    <contour>
      <point x="572" y="232" type="curve" smooth="yes"/>
      <point x="449" y="232"/>
      <point x="388" y="290"/>
      <point x="388" y="405" type="curve" smooth="yes"/>
      <point x="388" y="550"/>
      <point x="490" y="648"/>
      <point x="641" y="648" type="curve" smooth="yes"/>
      <point x="766" y="648"/>
      <point x="832" y="584"/>
      <point x="832" y="468" type="curve" smooth="yes"/>
      <point x="832" y="334"/>
      <point x="720" y="232"/>
    </contour>
  </outline>
</glyph>
<glyph name="seven" format="2">
  <advance width="1200"/>
  <unicode hex="0037"/>
  <outline>
    <contour>
      <point x="384" y="0" type="line"/>
      <point x="653" y="0" type="line"/>
      <point x="1328" y="1420" type="line"/>
      <point x="1042" y="1420" type="line"/>
    </contour>
    <contour>
      <point x="156" y="872" type="line"/>
      <point x="422" y="872" type="line"/>
      <point x="518" y="1420" type="line"/>
      <point x="253" y="1420" type="line"/>
    </contour>
    <contour>
      <point x="220" y="1177" type="line"/>
      <point x="1126" y="1177" type="line"/>
      <point x="1328" y="1420" type="line"/>
      <point x="253" y="1420" type="line"/>
    </contour>
  </outline>
</glyph>
<glyph name="eight" format="2">
  <advance width="1200"/>
  <unicode hex="0038"/>
  <outline>
    <contour>
      <point x="500" y="-20" type="curve" smooth="yes"/>
      <point x="849" y="-20"/>
      <point x="1082" y="170"/>
      <point x="1082" y="454" type="curve" smooth="yes"/>
      <point x="1082" y="646"/>
      <point x="905" y="774"/>
      <point x="639" y="774" type="curve" smooth="yes"/>
      <point x="295" y="774"/>
      <point x="66" y="589"/>
      <point x="66" y="312" type="curve" smooth="yes"/>
      <point x="66" y="113"/>
      <point x="240" y="-20"/>
    </contour>
    <contour>
      <point x="554" y="232" type="curve" smooth="yes"/>
      <point x="428" y="232"/>
      <point x="344" y="298"/>
      <point x="344" y="398" type="curve" smooth="yes"/>
      <point x="344" y="534"/>
      <point x="448" y="624"/>
      <point x="603" y="624" type="curve" smooth="yes"/>
      <point x="724" y="624"/>
      <point x="804" y="558"/>
      <point x="804" y="459" type="curve" smooth="yes"/>
      <point x="804" y="323"/>
      <point x="704" y="232"/>
    </contour>
    <contour>
      <point x="422" y="706" type="line"/>
      <point x="836" y="706" type="line"/>
      <point x="854" y="808" type="line"/>
      <point x="440" y="808" type="line"/>
    </contour>
    <contour>
      <point x="667" y="876" type="curve" smooth="yes"/>
      <point x="567" y="876"/>
      <point x="500" y="929"/>
      <point x="500" y="1009" type="curve" smooth="yes"/>
      <point x="500" y="1116"/>
      <point x="581" y="1188"/>
      <point x="702" y="1188" type="curve" smooth="yes"/>
      <point x="812" y="1188"/>
      <point x="886" y="1133"/>
      <point x="886" y="1051" type="curve" smooth="yes"/>
      <point x="886" y="946"/>
      <point x="798" y="876"/>
    </contour>
    <contour>
      <point x="633" y="736" type="curve" smooth="yes"/>
      <point x="952" y="736"/>
      <point x="1164" y="895"/>
      <point x="1164" y="1134" type="curve" smooth="yes"/>
      <point x="1164" y="1318"/>
      <point x="1001" y="1440"/>
      <point x="757" y="1440" type="curve" smooth="yes"/>
      <point x="440" y="1440"/>
      <point x="228" y="1274"/>
      <point x="228" y="1026" type="curve" smooth="yes"/>
      <point x="228" y="852"/>
      <point x="390" y="736"/>
    </contour>
  </outline>
</glyph>
<glyph name="nine" format="2">
  <advance width="1200"/>
  <unicode hex="0039"/>
  <outline>
    <contour>
      <point x="128" y="-20" type="line"/>
      <point x="831" y="12"/>
      <point x="1168" y="395"/>
      <point x="1168" y="1010" type="curve" smooth="yes"/>
      <point x="1168" y="1284"/>
      <point x="1017" y="1426"/>
      <point x="729" y="1426" type="curve" smooth="yes"/>
      <point x="386" y="1426"/>
      <point x="152" y="1197"/>
      <point x="152" y="865" type="curve" smooth="yes"/>
      <point x="152" y="635"/>
      <point x="272" y="506"/>
      <point x="499" y="506" type="curve" smooth="yes"/>
      <point x="651" y="506"/>
      <point x="777" y="596"/>
      <point x="836" y="754" type="curve"/>
      <point x="861" y="754" type="line"/>
      <point x="804" y="420"/>
      <point x="562" y="250"/>
      <point x="142" y="232" type="curve"/>
    </contour>
    <contour>
      <point x="626" y="758" type="curve" smooth="yes"/>
      <point x="501" y="758"/>
      <point x="435" y="822"/>
      <point x="435" y="938" type="curve" smooth="yes"/>
      <point x="435" y="1072"/>
      <point x="547" y="1174"/>
      <point x="695" y="1174" type="curve" smooth="yes"/>
      <point x="818" y="1174"/>
      <point x="879" y="1116"/>
      <point x="879" y="1001" type="curve" smooth="yes"/>
      <point x="879" y="856"/>
      <point x="777" y="758"/>
    </contour>
  </outline>
</glyph>
<glyph name="colon" format="2">
  <advance width="1200"/>
  <unicode hex="003A"/>
  <outline>
    <contour>
      <point x="665" y="716" type="curve" smooth="yes"/>
      <point x="766" y="716"/>
      <point x="847" y="798"/>
      <point x="847" y="898" type="curve" smooth="yes"/>
      <point x="847" y="999"/>
      <point x="766" y="1080"/>
      <point x="665" y="1080" type="curve" smooth="yes"/>
      <point x="564" y="1080"/>
      <point x="483" y="999"/>
      <point x="483" y="898" type="curve" smooth="yes"/>
      <point x="483" y="798"/>
      <point x="564" y="716"/>
    </contour>
    <contour>
      <point x="535" y="-20" type="curve" smooth="yes"/>
      <point x="636" y="-20"/>
      <point x="717" y="62"/>
      <point x="717" y="162" type="curve" smooth="yes"/>
      <point x="717" y="263"/>
      <point x="636" y="344"/>
      <point x="535" y="344" type="curve" smooth="yes"/>
      <point x="434" y="344"/>
      <point x="353" y="263"/>
      <point x="353" y="162" type="curve" smooth="yes"/>
      <point x="353" y="62"/>
      <point x="434" y="-20"/>
    </contour>
  </outline>
</glyph>
<glyph name="semicolon" format="2">
  <advance width="1200"/>
  <unicode hex="003B"/>
  <outline>
    <contour>
      <point x="679" y="716" type="curve" smooth="yes"/>
      <point x="780" y="716"/>
      <point x="861" y="798"/>
      <point x="861" y="898" type="curve" smooth="yes"/>
      <point x="861" y="999"/>
      <point x="780" y="1080"/>
      <point x="679" y="1080" type="curve" smooth="yes"/>
      <point x="578" y="1080"/>
      <point x="497" y="999"/>
      <point x="497" y="898" type="curve" smooth="yes"/>
      <point x="497" y="798"/>
      <point x="578" y="716"/>
    </contour>
    <component base="comma"/>
  </outline>
</glyph>
<glyph name="less" format="2">
  <advance width="1200"/>
  <unicode hex="003C"/>
  <outline>
    <contour>
      <point x="1027" y="197" type="line"/>
      <point x="1074" y="459" type="line"/>
      <point x="384" y="691" type="line"/>
      <point x="388" y="709" type="line"/>
      <point x="1159" y="942" type="line"/>
      <point x="1208" y="1221" type="line"/>
      <point x="118" y="843" type="line"/>
      <point x="71" y="575" type="line"/>
    </contour>
  </outline>
</glyph>
<glyph name="equal" format="2">
  <advance width="1200"/>
  <unicode hex="003D"/>
  <outline>
    <contour>
      <point x="137" y="835" type="line"/>
      <point x="1170" y="835" type="line"/>
      <point x="1214" y="1085" type="line"/>
      <point x="181" y="1085" type="line"/>
    </contour>
    <contour>
      <point x="49" y="333" type="line"/>
      <point x="1082" y="333" type="line"/>
      <point x="1126" y="583" type="line"/>
      <point x="93" y="583" type="line"/>
    </contour>
  </outline>
</glyph>
<glyph name="greater" format="2">
  <advance width="1200"/>
  <unicode hex="003E"/>
  <outline>
    <contour>
      <point x="55" y="197" type="line"/>
      <point x="1144" y="575" type="line"/>
      <point x="1191" y="843" type="line"/>
      <point x="236" y="1221" type="line"/>
      <point x="189" y="959" type="line"/>
      <point x="878" y="727" type="line"/>
      <point x="874" y="709" type="line"/>
      <point x="104" y="476" type="line"/>
    </contour>
  </outline>
</glyph>
<glyph name="question" format="2">
  <advance width="1200"/>
  <unicode hex="003F"/>
  <outline>
    <contour>
      <point x="405" y="489" type="line"/>
      <point x="669" y="489" type="line"/>
      <point x="672" y="505" type="line" smooth="yes"/>
      <point x="686" y="578"/>
      <point x="748" y="643"/>
      <point x="875" y="738" type="curve" smooth="yes"/>
      <point x="1043" y="863"/>
      <point x="1130" y="978"/>
      <point x="1130" y="1142" type="curve" smooth="yes"/>
      <point x="1130" y="1329"/>
      <point x="993" y="1440"/>
      <point x="761" y="1440" type="curve"/>
      <point x="715" y="1190" type="line"/>
      <point x="792" y="1190"/>
      <point x="838" y="1151"/>
      <point x="838" y="1085" type="curve" smooth="yes"/>
      <point x="838" y="1012"/>
      <point x="795" y="965"/>
      <point x="716" y="904" type="curve" smooth="yes"/>
      <point x="547" y="773"/>
      <point x="424" y="681"/>
      <point x="408" y="519" type="curve" smooth="yes"/>
    </contour>
    <contour>
      <point x="365" y="1025" type="line"/>
      <point x="462" y="1125"/>
      <point x="598" y="1190"/>
      <point x="715" y="1190" type="curve"/>
      <point x="761" y="1440" type="line"/>
      <point x="549" y="1440"/>
      <point x="334" y="1357"/>
      <point x="212" y="1231" type="curve"/>
    </contour>
    <component base="period" xOffset="-38"/>
  </outline>
</glyph>
<glyph name="at" format="2">
  <advance width="1200"/>
  <unicode hex="0040"/>
  <outline>
    <contour>
      <point x="604" y="-283" type="curve" smooth="yes"/>
      <point x="678" y="-283"/>
      <point x="731" y="-276"/>
      <point x="786" y="-258" type="curve"/>
      <point x="817" y="-18" type="line"/>
      <point x="759" y="-36"/>
      <point x="695" y="-43"/>
      <point x="606" y="-43" type="curve" smooth="yes"/>
      <point x="405" y="-43"/>
      <point x="310" y="69"/>
      <point x="310" y="323" type="curve" smooth="yes"/>
      <point x="310" y="802"/>
      <point x="519" y="1199"/>
      <point x="771" y="1199" type="curve" smooth="yes"/>
      <point x="873" y="1199"/>
      <point x="926" y="1161"/>
      <point x="926" y="1019" type="curve" smooth="yes"/>
      <point x="910" y="967"/>
      <point x="913" y="889"/>
      <point x="849" y="524" type="curve"/>
      <point x="1087" y="524" type="line"/>
      <point x="1144" y="846"/>
      <point x="1171" y="991"/>
      <point x="1171" y="1068" type="curve" smooth="yes"/>
      <point x="1171" y="1312"/>
      <point x="1044" y="1439"/>
      <point x="801" y="1439" type="curve" smooth="yes"/>
      <point x="382" y="1439"/>
      <point x="67" y="957"/>
      <point x="67" y="317" type="curve" smooth="yes"/>
      <point x="67" y="-100"/>
      <point x="238" y="-283"/>
    </contour>
    <contour>
      <point x="586" y="124" type="curve" smooth="yes"/>
      <point x="691" y="124"/>
      <point x="777" y="224"/>
      <point x="814" y="399" type="curve"/>
      <point x="790" y="355" type="line"/>
      <point x="896" y="355" type="line"/>
      <point x="839" y="466" type="line"/>
      <point x="806" y="143" type="line"/>
      <point x="1020" y="143" type="line"/>
      <point x="1120" y="710" type="line"/>
      <point x="882" y="710" type="line"/>
      <point x="828" y="405"/>
      <point x="782" y="346"/>
      <point x="698" y="346" type="curve" smooth="yes"/>
      <point x="651" y="346"/>
      <point x="630" y="376"/>
      <point x="630" y="442" type="curve" smooth="yes"/>
      <point x="630" y="669"/>
      <point x="766" y="843"/>
      <point x="939" y="853" type="curve"/>
      <point x="942" y="1090" type="line"/>
      <point x="635" y="1047"/>
      <point x="413" y="784"/>
      <point x="413" y="397" type="curve" smooth="yes"/>
      <point x="413" y="224"/>
      <point x="476" y="124"/>
    </contour>
  </outline>
</glyph>
<glyph name="A" format="2">
  <advance width="1200"/>
  <unicode hex="0041"/>
  <anchor x="506" y="0" name="bottom"/>
  <anchor x="989" y="10" name="ogonek"/>
  <anchor x="756" y="1420" name="top"/>
  <outline>
    <contour>
      <point x="-65" y="0" type="line"/>
      <point x="205" y="0" type="line"/>
      <point x="691" y="1113" type="line"/>
      <point x="723" y="1113" type="line"/>
      <point x="758" y="742"/>
      <point x="793" y="371"/>
      <point x="809" y="0" type="curve"/>
      <point x="1079" y="0" type="line"/>
      <point x="1047" y="474"/>
      <point x="995" y="947"/>
      <point x="923" y="1421" type="curve"/>
      <point x="594" y="1421" type="line"/>
    </contour>
    <contour>
      <point x="193" y="269" type="line"/>
      <point x="913" y="269" type="line"/>
      <point x="947" y="513" type="line"/>
      <point x="227" y="513" type="line"/>
    </contour>
  </outline>
</glyph>
<glyph name="B" format="2">
  <advance width="1200"/>
  <unicode hex="0042"/>
  <anchor x="506" y="0" name="bottom"/>
  <anchor x="757" y="1420" name="top"/>
  <outline>
    <contour>
      <point x="50" y="0" type="line"/>
      <point x="316" y="0" type="line"/>
      <point x="566" y="1420" type="line"/>
      <point x="300" y="1420" type="line"/>
    </contour>
    <contour>
      <point x="268" y="765" type="line"/>
      <point x="606" y="765" type="line" smooth="yes"/>
      <point x="960" y="765"/>
      <point x="1144" y="877"/>
      <point x="1144" y="1091" type="curve" smooth="yes"/>
      <point x="1144" y="1320"/>
      <point x="955" y="1440"/>
      <point x="594" y="1440" type="curve" smooth="yes"/>
      <point x="478" y="1440"/>
      <point x="376" y="1433"/>
      <point x="300" y="1420" type="curve"/>
      <point x="267" y="1177" type="line"/>
      <point x="357" y="1190"/>
      <point x="479" y="1197"/>
      <point x="621" y="1197" type="curve" smooth="yes"/>
      <point x="782" y="1197"/>
      <point x="867" y="1146"/>
      <point x="867" y="1048" type="curve" smooth="yes"/>
      <point x="867" y="933"/>
      <point x="768" y="873"/>
      <point x="579" y="873" type="curve" smooth="yes"/>
      <point x="301" y="873" type="line"/>
    </contour>
    <contour>
      <point x="235" y="0" type="line"/>
      <point x="450" y="0" type="line" smooth="yes"/>
      <point x="894" y="0"/>
      <point x="1125" y="145"/>
      <point x="1125" y="422" type="curve" smooth="yes"/>
      <point x="1125" y="628"/>
      <point x="972" y="736"/>
      <point x="680" y="736" type="curve" smooth="yes"/>
      <point x="348" y="736" type="line"/>
      <point x="359" y="629" type="line"/>
      <point x="567" y="629" type="line" smooth="yes"/>
      <point x="752" y="629"/>
      <point x="848" y="571"/>
      <point x="848" y="458" type="curve" smooth="yes"/>
      <point x="848" y="317"/>
      <point x="705" y="243"/>
      <point x="430" y="243" type="curve" smooth="yes"/>
      <point x="269" y="243" type="line"/>
    </contour>
    <contour>
      <point x="291" y="698" type="line"/>
      <point x="708" y="698" type="line"/>
      <point x="725" y="796" type="line"/>
      <point x="308" y="796" type="line"/>
    </contour>
  </outline>
</glyph>
<glyph name="D" format="2">
  <advance width="1200"/>
  <unicode hex="0044"/>
  <anchor x="506" y="0" name="bottom"/>
  <anchor x="631" y="710" name="center"/>
  <anchor x="717" y="1420" name="top"/>
  <outline>
    <contour>
      <point x="270" y="0" type="line"/>
      <point x="311" y="0" type="line" smooth="yes"/>
      <point x="864" y="0"/>
      <point x="1189" y="316"/>
      <point x="1189" y="853" type="curve" smooth="yes"/>
      <point x="1189" y="1222"/>
      <point x="941" y="1440"/>
      <point x="521" y="1440" type="curve" smooth="yes"/>
      <point x="436" y="1440"/>
      <point x="354" y="1433"/>
      <point x="280" y="1420" type="curve"/>
      <point x="297" y="1168" type="line"/>
      <point x="361" y="1181"/>
      <point x="429" y="1188"/>
      <point x="496" y="1188" type="curve" smooth="yes"/>
      <point x="758" y="1188"/>
      <point x="912" y="1057"/>
      <point x="912" y="835" type="curve" smooth="yes"/>
      <point x="912" y="468"/>
      <point x="704" y="252"/>
      <point x="353" y="252" type="curve" smooth="yes"/>
      <point x="304" y="252" type="line"/>
    </contour>
    <contour>
      <point x="30" y="0" type="line"/>
      <point x="296" y="0" type="line"/>
      <point x="544" y="1420" type="line"/>
      <point x="280" y="1420" type="line"/>
    </contour>
  </outline>
</glyph>
<glyph name="E" format="2">
  <advance width="1200"/>
  <unicode hex="0045"/>
  <anchor x="546" y="0" name="bottom"/>
  <anchor x="942" y="10" name="ogonek"/>
  <anchor x="797" y="1420" name="top"/>
  <anchor x="182" y="1420" name="topleft"/>
  <outline>
    <contour>
      <point x="50" y="0" type="line"/>
      <point x="316" y="0" type="line"/>
      <point x="566" y="1420" type="line"/>
      <point x="300" y="1420" type="line"/>
    </contour>
    <contour>
      <point x="50" y="0" type="line"/>
      <point x="1024" y="0" type="line"/>
      <point x="1067" y="244" type="line"/>
      <point x="94" y="244" type="line"/>
    </contour>
    <contour>
      <point x="154" y="589" type="line"/>
      <point x="948" y="589" type="line"/>
      <point x="991" y="833" type="line"/>
      <point x="197" y="833" type="line"/>
    </contour>
    <contour>
      <point x="257" y="1176" type="line"/>
      <point x="1231" y="1176" type="line"/>
      <point x="1274" y="1420" type="line"/>
      <point x="300" y="1420" type="line"/>
    </contour>
  </outline>
</glyph>
<glyph name="F" format="2">
  <advance width="1200"/>
  <unicode hex="0046"/>
  <anchor x="506" y="0" name="bottom"/>
  <anchor x="757" y="1420" name="top"/>
  <outline>
    <contour>
      <point x="70" y="0" type="line"/>
      <point x="336" y="0" type="line"/>
      <point x="586" y="1420" type="line"/>
      <point x="320" y="1420" type="line"/>
    </contour>
    <contour>
      <point x="223" y="529" type="line"/>
      <point x="957" y="529" type="line"/>
      <point x="1000" y="774" type="line"/>
      <point x="267" y="774" type="line"/>
    </contour>
    <contour>
      <point x="277" y="1176" type="line"/>
      <point x="1251" y="1176" type="line"/>
      <point x="1294" y="1420" type="line"/>
      <point x="320" y="1420" type="line"/>
    </contour>
  </outline>
</glyph>
<glyph name="G" format="2">
  <advance width="1200"/>
  <unicode hex="0047"/>
  <anchor x="586" y="0" name="bottom"/>
  <anchor x="857" y="1420" name="top"/>
  <outline>
    <contour>
      <point x="594" y="-20" type="curve" smooth="yes"/>
      <point x="796" y="-20"/>
      <point x="974" y="22"/>
      <point x="1040" y="40" type="curve"/>
      <point x="980" y="282" type="line"/>
      <point x="905" y="264"/>
      <point x="785" y="232"/>
      <point x="640" y="232" type="curve" smooth="yes"/>
      <point x="443" y="232"/>
      <point x="343" y="334"/>
      <point x="343" y="539" type="curve" smooth="yes"/>
      <point x="343" y="919"/>
      <point x="564" y="1188"/>
      <point x="853" y="1188" type="curve" smooth="yes"/>
      <point x="970" y="1188"/>
      <point x="1055" y="1139"/>
      <point x="1118" y="1076" type="curve"/>
      <point x="1273" y="1299" type="line"/>
      <point x="1197" y="1381"/>
      <point x="1083" y="1440"/>
      <point x="883" y="1440" type="curve" smooth="yes"/>
      <point x="381" y="1440"/>
      <point x="66" y="1046"/>
      <point x="66" y="513" type="curve" smooth="yes"/>
      <point x="66" y="178"/>
      <point x="262" y="-20"/>
    </contour>
    <contour>
      <point x="774" y="40" type="line"/>
      <point x="1040" y="40" type="line"/>
      <point x="1163" y="735" type="line"/>
      <point x="897" y="735" type="line"/>
    </contour>
    <contour>
      <point x="624" y="492" type="line"/>
      <point x="1114" y="492" type="line"/>
      <point x="1157" y="735" type="line"/>
      <point x="667" y="735" type="line"/>
    </contour>
  </outline>
</glyph>
<glyph name="H" format="2">
  <advance width="1200"/>
  <unicode hex="0048"/>
  <anchor x="506" y="0" name="bottom"/>
  <anchor x="634" y="710" name="center"/>
  <anchor x="757" y="1420" name="top"/>
  <anchor x="177" y="1420" name="topleft"/>
  <outline>
    <contour>
      <point x="718" y="0" type="line"/>
      <point x="984" y="0" type="line"/>
      <point x="1234" y="1420" type="line"/>
      <point x="968" y="1420" type="line"/>
    </contour>
    <contour>
      <point x="30" y="0" type="line"/>
      <point x="296" y="0" type="line"/>
      <point x="546" y="1420" type="line"/>
      <point x="280" y="1420" type="line"/>
    </contour>
    <contour>
      <point x="212" y="585" type="line"/>
      <point x="1023" y="585" type="line"/>
      <point x="1056" y="829" type="line"/>
      <point x="245" y="829" type="line"/>
    </contour>
  </outline>
</glyph>
<glyph name="I" format="2">
  <advance width="1200"/>
  <unicode hex="0049"/>
  <anchor x="506" y="0" name="bottom"/>
  <anchor x="508" y="10" name="ogonek"/>
  <anchor x="757" y="1420" name="top"/>
  <anchor x="182" y="1420" name="topleft"/>
  <outline>
    <contour>
      <point x="373" y="0" type="line"/>
      <point x="639" y="0" type="line"/>
      <point x="889" y="1420" type="line"/>
      <point x="623" y="1420" type="line"/>
    </contour>
    <contour>
      <point x="58" y="0" type="line"/>
      <point x="956" y="0" type="line"/>
      <point x="999" y="244" type="line"/>
      <point x="101" y="244" type="line"/>
    </contour>
    <contour>
      <point x="265" y="1176" type="line"/>
      <point x="1163" y="1176" type="line"/>
      <point x="1206" y="1420" type="line"/>
      <point x="308" y="1420" type="line"/>
    </contour>
  </outline>
</glyph>
<glyph name="J" format="2">
  <advance width="1200"/>
  <unicode hex="004A"/>
  <anchor x="506" y="0" name="bottom"/>
  <anchor x="957" y="1420" name="top"/>
  <outline>
    <contour>
      <point x="495" y="-20" type="curve" smooth="yes"/>
      <point x="829" y="-20"/>
      <point x="1009" y="136"/>
      <point x="1069" y="476" type="curve" smooth="yes"/>
      <point x="1235" y="1420" type="line"/>
      <point x="969" y="1420" type="line"/>
      <point x="803" y="476" type="line" smooth="yes"/>
      <point x="773" y="308"/>
      <point x="682" y="232"/>
      <point x="521" y="232" type="curve" smooth="yes"/>
      <point x="376" y="232"/>
      <point x="310" y="325"/>
      <point x="336" y="484" type="curve"/>
      <point x="61" y="484" type="line"/>
      <point x="-6" y="165"/>
      <point x="160" y="-20"/>
    </contour>
    <contour>
      <point x="605" y="1177" type="line"/>
      <point x="1068" y="1177" type="line"/>
      <point x="1110" y="1420" type="line"/>
      <point x="648" y="1420" type="line"/>
    </contour>
  </outline>
</glyph>
<glyph name="K" format="2">
  <advance width="1200"/>
  <unicode hex="004B"/>
  <anchor x="535" y="0" name="bottom"/>
  <anchor x="757" y="1420" name="top"/>
  <outline>
    <contour>
      <point x="213" y="332" type="line"/>
      <point x="819" y="404"/>
      <point x="1190" y="852"/>
      <point x="1288" y="1420" type="curve"/>
      <point x="1020" y="1420" type="line"/>
      <point x="945" y="998"/>
      <point x="712" y="658"/>
      <point x="226" y="590" type="curve"/>
    </contour>
    <contour>
      <point x="40" y="0" type="line"/>
      <point x="306" y="0" type="line"/>
      <point x="556" y="1420" type="line"/>
      <point x="290" y="1420" type="line"/>
    </contour>
    <contour>
      <point x="784" y="0" type="line"/>
      <point x="1086" y="0" type="line"/>
      <point x="847" y="724" type="line"/>
      <point x="594" y="622" type="line"/>
    </contour>
  </outline>
</glyph>
<glyph name="L" format="2">
  <advance width="1200"/>
  <unicode hex="004C"/>
  <anchor x="506" y="0" name="bottom"/>
  <anchor x="721" y="710" name="center"/>
  <anchor x="451" y="1420" name="top"/>
  <anchor x="1097" y="1420" name="topright"/>
  <outline>
    <contour>
      <point x="50" y="0" type="line"/>
      <point x="316" y="0" type="line"/>
      <point x="566" y="1420" type="line"/>
      <point x="300" y="1420" type="line"/>
    </contour>
    <contour>
      <point x="50" y="0" type="line"/>
      <point x="1024" y="0" type="line"/>
      <point x="1067" y="244" type="line"/>
      <point x="93" y="244" type="line"/>
    </contour>
  </outline>
</glyph>
<glyph name="M" format="2">
  <advance width="1200"/>
  <unicode hex="004D"/>
  <anchor x="506" y="0" name="bottom"/>
  <anchor x="757" y="1420" name="top"/>
  <outline>
    <contour>
      <point x="545" y="497" type="line"/>
      <point x="676" y="497" type="line"/>
      <point x="914" y="1168" type="line"/>
      <point x="982" y="1168" type="line"/>
      <point x="1026" y="1420" type="line"/>
      <point x="869" y="1420" type="line"/>
      <point x="645" y="775" type="line"/>
      <point x="633" y="775" type="line"/>
    </contour>
    <contour>
      <point x="18" y="0" type="line"/>
      <point x="277" y="0" type="line"/>
      <point x="527" y="1420" type="line"/>
      <point x="268" y="1420" type="line"/>
    </contour>
    <contour>
      <point x="505" y="496" type="line"/>
      <point x="599" y="497" type="line"/>
      <point x="637" y="775" type="line"/>
      <point x="629" y="775" type="line"/>
      <point x="640" y="1420" type="line"/>
      <point x="493" y="1420" type="line"/>
      <point x="449" y="1168" type="line"/>
      <point x="517" y="1168" type="line"/>
    </contour>
    <contour>
      <point x="742" y="0" type="line"/>
      <point x="996" y="0" type="line"/>
      <point x="1246" y="1420" type="line"/>
      <point x="992" y="1420" type="line"/>
    </contour>
  </outline>
</glyph>
<glyph name="N" format="2">
  <advance width="1200"/>
  <unicode hex="004E"/>
  <anchor x="506" y="0" name="bottom"/>
  <anchor x="757" y="1420" name="top"/>
  <outline>
    <contour>
      <point x="597" y="0" type="line"/>
      <point x="742" y="0" type="line"/>
      <point x="804" y="340" type="line"/>
      <point x="734" y="340" type="line"/>
      <point x="657" y="1420" type="line"/>
      <point x="472" y="1420" type="line"/>
      <point x="408" y="1080" type="line"/>
      <point x="520" y="1080" type="line"/>
    </contour>
    <contour>
      <point x="38" y="0" type="line"/>
      <point x="304" y="0" type="line"/>
      <point x="554" y="1420" type="line"/>
      <point x="288" y="1420" type="line"/>
    </contour>
    <contour>
      <point x="710" y="0" type="line"/>
      <point x="976" y="0" type="line"/>
      <point x="1226" y="1420" type="line"/>
      <point x="960" y="1420" type="line"/>
    </contour>
  </outline>
</glyph>
<glyph name="O" format="2">
  <advance width="1200"/>
  <unicode hex="004F"/>
  <guideline x="927" y="1269" angle="90"/>
  <anchor x="506" y="0" name="bottom"/>
  <anchor x="631" y="710" name="center"/>
  <anchor x="528" y="10" name="ogonek"/>
  <anchor x="757" y="1420" name="top"/>
  <anchor x="198" y="1420" name="topleft"/>
  <anchor x="1328" y="1420" name="topright"/>
  <outline>
    <contour>
      <point x="513" y="-20" type="curve" smooth="yes"/>
      <point x="942" y="-20"/>
      <point x="1195" y="331"/>
      <point x="1195" y="925" type="curve" smooth="yes"/>
      <point x="1195" y="1249"/>
      <point x="1030" y="1440"/>
      <point x="752" y="1440" type="curve" smooth="yes"/>
      <point x="319" y="1440"/>
      <point x="63" y="1093"/>
      <point x="63" y="506" type="curve" smooth="yes"/>
      <point x="63" y="175"/>
      <point x="230" y="-20"/>
    </contour>
    <contour>
      <point x="549" y="232" type="curve" smooth="yes"/>
      <point x="418" y="232"/>
      <point x="340" y="343"/>
      <point x="340" y="531" type="curve" smooth="yes"/>
      <point x="340" y="944"/>
      <point x="480" y="1188"/>
      <point x="717" y="1188" type="curve" smooth="yes"/>
      <point x="843" y="1188"/>
      <point x="918" y="1081"/>
      <point x="918" y="900" type="curve" smooth="yes"/>
      <point x="918" y="480"/>
      <point x="781" y="232"/>
    </contour>
  </outline>
</glyph>
<glyph name="P" format="2">
  <advance width="1200"/>
  <unicode hex="0050"/>
  <anchor x="506" y="0" name="bottom"/>
  <anchor x="707" y="1420" name="top"/>
  <outline>
    <contour>
      <point x="50" y="0" type="line"/>
      <point x="316" y="0" type="line"/>
      <point x="566" y="1420" type="line"/>
      <point x="300" y="1420" type="line"/>
    </contour>
    <contour>
      <point x="181" y="330" type="line"/>
      <point x="293" y="330" type="line" smooth="yes"/>
      <point x="903" y="330"/>
      <point x="1221" y="557"/>
      <point x="1221" y="991" type="curve" smooth="yes"/>
      <point x="1221" y="1286"/>
      <point x="1010" y="1440"/>
      <point x="605" y="1440" type="curve" smooth="yes"/>
      <point x="479" y="1440"/>
      <point x="375" y="1433"/>
      <point x="300" y="1420" type="curve"/>
      <point x="267" y="1168" type="line"/>
      <point x="352" y="1181"/>
      <point x="470" y="1188"/>
      <point x="612" y="1188" type="curve" smooth="yes"/>
      <point x="831" y="1188"/>
      <point x="944" y="1109"/>
      <point x="944" y="958" type="curve" smooth="yes"/>
      <point x="944" y="710"/>
      <point x="733" y="582"/>
      <point x="326" y="582" type="curve" smooth="yes"/>
      <point x="214" y="582" type="line"/>
    </contour>
  </outline>
</glyph>
<glyph name="Q" format="2">
  <advance width="1200"/>
  <unicode hex="0051"/>
  <anchor x="438" y="-388" name="bottom"/>
  <anchor x="757" y="1420" name="top"/>
  <outline>
    <contour>
      <point x="825" y="-460" type="curve" smooth="yes"/>
      <point x="889" y="-460" type="line"/>
      <point x="933" y="-210" type="line"/>
      <point x="868" y="-210" type="line" smooth="yes"/>
      <point x="698" y="-210"/>
      <point x="628" y="-147"/>
      <point x="651" y="-22" type="curve" smooth="yes"/>
      <point x="666" y="62" type="line"/>
      <point x="418" y="62" type="line"/>
      <point x="404" y="-20" type="line" smooth="yes"/>
      <point x="353" y="-314"/>
      <point x="492" y="-460"/>
    </contour>
    <component base="O"/>
  </outline>
</glyph>
<glyph name="R" format="2">
  <advance width="1200"/>
  <unicode hex="0052"/>
  <anchor x="506" y="0" name="bottom"/>
  <anchor x="707" y="1420" name="top"/>
  <outline>
    <contour>
      <point x="161" y="420" type="line"/>
      <point x="273" y="420" type="line" smooth="yes"/>
      <point x="883" y="420"/>
      <point x="1201" y="623"/>
      <point x="1201" y="1011" type="curve" smooth="yes"/>
      <point x="1201" y="1293"/>
      <point x="1004" y="1440"/>
      <point x="625" y="1440" type="curve" smooth="yes"/>
      <point x="486" y="1440"/>
      <point x="368" y="1433"/>
      <point x="280" y="1420" type="curve"/>
      <point x="247" y="1168" type="line"/>
      <point x="340" y="1181"/>
      <point x="465" y="1188"/>
      <point x="612" y="1188" type="curve" smooth="yes"/>
      <point x="817" y="1188"/>
      <point x="924" y="1123"/>
      <point x="924" y="998" type="curve" smooth="yes"/>
      <point x="924" y="782"/>
      <point x="713" y="670"/>
      <point x="306" y="670" type="curve" smooth="yes"/>
      <point x="194" y="670" type="line"/>
    </contour>
    <contour>
      <point x="30" y="0" type="line"/>
      <point x="296" y="0" type="line"/>
      <point x="546" y="1420" type="line"/>
      <point x="280" y="1420" type="line"/>
    </contour>
    <contour>
      <point x="770" y="0" type="line"/>
      <point x="1069" y="0" type="line"/>
      <point x="859" y="630" type="line"/>
      <point x="574" y="630" type="line"/>
    </contour>
  </outline>
</glyph>
<glyph name="S" format="2">
  <advance width="1200"/>
  <unicode hex="0053"/>
  <anchor x="506" y="0" name="bottom"/>
  <anchor x="757" y="1420" name="top"/>
  <outline>
    <contour>
      <point x="469" y="-20" type="curve" smooth="yes"/>
      <point x="850" y="-20"/>
      <point x="1050" y="131"/>
      <point x="1050" y="422" type="curve" smooth="yes"/>
      <point x="1050" y="542"/>
      <point x="1007" y="644"/>
      <point x="873" y="726" type="curve" smooth="yes"/>
      <point x="605" y="890" type="line" smooth="yes"/>
      <point x="539" y="931"/>
      <point x="504" y="984"/>
      <point x="504" y="1044" type="curve" smooth="yes"/>
      <point x="504" y="1137"/>
      <point x="575" y="1186"/>
      <point x="710" y="1186" type="curve" smooth="yes"/>
      <point x="817" y="1186"/>
      <point x="926" y="1142"/>
      <point x="1026" y="1059" type="curve"/>
      <point x="1171" y="1281" type="line"/>
      <point x="1063" y="1385"/>
      <point x="908" y="1440"/>
      <point x="722" y="1440" type="curve" smooth="yes"/>
      <point x="400" y="1440"/>
      <point x="227" y="1288"/>
      <point x="227" y="997" type="curve" smooth="yes"/>
      <point x="227" y="888"/>
      <point x="270" y="762"/>
      <point x="396" y="685" type="curve" smooth="yes"/>
      <point x="686" y="508" type="line" smooth="yes"/>
      <point x="748" y="470"/>
      <point x="773" y="439"/>
      <point x="773" y="389" type="curve" smooth="yes"/>
      <point x="773" y="287"/>
      <point x="676" y="234"/>
      <point x="488" y="234" type="curve" smooth="yes"/>
      <point x="364" y="234"/>
      <point x="229" y="263"/>
      <point x="93" y="320" type="curve"/>
      <point x="31" y="68" type="line"/>
      <point x="149" y="10"/>
      <point x="299" y="-20"/>
    </contour>
  </outline>
</glyph>
<glyph name="T" format="2">
  <advance width="1200"/>
  <unicode hex="0054"/>
  <anchor x="506" y="0" name="bottom"/>
  <anchor x="631" y="710" name="center"/>
  <anchor x="757" y="1420" name="top"/>
  <outline>
    <contour>
      <point x="372" y="0" type="line"/>
      <point x="638" y="0" type="line"/>
      <point x="888" y="1420" type="line"/>
      <point x="622" y="1420" type="line"/>
    </contour>
    <contour>
      <point x="196" y="1176" type="line"/>
      <point x="1232" y="1176" type="line"/>
      <point x="1275" y="1420" type="line"/>
      <point x="239" y="1420" type="line"/>
    </contour>
  </outline>
</glyph>
<glyph name="U" format="2">
  <advance width="1200"/>
  <unicode hex="0055"/>
  <anchor x="506" y="0" name="bottom"/>
  <anchor x="973" y="10" name="ogonek"/>
  <anchor x="757" y="1420" name="top"/>
  <anchor x="1372" y="1420" name="topright"/>
  <outline>
    <contour>
      <point x="539" y="-20" type="curve" smooth="yes"/>
      <point x="829" y="-20"/>
      <point x="1009" y="143"/>
      <point x="1064" y="456" type="curve" smooth="yes"/>
      <point x="1234" y="1420" type="line"/>
      <point x="968" y="1420" type="line"/>
      <point x="798" y="456" type="line" smooth="yes"/>
      <point x="772" y="310"/>
      <point x="689" y="234"/>
      <point x="556" y="234" type="curve" smooth="yes"/>
      <point x="412" y="234"/>
      <point x="350" y="310"/>
      <point x="376" y="456" type="curve" smooth="yes"/>
      <point x="546" y="1420" type="line"/>
      <point x="280" y="1420" type="line"/>
      <point x="110" y="456" type="line" smooth="yes"/>
      <point x="55" y="143"/>
      <point x="202" y="-20"/>
    </contour>
  </outline>
</glyph>
<glyph name="V" format="2">
  <advance width="1200"/>
  <unicode hex="0056"/>
  <anchor x="506" y="0" name="bottom"/>
  <anchor x="757" y="1420" name="top"/>
  <outline>
    <contour>
      <point x="288" y="0" type="line"/>
      <point x="630" y="0" type="line"/>
      <point x="957" y="368"/>
      <point x="1172" y="856"/>
      <point x="1329" y="1420" type="curve"/>
      <point x="1065" y="1420" type="line"/>
      <point x="929" y="951"/>
      <point x="765" y="552"/>
      <point x="534" y="239" type="curve"/>
      <point x="516" y="239" type="line"/>
      <point x="447" y="1432" type="line"/>
      <point x="185" y="1420" type="line"/>
    </contour>
  </outline>
</glyph>
<glyph name="W" format="2">
  <advance width="1200"/>
  <unicode hex="0057"/>
  <anchor x="506" y="0" name="bottom"/>
  <anchor x="717" y="1420" name="top"/>
  <outline>
    <contour>
      <point x="551" y="0" type="line"/>
      <point x="828" y="0" type="line"/>
      <point x="1042" y="348"/>
      <point x="1276" y="916"/>
      <point x="1347" y="1420" type="curve"/>
      <point x="1073" y="1420" type="line"/>
      <point x="1001" y="1010"/>
      <point x="877" y="531"/>
      <point x="717" y="237" type="curve"/>
      <point x="699" y="237" type="line"/>
      <point x="766" y="1072" type="line"/>
      <point x="554" y="1060" type="line"/>
      <point x="496" y="445" type="line"/>
      <point x="592" y="445" type="line"/>
    </contour>
    <contour>
      <point x="107" y="0" type="line"/>
      <point x="414" y="0" type="line"/>
      <point x="627" y="526" type="line"/>
      <point x="476" y="416" type="line"/>
      <point x="659" y="416" type="line"/>
      <point x="574" y="677" type="line"/>
      <point x="382" y="237" type="line"/>
      <point x="364" y="237" type="line"/>
      <point x="412" y="1432" type="line"/>
      <point x="160" y="1420" type="line"/>
    </contour>
  </outline>
</glyph>
<glyph name="X" format="2">
  <advance width="1200"/>
  <unicode hex="0058"/>
  <anchor x="506" y="0" name="bottom"/>
  <anchor x="757" y="1420" name="top"/>
  <outline>
    <contour>
      <point x="181" y="-40" type="line"/>
      <point x="659" y="598" type="line"/>
      <point x="1248" y="1280" type="line"/>
      <point x="1042" y="1460" type="line"/>
      <point x="574" y="770" type="line"/>
      <point x="-15" y="140" type="line"/>
    </contour>
    <contour>
      <point x="848" y="-20" type="curve" smooth="yes"/>
      <point x="929" y="-20"/>
      <point x="1003" y="0"/>
      <point x="1083" y="44" type="curve"/>
      <point x="1024" y="277" type="line"/>
      <point x="977" y="246"/>
      <point x="934" y="232"/>
      <point x="887" y="232" type="curve" smooth="yes"/>
      <point x="810" y="232"/>
      <point x="757" y="269"/>
      <point x="754" y="350" type="curve" smooth="yes"/>
      <point x="728" y="1131" type="line" smooth="yes"/>
      <point x="721" y="1344"/>
      <point x="594" y="1440"/>
      <point x="418" y="1440" type="curve" smooth="yes"/>
      <point x="351" y="1440"/>
      <point x="277" y="1423"/>
      <point x="183" y="1386" type="curve"/>
      <point x="242" y="1153" type="line"/>
      <point x="288" y="1177"/>
      <point x="331" y="1188"/>
      <point x="379" y="1188" type="curve" smooth="yes"/>
      <point x="443" y="1188"/>
      <point x="489" y="1151"/>
      <point x="492" y="1070" type="curve" smooth="yes"/>
      <point x="518" y="289" type="line" smooth="yes"/>
      <point x="525" y="76"/>
      <point x="658" y="-20"/>
    </contour>
  </outline>
</glyph>
<glyph name="Y" format="2">
  <advance width="1200"/>
  <unicode hex="0059"/>
  <anchor x="506" y="0" name="bottom"/>
  <anchor x="757" y="1420" name="top"/>
  <anchor x="158" y="1420" name="topleft"/>
  <outline>
    <contour>
      <point x="372" y="0" type="line"/>
      <point x="640" y="0" type="line"/>
      <point x="743" y="594" type="line"/>
      <point x="475" y="594" type="line"/>
    </contour>
    <contour>
      <point x="467" y="444" type="line"/>
      <point x="672" y="434" type="line"/>
      <point x="1020" y="703"/>
      <point x="1238" y="983"/>
      <point x="1349" y="1420" type="curve"/>
      <point x="1065" y="1420" type="line"/>
      <point x="983" y="1096"/>
      <point x="858" y="910"/>
      <point x="649" y="722" type="curve"/>
      <point x="631" y="722" type="line"/>
      <point x="433" y="1430" type="line"/>
      <point x="161" y="1398" type="line"/>
    </contour>
  </outline>
</glyph>
<glyph name="Z" format="2">
  <advance width="1200"/>
  <unicode hex="005A"/>
  <anchor x="506" y="0" name="bottom"/>
  <anchor x="632" y="710" name="center"/>
  <anchor x="737" y="1420" name="top"/>
  <outline>
    <contour>
      <point x="287" y="101" type="line"/>
      <point x="1201" y="1207" type="line"/>
      <point x="986" y="1342" type="line"/>
      <point x="72" y="213" type="line"/>
    </contour>
    <contour>
      <point x="143" y="0" type="line"/>
      <point x="983" y="0" type="line"/>
      <point x="1026" y="243" type="line"/>
      <point x="267" y="243" type="line"/>
      <point x="72" y="213" type="line"/>
    </contour>
    <contour>
      <point x="270" y="1177" type="line"/>
      <point x="1034" y="1177" type="line"/>
      <point x="1201" y="1207" type="line"/>
      <point x="1130" y="1420" type="line"/>
      <point x="312" y="1420" type="line"/>
    </contour>
  </outline>
</glyph>
<glyph name="bracketleft" format="2">
  <advance width="1200"/>
  <unicode hex="005B"/>
  <outline>
    <contour>
      <point x="224" y="-214" type="line"/>
      <point x="488" y="-214" type="line"/>
      <point x="814" y="1634" type="line"/>
      <point x="550" y="1634" type="line"/>
    </contour>
    <contour>
      <point x="468" y="-214" type="line"/>
      <point x="883" y="-214" type="line"/>
      <point x="928" y="38" type="line"/>
      <point x="513" y="38" type="line"/>
    </contour>
    <contour>
      <point x="749" y="1382" type="line"/>
      <point x="1164" y="1382" type="line"/>
      <point x="1209" y="1634" type="line"/>
      <point x="794" y="1634" type="line"/>
    </contour>
  </outline>
</glyph>
<glyph name="backslash" format="2">
  <advance width="1200"/>
  <unicode hex="005C"/>
  <outline>
    <contour>
      <point x="742" y="-190" type="line"/>
      <point x="993" y="-190" type="line"/>
      <point x="511" y="1610" type="line"/>
      <point x="260" y="1610" type="line"/>
    </contour>
  </outline>
</glyph>
<glyph name="bracketright" format="2">
  <advance width="1200"/>
  <unicode hex="005D"/>
  <outline>
    <contour>
      <point x="450" y="-214" type="line"/>
      <point x="714" y="-214" type="line"/>
      <point x="1040" y="1634" type="line"/>
      <point x="776" y="1634" type="line"/>
    </contour>
    <contour>
      <point x="54" y="-214" type="line"/>
      <point x="470" y="-214" type="line"/>
      <point x="515" y="38" type="line"/>
      <point x="99" y="38" type="line"/>
    </contour>
    <contour>
      <point x="335" y="1382" type="line"/>
      <point x="751" y="1382" type="line"/>
      <point x="796" y="1634" type="line"/>
      <point x="380" y="1634" type="line"/>
    </contour>
  </outline>
</glyph>
<glyph name="asciicircum" format="2">
  <advance width="1200"/>
  <unicode hex="005E"/>
  <outline>
    <contour>
      <point x="211" y="820" type="line"/>
      <point x="493" y="820" type="line"/>
      <point x="721" y="1210" type="line"/>
      <point x="739" y="1210" type="line"/>
      <point x="829" y="820" type="line"/>
      <point x="1091" y="820" type="line"/>
      <point x="909" y="1420" type="line"/>
      <point x="605" y="1420" type="line"/>
    </contour>
  </outline>
</glyph>
<glyph name="underscore" format="2">
  <advance width="1200"/>
  <unicode hex="005F"/>
  <outline>
    <contour>
      <point x="-35" y="-241" type="line"/>
      <point x="964" y="-241" type="line"/>
      <point x="1006" y="0" type="line"/>
      <point x="7" y="0" type="line"/>
    </contour>
  </outline>
</glyph>
<glyph name="grave" format="2">
  <advance width="1200"/>
  <unicode hex="0060"/>
  <outline>
    <contour>
      <point x="700" y="1068" type="line"/>
      <point x="946" y="1068" type="line"/>
      <point x="709" y="1628" type="line"/>
      <point x="375" y="1628" type="line"/>
    </contour>
  </outline>
</glyph>
<glyph name="a" format="2">
  <advance width="1200"/>
  <unicode hex="0061"/>
  <anchor x="506" y="0" name="bottom"/>
  <anchor x="982" y="10" name="ogonek"/>
  <anchor x="723" y="1060" name="top"/>
  <outline>
    <contour>
      <point x="1097" y="1070" type="line" smooth="yes"/>
      <point x="490" y="1070"/>
      <point x="32" y="758"/>
      <point x="32" y="277" type="curve" smooth="yes"/>
      <point x="32" y="88"/>
      <point x="146" y="-21"/>
      <point x="346" y="-21" type="curve" smooth="yes"/>
      <point x="541" y="-21"/>
      <point x="694" y="117"/>
      <point x="764" y="359" type="curve"/>
      <point x="701" y="224" type="line"/>
      <point x="817" y="224" type="line"/>
      <point x="750" y="376" type="line"/>
      <point x="720" y="-10" type="line"/>
      <point x="1082" y="0" type="line"/>
      <point x="1121" y="219" type="line"/>
      <point x="904" y="219" type="line"/>
      <point x="949" y="80" type="line"/>
      <point x="1122" y="1070" type="line"/>
    </contour>
    <contour>
      <point x="411" y="236" type="curve" smooth="yes"/>
      <point x="341" y="236"/>
      <point x="309" y="266"/>
      <point x="309" y="332" type="curve" smooth="yes"/>
      <point x="309" y="597"/>
      <point x="579" y="799"/>
      <point x="924" y="813" type="curve"/>
      <point x="828" y="957" type="line"/>
      <point x="777" y="667" type="line" smooth="yes"/>
      <point x="729" y="392"/>
      <point x="586" y="236"/>
    </contour>
  </outline>
</glyph>
<glyph name="b" format="2">
  <advance width="1200"/>
  <unicode hex="0062"/>
  <anchor x="506" y="0" name="bottom"/>
  <anchor x="425" y="1420" name="top"/>
  <outline>
    <contour>
      <point x="597" y="1514" type="line"/>
      <point x="144" y="1500" type="line"/>
      <point x="105" y="1280" type="line"/>
      <point x="402" y="1280" type="line"/>
      <point x="296" y="1373" type="line"/>
      <point x="56" y="0" type="line"/>
      <point x="331" y="0" type="line"/>
    </contour>
    <contour>
      <point x="304" y="-20" type="curve" smooth="yes"/>
      <point x="780" y="-20"/>
      <point x="1139" y="307"/>
      <point x="1139" y="740" type="curve" smooth="yes"/>
      <point x="1139" y="957"/>
      <point x="1029" y="1080"/>
      <point x="838" y="1080" type="curve" smooth="yes"/>
      <point x="658" y="1080"/>
      <point x="534" y="983"/>
      <point x="495" y="813" type="curve"/>
      <point x="526" y="869" type="line"/>
      <point x="439" y="869" type="line"/>
      <point x="399" y="388" type="line"/>
      <point x="457" y="693"/>
      <point x="602" y="823"/>
      <point x="736" y="823" type="curve" smooth="yes"/>
      <point x="816" y="823"/>
      <point x="862" y="781"/>
      <point x="862" y="706" type="curve" smooth="yes"/>
      <point x="862" y="439"/>
      <point x="645" y="237"/>
      <point x="357" y="237" type="curve" smooth="yes"/>
      <point x="276" y="237"/>
      <point x="208" y="247"/>
      <point x="175" y="262" type="curve"/>
      <point x="56" y="0" type="line"/>
      <point x="140" y="-12"/>
      <point x="220" y="-20"/>
    </contour>
  </outline>
</glyph>
<glyph name="c" format="2">
  <advance width="1200"/>
  <unicode hex="0063"/>
  <anchor x="586" y="0" name="bottom"/>
  <anchor x="693" y="1060" name="top"/>
  <outline>
    <contour>
      <point x="609" y="237" type="curve" smooth="yes"/>
      <point x="461" y="237"/>
      <point x="375" y="315"/>
      <point x="374" y="451" type="curve" smooth="yes"/>
      <point x="375" y="675"/>
      <point x="504" y="823"/>
      <point x="702" y="823" type="curve" smooth="yes"/>
      <point x="817" y="823"/>
      <point x="894" y="789"/>
      <point x="959" y="711" type="curve"/>
      <point x="1144" y="890" type="line"/>
      <point x="1053" y="1023"/>
      <point x="929" y="1080"/>
      <point x="730" y="1080" type="curve" smooth="yes"/>
      <point x="348" y="1080"/>
      <point x="97" y="814"/>
      <point x="97" y="409" type="curve" smooth="yes"/>
      <point x="97" y="137"/>
      <point x="273" y="-20"/>
      <point x="580" y="-20" type="curve" smooth="yes"/>
      <point x="748" y="-20"/>
      <point x="915" y="35"/>
      <point x="1041" y="119" type="curve"/>
      <point x="939" y="339" type="line"/>
      <point x="849" y="278"/>
      <point x="729" y="237"/>
    </contour>
  </outline>
</glyph>
<glyph name="e" format="2">
  <advance width="1200"/>
  <unicode hex="0065"/>
  <anchor x="506" y="0" name="bottom"/>
  <anchor x="975" y="10" name="ogonek"/>
  <anchor x="693" y="1060" name="top"/>
  <outline>
    <contour>
      <point x="603" y="237" type="curve" smooth="yes"/>
      <point x="451" y="237"/>
      <point x="360" y="313"/>
      <point x="359" y="441" type="curve" smooth="yes"/>
      <point x="360" y="675"/>
      <point x="499" y="832"/>
      <point x="706" y="832" type="curve" smooth="yes"/>
      <point x="789" y="832"/>
      <point x="836" y="801"/>
      <point x="836" y="749" type="curve" smooth="yes"/>
      <point x="836" y="640"/>
      <point x="632" y="574"/>
      <point x="286" y="571" type="curve"/>
      <point x="327" y="381" type="line"/>
      <point x="834" y="389"/>
      <point x="1103" y="506"/>
      <point x="1103" y="770" type="curve" smooth="yes"/>
      <point x="1103" y="965"/>
      <point x="973" y="1080"/>
      <point x="754" y="1080" type="curve" smooth="yes"/>
      <point x="366" y="1080"/>
      <point x="107" y="812"/>
      <point x="107" y="409" type="curve" smooth="yes"/>
      <point x="107" y="139"/>
      <point x="281" y="-20"/>
      <point x="574" y="-20" type="curve" smooth="yes"/>
      <point x="706" y="-20"/>
      <point x="857" y="9"/>
      <point x="984" y="84" type="curve"/>
      <point x="915" y="321" type="line"/>
      <point x="814" y="268"/>
      <point x="699" y="237"/>
    </contour>
  </outline>
</glyph>
<glyph name="f" format="2">
  <advance width="1200"/>
  <unicode hex="0066"/>
  <anchor x="388" y="-388" name="bottom"/>
  <anchor x="885" y="1500" name="top"/>
  <outline>
    <contour>
      <point x="-85" y="-477" type="line"/>
      <point x="84" y="-459" type="line" smooth="yes"/>
      <point x="370" y="-429"/>
      <point x="497" y="-287"/>
      <point x="562" y="77" type="curve" smooth="yes"/>
      <point x="721" y="980" type="line" smooth="yes"/>
      <point x="756" y="1179"/>
      <point x="848" y="1263"/>
      <point x="1028" y="1263" type="curve" smooth="yes"/>
      <point x="1084" y="1263"/>
      <point x="1148" y="1259"/>
      <point x="1242" y="1249" type="curve"/>
      <point x="1312" y="1500" type="line"/>
      <point x="1235" y="1514"/>
      <point x="1166" y="1520"/>
      <point x="1079" y="1520" type="curve" smooth="yes"/>
      <point x="706" y="1520"/>
      <point x="517" y="1356"/>
      <point x="449" y="970" type="curve" smooth="yes"/>
      <point x="294" y="92" type="line" smooth="yes"/>
      <point x="257" y="-114"/>
      <point x="188" y="-191"/>
      <point x="48" y="-206" type="curve" smooth="yes"/>
      <point x="-92" y="-221" type="line"/>
    </contour>
    <contour>
      <point x="67" y="617" type="line"/>
      <point x="1081" y="617" type="line"/>
      <point x="1122" y="849" type="line"/>
      <point x="108" y="849" type="line"/>
    </contour>
  </outline>
</glyph>
<glyph name="g" format="2">
  <advance width="1200"/>
  <unicode hex="0067"/>
  <anchor x="438" y="-388" name="bottom"/>
  <anchor x="693" y="1060" name="top"/>
  <outline>
    <contour>
      <point x="59" y="-480" type="line"/>
      <point x="239" y="-472" type="line" smooth="yes"/>
      <point x="753" y="-449"/>
      <point x="925" y="-174"/>
      <point x="991" y="201" type="curve" smooth="yes"/>
      <point x="1145" y="1070" type="line"/>
      <point x="1137" y="1070" type="line"/>
      <point x="843" y="923" type="line"/>
      <point x="710" y="169" type="line" smooth="yes"/>
      <point x="676" y="-26"/>
      <point x="565" y="-213"/>
      <point x="259" y="-232" type="curve" smooth="yes"/>
      <point x="49" y="-245" type="line"/>
    </contour>
    <contour>
      <point x="929" y="811" type="curve"/>
      <point x="1144" y="1070" type="line"/>
      <point x="1126" y="1070" type="line" smooth="yes"/>
      <point x="521" y="1070"/>
      <point x="63" y="754"/>
      <point x="63" y="267" type="curve" smooth="yes"/>
      <point x="63" y="84"/>
      <point x="158" y="-21"/>
      <point x="326" y="-21" type="curve" smooth="yes"/>
      <point x="520" y="-21"/>
      <point x="664" y="103"/>
      <point x="727" y="319" type="curve"/>
      <point x="659" y="221" type="line"/>
      <point x="815" y="221" type="line"/>
      <point x="931" y="623" type="line"/>
      <point x="805" y="707" type="line"/>
      <point x="798" y="667" type="line" smooth="yes"/>
      <point x="746" y="370"/>
      <point x="619" y="209"/>
      <point x="441" y="209" type="curve" smooth="yes"/>
      <point x="377" y="209"/>
      <point x="340" y="247"/>
      <point x="340" y="312" type="curve" smooth="yes"/>
      <point x="340" y="587"/>
      <point x="598" y="797"/>
    </contour>
  </outline>
</glyph>
<glyph name="h" format="2">
  <advance width="1200"/>
  <unicode hex="0068"/>
  <anchor x="506" y="0" name="bottom"/>
  <anchor x="689" y="784" name="center"/>
  <anchor x="435" y="1500" name="top"/>
  <outline>
    <contour>
      <point x="679" y="0" type="line"/>
      <point x="954" y="0" type="line"/>
      <point x="1068" y="646" type="line" smooth="yes"/>
      <point x="1118" y="931"/>
      <point x="1025" y="1080"/>
      <point x="800" y="1080" type="curve" smooth="yes"/>
      <point x="655" y="1080"/>
      <point x="559" y="1003"/>
      <point x="517" y="868" type="curve"/>
      <point x="467" y="868" type="line"/>
      <point x="419" y="511" type="line"/>
      <point x="458" y="745"/>
      <point x="561" y="823"/>
      <point x="677" y="823" type="curve" smooth="yes"/>
      <point x="770" y="823"/>
      <point x="813" y="760"/>
      <point x="792" y="640" type="curve" smooth="yes"/>
    </contour>
    <contour>
      <point x="54" y="0" type="line"/>
      <point x="329" y="0" type="line"/>
      <point x="596" y="1514" type="line"/>
      <point x="143" y="1500" type="line"/>
      <point x="101" y="1265" type="line"/>
      <point x="376" y="1265" type="line"/>
      <point x="300" y="1391" type="line"/>
    </contour>
  </outline>
</glyph>
<glyph name="i" format="2">
  <advance width="1200"/>
  <unicode hex="0069"/>
  <guideline x="339" y="0" angle="80"/>
  <guideline x="614" y="0" angle="80"/>
  <guideline x="51" y="0" angle="80"/>
  <anchor x="508" y="0" name="bottom"/>
  <anchor x="693" y="1060" name="top"/>
  <outline>
    <contour>
      <point x="750" y="-20" type="curve" smooth="yes"/>
      <point x="883" y="-20"/>
      <point x="981" y="13"/>
      <point x="1075" y="54" type="curve"/>
      <point x="1006" y="292" type="line"/>
      <point x="929" y="252"/>
      <point x="882" y="237"/>
      <point x="809" y="237" type="curve" smooth="yes"/>
      <point x="727" y="237"/>
      <point x="686" y="276"/>
      <point x="687" y="353" type="curve" smooth="yes"/>
      <point x="687" y="387"/>
      <point x="695" y="463"/>
      <point x="722" y="615" type="curve" smooth="yes"/>
      <point x="801" y="1060" type="line"/>
      <point x="238" y="1060" type="line"/>
      <point x="194" y="811" type="line"/>
      <point x="599" y="811" type="line"/>
      <point x="507" y="953" type="line"/>
      <point x="447" y="615" type="line" smooth="yes"/>
      <point x="417" y="445"/>
      <point x="410" y="351"/>
      <point x="410" y="303" type="curve" smooth="yes"/>
      <point x="410" y="87"/>
      <point x="523" y="-20"/>
    </contour>
    <contour>
      <point x="708" y="1203" type="curve" smooth="yes"/>
      <point x="811" y="1203"/>
      <point x="881" y="1273"/>
      <point x="881" y="1376" type="curve" smooth="yes"/>
      <point x="881" y="1479"/>
      <point x="811" y="1549"/>
      <point x="708" y="1549" type="curve" smooth="yes"/>
      <point x="605" y="1549"/>
      <point x="535" y="1479"/>
      <point x="535" y="1376" type="curve" smooth="yes"/>
      <point x="535" y="1273"/>
      <point x="605" y="1203"/>
    </contour>
  </outline>
</glyph>
<glyph name="j" format="2">
  <advance width="1200"/>
  <unicode hex="006A"/>
  <guideline x="552" y="0" angle="80"/>
  <guideline x="827" y="0" angle="80"/>
  <guideline x="111" y="0" angle="80"/>
  <anchor x="438" y="-388" name="bottom"/>
  <anchor x="947" y="1480" name="top"/>
  <outline>
    <contour>
      <point x="27" y="-480" type="line"/>
      <point x="217" y="-468" type="line" smooth="yes"/>
      <point x="657" y="-440"/>
      <point x="779" y="-267"/>
      <point x="850" y="134" type="curve" smooth="yes"/>
      <point x="1014" y="1060" type="line"/>
      <point x="740" y="1060" type="line"/>
      <point x="570" y="102" type="line" smooth="yes"/>
      <point x="534" y="-99"/>
      <point x="468" y="-190"/>
      <point x="234" y="-209" type="curve" smooth="yes"/>
      <point x="14" y="-227" type="line"/>
    </contour>
    <contour>
      <point x="254" y="811" type="line"/>
      <point x="745" y="811" type="line"/>
      <point x="746" y="1060" type="line"/>
      <point x="298" y="1060" type="line"/>
    </contour>
    <contour>
      <point x="921" y="1203" type="curve" smooth="yes"/>
      <point x="1024" y="1203"/>
      <point x="1094" y="1273"/>
      <point x="1094" y="1376" type="curve" smooth="yes"/>
      <point x="1094" y="1479"/>
      <point x="1024" y="1549"/>
      <point x="921" y="1549" type="curve" smooth="yes"/>
      <point x="818" y="1549"/>
      <point x="748" y="1479"/>
      <point x="748" y="1376" type="curve" smooth="yes"/>
      <point x="748" y="1273"/>
      <point x="818" y="1203"/>
    </contour>
  </outline>
</glyph>
<glyph name="k" format="2">
  <advance width="1200"/>
  <unicode hex="006B"/>
  <anchor x="600" y="0" name="bottom"/>
  <anchor x="455" y="1500" name="top"/>
  <outline>
    <contour>
      <point x="984" y="-20" type="curve" smooth="yes"/>
      <point x="1027" y="-20"/>
      <point x="1057" y="-15"/>
      <point x="1088" y="-9" type="curve"/>
      <point x="1069" y="239" type="line"/>
      <point x="1056" y="237"/>
      <point x="1048" y="237"/>
      <point x="1028" y="237" type="curve" smooth="yes"/>
      <point x="852" y="237"/>
      <point x="763" y="311"/>
      <point x="766" y="519" type="curve"/>
      <point x="746" y="336" type="line"/>
      <point x="980" y="428"/>
      <point x="1116" y="595"/>
      <point x="1116" y="797" type="curve" smooth="yes"/>
      <point x="1116" y="968"/>
      <point x="1004" y="1080"/>
      <point x="834" y="1080" type="curve" smooth="yes"/>
      <point x="676" y="1080"/>
      <point x="549" y="995"/>
      <point x="512" y="868" type="curve"/>
      <point x="463" y="868" type="line"/>
      <point x="419" y="533" type="line"/>
      <point x="453" y="737"/>
      <point x="611" y="823"/>
      <point x="734" y="823" type="curve" smooth="yes"/>
      <point x="804" y="823"/>
      <point x="839" y="793"/>
      <point x="839" y="735" type="curve" smooth="yes"/>
      <point x="839" y="655"/>
      <point x="764" y="559"/>
      <point x="522" y="465" type="curve"/>
      <point x="545" y="152"/>
      <point x="704" y="-20"/>
    </contour>
    <contour>
      <point x="50" y="0" type="line"/>
      <point x="325" y="0" type="line"/>
      <point x="522" y="1117" type="line" smooth="yes"/>
      <point x="572" y="1400"/>
      <point x="476" y="1521"/>
      <point x="200" y="1521" type="curve" smooth="yes"/>
      <point x="149" y="1521"/>
      <point x="98" y="1517"/>
      <point x="48" y="1505" type="curve"/>
      <point x="77" y="1253" type="line"/>
      <point x="103" y="1261"/>
      <point x="130" y="1264"/>
      <point x="156" y="1264" type="curve" smooth="yes"/>
      <point x="232" y="1264"/>
      <point x="263" y="1210"/>
      <point x="241" y="1087" type="curve" smooth="yes"/>
    </contour>
  </outline>
</glyph>
<glyph name="l" format="2">
  <advance width="1200"/>
  <unicode hex="006C"/>
  <anchor x="600" y="1" name="bottom"/>
  <anchor x="579" y="784" name="center"/>
  <anchor x="747" y="1500" name="top"/>
  <anchor x="1191" y="1500" name="topright"/>
  <outline>
    <contour>
      <point x="750" y="-20" type="curve" smooth="yes"/>
      <point x="883" y="-20"/>
      <point x="981" y="13"/>
      <point x="1075" y="54" type="curve"/>
      <point x="1006" y="292" type="line"/>
      <point x="929" y="252"/>
      <point x="882" y="237"/>
      <point x="809" y="237" type="curve" smooth="yes"/>
      <point x="707" y="237"/>
      <point x="656" y="276"/>
      <point x="657" y="353" type="curve" smooth="yes"/>
      <point x="657" y="387"/>
      <point x="665" y="463"/>
      <point x="692" y="615" type="curve" smooth="yes"/>
      <point x="849" y="1500" type="line"/>
      <point x="252" y="1500" type="line"/>
      <point x="208" y="1251" type="line"/>
      <point x="647" y="1251" type="line"/>
      <point x="555" y="1393" type="line"/>
      <point x="417" y="615" type="line" smooth="yes"/>
      <point x="387" y="444"/>
      <point x="380" y="351"/>
      <point x="380" y="303" type="curve" smooth="yes"/>
      <point x="380" y="87"/>
      <point x="503" y="-20"/>
    </contour>
  </outline>
</glyph>
<glyph name="m" format="2">
  <advance width="1200"/>
  <unicode hex="006D"/>
  <guideline x="602" y="0" angle="80"/>
  <guideline x="410" y="0" angle="80"/>
  <anchor x="506" y="0" name="bottom"/>
  <anchor x="693" y="1060" name="top"/>
  <outline>
    <contour>
      <point x="425" y="1060" type="line"/>
      <point x="191" y="1060" type="line"/>
      <point x="2" y="0" type="line"/>
      <point x="273" y="0" type="line"/>
      <point x="411" y="787" type="line"/>
    </contour>
    <contour>
      <point x="410" y="0" type="line"/>
      <point x="602" y="0" type="line"/>
      <point x="743" y="800" type="line" smooth="yes"/>
      <point x="775" y="995"/>
      <point x="734" y="1080"/>
      <point x="628" y="1080" type="curve" smooth="yes"/>
      <point x="540" y="1080"/>
      <point x="487" y="1037"/>
      <point x="447" y="928" type="curve"/>
      <point x="387" y="928" type="line"/>
      <point x="391" y="677" type="line"/>
      <point x="411" y="778"/>
      <point x="443" y="828"/>
      <point x="492" y="828" type="curve" smooth="yes"/>
      <point x="533" y="828"/>
      <point x="550" y="794"/>
      <point x="540" y="736" type="curve" smooth="yes"/>
    </contour>
    <contour>
      <point x="1153" y="800" type="line" smooth="yes"/>
      <point x="1186" y="985"/>
      <point x="1132" y="1080"/>
      <point x="987" y="1080" type="curve" smooth="yes"/>
      <point x="887" y="1080"/>
      <point x="824" y="1039"/>
      <point x="781" y="928" type="curve"/>
      <point x="717" y="928" type="line"/>
      <point x="721" y="677" type="line"/>
      <point x="738" y="778"/>
      <point x="779" y="828"/>
      <point x="828" y="828" type="curve" smooth="yes"/>
      <point x="864" y="828"/>
      <point x="880" y="794"/>
      <point x="870" y="736" type="curve" smooth="yes"/>
      <point x="739" y="0" type="line"/>
      <point x="1010" y="0" type="line"/>
    </contour>
  </outline>
</glyph>
<glyph name="o" format="2">
  <advance width="1200"/>
  <unicode hex="006F"/>
  <anchor x="506" y="0" name="bottom"/>
  <anchor x="604" y="530" name="center"/>
  <anchor x="508" y="10" name="ogonek"/>
  <anchor x="693" y="1060" name="top"/>
  <anchor x="1114" y="1060" name="topright"/>
  <outline>
    <contour>
      <point x="502" y="-20" type="curve" smooth="yes"/>
      <point x="873" y="-20"/>
      <point x="1092" y="242"/>
      <point x="1092" y="686" type="curve" smooth="yes"/>
      <point x="1092" y="934"/>
      <point x="945" y="1080"/>
      <point x="696" y="1080" type="curve" smooth="yes"/>
      <point x="325" y="1080"/>
      <point x="106" y="814"/>
      <point x="106" y="364" type="curve" smooth="yes"/>
      <point x="106" y="123"/>
      <point x="253" y="-20"/>
    </contour>
    <contour>
      <point x="550" y="237" type="curve" smooth="yes"/>
      <point x="446" y="237"/>
      <point x="385" y="304"/>
      <point x="385" y="417" type="curve" smooth="yes"/>
      <point x="385" y="672"/>
      <point x="485" y="823"/>
      <point x="653" y="823" type="curve" smooth="yes"/>
      <point x="754" y="823"/>
      <point x="813" y="756"/>
      <point x="813" y="643" type="curve" smooth="yes"/>
      <point x="813" y="388"/>
      <point x="715" y="237"/>
    </contour>
  </outline>
</glyph>
<glyph name="p" format="2">
  <advance width="1200"/>
  <unicode hex="0070"/>
  <anchor x="438" y="-388" name="bottom"/>
  <anchor x="693" y="1060" name="top"/>
  <outline>
    <contour>
      <point x="252" y="-460" type="line"/>
      <point x="475" y="809" type="line"/>
      <point x="489" y="1060" type="line"/>
      <point x="244" y="1060" type="line"/>
      <point x="-23" y="-460" type="line"/>
    </contour>
    <contour>
      <point x="306" y="-20" type="curve" smooth="yes"/>
      <point x="782" y="-20"/>
      <point x="1141" y="298"/>
      <point x="1141" y="720" type="curve" smooth="yes"/>
      <point x="1141" y="950"/>
      <point x="1031" y="1080"/>
      <point x="840" y="1080" type="curve" smooth="yes"/>
      <point x="660" y="1080"/>
      <point x="525" y="983"/>
      <point x="487" y="813" type="curve"/>
      <point x="528" y="869" type="line"/>
      <point x="441" y="869" type="line"/>
      <point x="401" y="388" type="line"/>
      <point x="459" y="693"/>
      <point x="604" y="823"/>
      <point x="738" y="823" type="curve" smooth="yes"/>
      <point x="818" y="823"/>
      <point x="864" y="774"/>
      <point x="864" y="686" type="curve" smooth="yes"/>
      <point x="864" y="430"/>
      <point x="647" y="237"/>
      <point x="359" y="237" type="curve" smooth="yes"/>
      <point x="278" y="237"/>
      <point x="210" y="247"/>
      <point x="177" y="262" type="curve"/>
      <point x="58" y="0" type="line"/>
      <point x="142" y="-12"/>
      <point x="222" y="-20"/>
    </contour>
  </outline>
</glyph>
<glyph name="q" format="2">
  <advance width="1200"/>
  <unicode hex="0071"/>
  <anchor x="438" y="-388" name="bottom"/>
  <anchor x="693" y="1060" name="top"/>
  <outline>
    <contour>
      <point x="353" y="-21" type="curve" smooth="yes"/>
      <point x="540" y="-21"/>
      <point x="681" y="125"/>
      <point x="740" y="379" type="curve"/>
      <point x="677" y="224" type="line"/>
      <point x="793" y="224" type="line"/>
      <point x="798" y="667" type="line"/>
      <point x="742" y="393"/>
      <point x="617" y="236"/>
      <point x="448" y="236" type="curve" smooth="yes"/>
      <point x="365" y="236"/>
      <point x="326" y="273"/>
      <point x="326" y="351" type="curve" smooth="yes"/>
      <point x="326" y="606"/>
      <point x="610" y="799"/>
      <point x="971" y="813" type="curve"/>
      <point x="1132" y="1070" type="line"/>
      <point x="1114" y="1070" type="line" smooth="yes"/>
      <point x="508" y="1070"/>
      <point x="49" y="760"/>
      <point x="49" y="279" type="curve" smooth="yes"/>
      <point x="49" y="89"/>
      <point x="159" y="-21"/>
    </contour>
    <contour>
      <point x="595" y="-480" type="line"/>
      <point x="1019" y="-470" type="line"/>
      <point x="1058" y="-251" type="line"/>
      <point x="826" y="-251" type="line"/>
      <point x="892" y="-357" type="line"/>
      <point x="1144" y="1070" type="line"/>
      <point x="1121" y="1070" type="line"/>
      <point x="857" y="1006" type="line"/>
    </contour>
  </outline>
</glyph>
<glyph name="r" format="2">
  <advance width="1200"/>
  <unicode hex="0072"/>
  <anchor x="332" y="1" name="bottom"/>
  <anchor x="693" y="1060" name="top"/>
  <outline>
    <contour>
      <point x="194" y="0" type="line"/>
      <point x="469" y="0" type="line"/>
      <point x="611" y="807" type="line"/>
      <point x="618" y="1060" type="line"/>
      <point x="381" y="1060" type="line"/>
    </contour>
    <contour>
      <point x="914" y="648" type="curve"/>
      <point x="1190" y="648" type="line"/>
      <point x="1237" y="932"/>
      <point x="1149" y="1080"/>
      <point x="936" y="1080" type="curve" smooth="yes"/>
      <point x="786" y="1080"/>
      <point x="687" y="1003"/>
      <point x="642" y="868" type="curve"/>
      <point x="607" y="868" type="line"/>
      <point x="559" y="511" type="line"/>
      <point x="597" y="745"/>
      <point x="699" y="823"/>
      <point x="813" y="823" type="curve" smooth="yes"/>
      <point x="894" y="823"/>
      <point x="932" y="761"/>
    </contour>
    <contour>
      <point x="-30" y="0" type="line"/>
      <point x="712" y="0" type="line"/>
      <point x="753" y="232" type="line"/>
      <point x="11" y="232" type="line"/>
    </contour>
    <contour>
      <point x="156" y="828" type="line"/>
      <point x="576" y="828" type="line"/>
      <point x="597" y="1060" type="line"/>
      <point x="197" y="1060" type="line"/>
    </contour>
  </outline>
</glyph>
<glyph name="s" format="2">
  <advance width="1200"/>
  <unicode hex="0073"/>
  <anchor x="600" y="0" name="bottom"/>
  <anchor x="768" y="1060" name="top"/>
  <outline>
    <contour>
      <point x="630" y="1060" type="line"/>
      <point x="498" y="937"/>
      <point x="196" y="745"/>
      <point x="62" y="669" type="curve"/>
      <point x="197" y="438" type="line"/>
      <point x="316" y="497"/>
      <point x="685" y="725"/>
      <point x="798" y="828" type="curve"/>
      <point x="749" y="1060" type="line"/>
    </contour>
    <contour>
      <point x="640" y="900" type="line"/>
      <point x="712" y="734"/>
      <point x="794" y="567"/>
      <point x="794" y="419" type="curve" smooth="yes"/>
      <point x="794" y="303"/>
      <point x="693" y="237"/>
      <point x="520" y="237" type="curve" smooth="yes"/>
      <point x="412" y="237"/>
      <point x="327" y="255"/>
      <point x="222" y="298" type="curve"/>
      <point x="148" y="59" type="line"/>
      <point x="258" y="2"/>
      <point x="365" y="-20"/>
      <point x="520" y="-20" type="curve" smooth="yes"/>
      <point x="871" y="-20"/>
      <point x="1072" y="132"/>
      <point x="1071" y="399" type="curve" smooth="yes"/>
      <point x="1071" y="590"/>
      <point x="985" y="700"/>
      <point x="889" y="1060" type="curve"/>
      <point x="631" y="1060" type="line"/>
    </contour>
  </outline>
</glyph>
<glyph name="t" format="2">
  <advance width="1200"/>
  <unicode hex="0074"/>
  <guideline x="109" y="788" angle="80"/>
  <anchor x="596" y="0" name="bottom"/>
  <anchor x="428" y="570" name="center"/>
  <anchor x="567" y="1350" name="top"/>
  <anchor x="1153" y="1060" name="topright"/>
  <outline>
    <contour>
      <point x="663" y="-20" type="curve" smooth="yes"/>
      <point x="813" y="-20"/>
      <point x="924" y="9"/>
      <point x="1028" y="44" type="curve"/>
      <point x="979" y="282" type="line"/>
      <point x="875" y="248"/>
      <point x="812" y="237"/>
      <point x="712" y="237" type="curve" smooth="yes"/>
      <point x="607" y="237"/>
      <point x="561" y="275"/>
      <point x="561" y="364" type="curve" smooth="yes"/>
      <point x="561" y="438"/>
      <point x="568" y="488"/>
      <point x="591" y="617" type="curve" smooth="yes"/>
      <point x="725" y="1380" type="line"/>
      <point x="450" y="1380" type="line"/>
      <point x="316" y="617" type="line" smooth="yes"/>
      <point x="289" y="463"/>
      <point x="284" y="396"/>
      <point x="284" y="304" type="curve" smooth="yes"/>
      <point x="284" y="97"/>
      <point x="423" y="-20"/>
    </contour>
    <contour>
      <point x="113" y="811" type="line"/>
      <point x="1083" y="811" type="line"/>
      <point x="1127" y="1060" type="line"/>
      <point x="157" y="1060" type="line"/>
    </contour>
  </outline>
</glyph>
<glyph name="u" format="2">
  <advance width="1200"/>
  <unicode hex="0075"/>
  <anchor x="456" y="0" name="bottom"/>
  <anchor x="987" y="10" name="ogonek"/>
  <anchor x="683" y="1060" name="top"/>
  <anchor x="1113" y="1060" name="topright"/>
  <outline>
    <contour>
      <point x="383" y="-21" type="curve" smooth="yes"/>
      <point x="602" y="-21"/>
      <point x="665" y="114"/>
      <point x="729" y="329" type="curve"/>
      <point x="690" y="224" type="line"/>
      <point x="756" y="224" type="line"/>
      <point x="766" y="667" type="line"/>
      <point x="712" y="388"/>
      <point x="626" y="236"/>
      <point x="478" y="236" type="curve" smooth="yes"/>
      <point x="397" y="236"/>
      <point x="351" y="282"/>
      <point x="351" y="362" type="curve" smooth="yes"/>
      <point x="351" y="504"/>
      <point x="410" y="707"/>
      <point x="545" y="1041" type="curve"/>
      <point x="273" y="1080" type="line"/>
      <point x="133" y="753"/>
      <point x="74" y="531"/>
      <point x="74" y="337" type="curve" smooth="yes"/>
      <point x="74" y="110"/>
      <point x="186" y="-21"/>
    </contour>
    <contour>
      <point x="960" y="-10" type="curve" smooth="yes"/>
      <point x="1069" y="-10" type="line"/>
      <point x="1109" y="219" type="line"/>
      <point x="1061" y="219" type="line" smooth="yes"/>
      <point x="987" y="219"/>
      <point x="968" y="247"/>
      <point x="984" y="341" type="curve" smooth="yes"/>
      <point x="1110" y="1060" type="line"/>
      <point x="836" y="1060" type="line"/>
      <point x="733" y="481" type="line"/>
      <point x="740" y="250" type="line"/>
      <point x="717" y="76"/>
      <point x="790" y="-10"/>
    </contour>
  </outline>
</glyph>
<glyph name="v" format="2">
  <advance width="1200"/>
  <unicode hex="0076"/>
  <guideline x="120" y="70" angle="0"/>
  <anchor x="506" y="0" name="bottom"/>
  <anchor x="693" y="1060" name="top"/>
  <outline>
    <contour>
      <point x="307" y="0" type="line"/>
      <point x="626" y="0" type="line"/>
      <point x="977" y="272"/>
      <point x="1157" y="624"/>
      <point x="1174" y="1060" type="curve"/>
      <point x="897" y="1060" type="line"/>
      <point x="885" y="732"/>
      <point x="778" y="467"/>
      <point x="568" y="258" type="curve"/>
      <point x="546" y="258" type="line"/>
      <point x="444" y="1080" type="line"/>
      <point x="162" y="1060" type="line"/>
    </contour>
  </outline>
</glyph>
<glyph name="w" format="2">
  <advance width="1200"/>
  <unicode hex="0077"/>
  <guideline x="110" y="70" angle="0"/>
  <anchor x="506" y="0" name="bottom"/>
  <anchor x="613" y="1060" name="top"/>
  <outline>
    <contour>
      <point x="627" y="0" type="line"/>
      <point x="806" y="0" type="line"/>
      <point x="1032" y="252"/>
      <point x="1170" y="604"/>
      <point x="1180" y="1060" type="curve"/>
      <point x="909" y="1060" type="line"/>
      <point x="905" y="723"/>
      <point x="844" y="458"/>
      <point x="754" y="258" type="curve"/>
      <point x="736" y="258" type="line"/>
      <point x="724" y="1070" type="line"/>
      <point x="507" y="1060" type="line"/>
      <point x="521" y="466" type="line"/>
      <point x="611" y="496" type="line"/>
    </contour>
    <contour>
      <point x="632" y="686" type="line"/>
      <point x="409" y="258" type="line"/>
      <point x="391" y="258" type="line"/>
      <point x="354" y="1070" type="line"/>
      <point x="77" y="1060" type="line"/>
      <point x="172" y="0" type="line"/>
      <point x="406" y="0" type="line"/>
      <point x="603" y="375" type="line"/>
      <point x="566" y="351" type="line"/>
      <point x="662" y="351" type="line"/>
    </contour>
  </outline>
</glyph>
<glyph name="x" format="2">
  <advance width="1200"/>
  <unicode hex="0078"/>
  <anchor x="506" y="0" name="bottom"/>
  <anchor x="693" y="1060" name="top"/>
  <outline>
    <contour>
      <point x="188" y="-51" type="line"/>
      <point x="632" y="418" type="line"/>
      <point x="1167" y="920" type="line"/>
      <point x="981" y="1110" type="line"/>
      <point x="572" y="650" type="line"/>
      <point x="12" y="139" type="line"/>
    </contour>
    <contour>
      <point x="830" y="-20" type="curve" smooth="yes"/>
      <point x="909" y="-20"/>
      <point x="976" y="-1"/>
      <point x="1055" y="44" type="curve"/>
      <point x="987" y="263" type="line"/>
      <point x="948" y="245"/>
      <point x="916" y="237"/>
      <point x="879" y="237" type="curve" smooth="yes"/>
      <point x="805" y="237"/>
      <point x="766" y="277"/>
      <point x="747" y="374" type="curve" smooth="yes"/>
      <point x="668" y="771" type="line" smooth="yes"/>
      <point x="625" y="987"/>
      <point x="540" y="1080"/>
      <point x="371" y="1080" type="curve" smooth="yes"/>
      <point x="305" y="1080"/>
      <point x="238" y="1064"/>
      <point x="146" y="1026" type="curve"/>
      <point x="211" y="801" type="line"/>
      <point x="250" y="817"/>
      <point x="283" y="823"/>
      <point x="322" y="823" type="curve" smooth="yes"/>
      <point x="378" y="823"/>
      <point x="408" y="782"/>
      <point x="429" y="685" type="curve" smooth="yes"/>
      <point x="513" y="289" type="line" smooth="yes"/>
      <point x="559" y="74"/>
      <point x="647" y="-20"/>
    </contour>
  </outline>
</glyph>
<glyph name="y" format="2">
  <advance width="1200"/>
  <unicode hex="0079"/>
  <anchor x="781" y="0" name="bottom"/>
  <anchor x="623" y="1060" name="top"/>
  <outline>
    <contour>
      <point x="3" y="-472" type="line"/>
      <point x="674" y="-197"/>
      <point x="1025" y="261"/>
      <point x="1178" y="1060" type="curve"/>
      <point x="901" y="1060" type="line"/>
      <point x="782" y="393"/>
      <point x="501" y="7"/>
      <point x="-117" y="-237" type="curve"/>
    </contour>
    <contour>
      <point x="347" y="1080" type="curve"/>
      <point x="70" y="1060" type="line"/>
      <point x="188" y="640"/>
      <point x="327" y="310"/>
      <point x="495" y="61" type="curve"/>
      <point x="722" y="201" type="line"/>
      <point x="567" y="399"/>
      <point x="442" y="690"/>
    </contour>
  </outline>
</glyph>
<glyph name="z" format="2">
  <advance width="1200"/>
  <unicode hex="007A"/>
  <anchor x="526" y="0" name="bottom"/>
  <anchor x="601" y="530" name="center"/>
  <anchor x="663" y="1060" name="top"/>
  <outline>
    <contour>
      <point x="1102" y="811" type="line"/>
      <point x="917" y="972" type="line"/>
      <point x="100" y="280" type="line"/>
      <point x="261" y="123" type="line"/>
    </contour>
    <contour>
      <point x="993" y="249" type="line"/>
      <point x="162" y="249" type="line"/>
      <point x="100" y="280" type="line"/>
      <point x="121" y="0" type="line"/>
      <point x="949" y="0" type="line"/>
    </contour>
    <contour>
      <point x="1102" y="811" type="line"/>
      <point x="1080" y="1060" type="line"/>
      <point x="264" y="1060" type="line"/>
      <point x="220" y="811" type="line"/>
    </contour>
  </outline>
</glyph>
<glyph name="braceleft" format="2">
  <advance width="1200"/>
  <unicode hex="007B"/>
  <guideline x="161" y="152" angle="80"/>
  <outline>
    <contour>
      <point x="682" y="-214" type="curve" smooth="yes"/>
      <point x="773" y="-214"/>
      <point x="828" y="-205"/>
      <point x="876" y="-194" type="curve"/>
      <point x="882" y="45" type="line"/>
      <point x="841" y="39"/>
      <point x="802" y="35"/>
      <point x="772" y="35" type="curve" smooth="yes"/>
      <point x="707" y="35"/>
      <point x="672" y="65"/>
      <point x="672" y="118" type="curve" smooth="yes"/>
      <point x="672" y="257"/>
      <point x="772" y="312"/>
      <point x="772" y="482" type="curve" smooth="yes"/>
      <point x="772" y="610"/>
      <point x="692" y="680"/>
      <point x="552" y="684" type="curve"/>
      <point x="558" y="728" type="line"/>
      <point x="757" y="732"/>
      <point x="855" y="832"/>
      <point x="855" y="1031" type="curve" smooth="yes"/>
      <point x="855" y="1075"/>
      <point x="852" y="1118"/>
      <point x="852" y="1162" type="curve" smooth="yes"/>
      <point x="852" y="1294"/>
      <point x="914" y="1374"/>
      <point x="1013" y="1374" type="curve" smooth="yes"/>
      <point x="1043" y="1374"/>
      <point x="1080" y="1370"/>
      <point x="1119" y="1364" type="curve"/>
      <point x="1183" y="1606" type="line"/>
      <point x="1138" y="1618"/>
      <point x="1089" y="1626"/>
      <point x="1007" y="1626" type="curve" smooth="yes"/>
      <point x="752" y="1626"/>
      <point x="591" y="1435"/>
      <point x="591" y="1135" type="curve" smooth="yes"/>
      <point x="591" y="1127"/>
      <point x="591" y="1074"/>
      <point x="591" y="1048" type="curve" smooth="yes"/>
      <point x="591" y="889"/>
      <point x="508" y="832"/>
      <point x="281" y="832" type="curve"/>
      <point x="236" y="580" type="line"/>
      <point x="391" y="580"/>
      <point x="494" y="527"/>
      <point x="494" y="436" type="curve" smooth="yes"/>
      <point x="494" y="294"/>
      <point x="394" y="238"/>
      <point x="394" y="49" type="curve" smooth="yes"/>
      <point x="394" y="-120"/>
      <point x="496" y="-214"/>
    </contour>
  </outline>
</glyph>
<glyph name="bar" format="2">
  <advance width="1200"/>
  <unicode hex="007C"/>
  <outline>
    <contour>
      <point x="320" y="-310" type="line"/>
      <point x="584" y="-310" type="line"/>
      <point x="944" y="1730" type="line"/>
      <point x="680" y="1730" type="line"/>
    </contour>
  </outline>
</glyph>
<glyph name="braceright" format="2">
  <advance width="1200"/>
  <unicode hex="007D"/>
  <guideline x="983" y="589" angle="80"/>
  <outline>
    <contour>
      <point x="255" y="-214" type="curve" smooth="yes"/>
      <point x="510" y="-214"/>
      <point x="671" y="-23"/>
      <point x="671" y="277" type="curve" smooth="yes"/>
      <point x="671" y="285"/>
      <point x="671" y="338"/>
      <point x="671" y="364" type="curve" smooth="yes"/>
      <point x="671" y="523"/>
      <point x="754" y="580"/>
      <point x="981" y="580" type="curve"/>
      <point x="1026" y="832" type="line"/>
      <point x="871" y="832"/>
      <point x="768" y="885"/>
      <point x="768" y="976" type="curve" smooth="yes"/>
      <point x="768" y="1118"/>
      <point x="868" y="1174"/>
      <point x="868" y="1363" type="curve" smooth="yes"/>
      <point x="868" y="1532"/>
      <point x="766" y="1626"/>
      <point x="580" y="1626" type="curve" smooth="yes"/>
      <point x="489" y="1626"/>
      <point x="434" y="1617"/>
      <point x="386" y="1606" type="curve"/>
      <point x="380" y="1367" type="line"/>
      <point x="421" y="1373"/>
      <point x="460" y="1377"/>
      <point x="490" y="1377" type="curve" smooth="yes"/>
      <point x="555" y="1377"/>
      <point x="590" y="1347"/>
      <point x="590" y="1294" type="curve" smooth="yes"/>
      <point x="590" y="1155"/>
      <point x="490" y="1100"/>
      <point x="490" y="930" type="curve" smooth="yes"/>
      <point x="490" y="802"/>
      <point x="570" y="732"/>
      <point x="710" y="728" type="curve"/>
      <point x="704" y="684" type="line"/>
      <point x="505" y="680"/>
      <point x="407" y="580"/>
      <point x="407" y="381" type="curve" smooth="yes"/>
      <point x="407" y="337"/>
      <point x="410" y="294"/>
      <point x="410" y="250" type="curve" smooth="yes"/>
      <point x="410" y="118"/>
      <point x="348" y="38"/>
      <point x="249" y="38" type="curve" smooth="yes"/>
      <point x="219" y="38"/>
      <point x="182" y="42"/>
      <point x="143" y="48" type="curve"/>
      <point x="79" y="-194" type="line"/>
      <point x="124" y="-206"/>
      <point x="173" y="-214"/>
    </contour>
  </outline>
</glyph>
<glyph name="asciitilde" format="2">
  <advance width="1200"/>
  <unicode hex="007E"/>
  <outline>
    <contour>
      <point x="69" y="453" type="line"/>
      <point x="335" y="453" type="line"/>
      <point x="354" y="559" type="line" smooth="yes"/>
      <point x="365" y="619"/>
      <point x="395" y="645"/>
      <point x="457" y="645" type="curve" smooth="yes"/>
      <point x="515" y="645"/>
      <point x="563" y="616"/>
      <point x="612" y="580" type="curve" smooth="yes"/>
      <point x="679" y="529"/>
      <point x="752" y="487"/>
      <point x="844" y="487" type="curve" smooth="yes"/>
      <point x="1029" y="487"/>
      <point x="1126" y="586"/>
      <point x="1167" y="817" type="curve" smooth="yes"/>
      <point x="1193" y="963" type="line"/>
      <point x="929" y="963" type="line"/>
      <point x="910" y="857" type="line" smooth="yes"/>
      <point x="899" y="796"/>
      <point x="873" y="769"/>
      <point x="818" y="769" type="curve" smooth="yes"/>
      <point x="768" y="769"/>
      <point x="730" y="801"/>
      <point x="684" y="834" type="curve" smooth="yes"/>
      <point x="617" y="885"/>
      <point x="542" y="929"/>
      <point x="448" y="929" type="curve" smooth="yes"/>
      <point x="242" y="929"/>
      <point x="136" y="830"/>
      <point x="95" y="599" type="curve" smooth="yes"/>
    </contour>
  </outline>
</glyph>
<glyph name="exclamdown" format="2">
  <advance width="1200"/>
  <unicode hex="00A1"/>
  <outline>
    <contour>
      <point x="305" y="-302" type="line"/>
      <point x="600" y="-302" type="line"/>
      <point x="722" y="572" type="line"/>
      <point x="498" y="572" type="line"/>
    </contour>
    <component base="period" xOffset="142" yOffset="804"/>
  </outline>
</glyph>
<glyph name="cent" format="2">
  <advance width="1200"/>
  <unicode hex="00A2"/>
  <outline>
    <contour>
      <point x="367" y="-354" type="line"/>
      <point x="631" y="-354" type="line"/>
      <point x="934" y="1414" type="line"/>
      <point x="670" y="1414" type="line"/>
    </contour>
    <component base="c"/>
  </outline>
</glyph>
<glyph name="sterling" format="2">
  <advance width="1200"/>
  <unicode hex="00A3"/>
  <outline>
    <contour>
      <point x="66" y="0" type="line"/>
      <point x="350" y="0" type="line"/>
      <point x="343" y="243" type="line"/>
      <point x="475" y="376"/>
      <point x="550" y="494"/>
      <point x="573" y="627" type="curve" smooth="yes"/>
      <point x="634" y="973" type="line" smooth="yes"/>
      <point x="658" y="1111"/>
      <point x="746" y="1187"/>
      <point x="857" y="1187" type="curve" smooth="yes"/>
      <point x="935" y="1187"/>
      <point x="994" y="1147"/>
      <point x="1022" y="1077" type="curve"/>
      <point x="1252" y="1233" type="line"/>
      <point x="1212" y="1364"/>
      <point x="1083" y="1440"/>
      <point x="893" y="1440" type="curve" smooth="yes"/>
      <point x="605" y="1440"/>
      <point x="409" y="1294"/>
      <point x="364" y="1036" type="curve" smooth="yes"/>
      <point x="292" y="627" type="line" smooth="yes"/>
      <point x="269" y="494"/>
      <point x="188" y="377"/>
      <point x="44" y="243" type="curve"/>
    </contour>
    <contour>
      <point x="168" y="0" type="line"/>
      <point x="1019" y="0" type="line"/>
      <point x="1062" y="243" type="line"/>
      <point x="211" y="243" type="line"/>
    </contour>
    <contour>
      <point x="109" y="533" type="line"/>
      <point x="897" y="533" type="line"/>
      <point x="938" y="767" type="line"/>
      <point x="150" y="767" type="line"/>
    </contour>
  </outline>
</glyph>
<glyph name="currency" format="2">
  <advance width="1200"/>
  <unicode hex="00A4"/>
  <outline>
    <contour>
      <point x="563" y="283" type="curve" smooth="yes"/>
      <point x="858" y="283"/>
      <point x="1082" y="498"/>
      <point x="1082" y="782" type="curve" smooth="yes"/>
      <point x="1082" y="986"/>
      <point x="940" y="1117"/>
      <point x="704" y="1117" type="curve" smooth="yes"/>
      <point x="408" y="1117"/>
      <point x="185" y="902"/>
      <point x="185" y="618" type="curve" smooth="yes"/>
      <point x="185" y="414"/>
      <point x="326" y="283"/>
    </contour>
    <contour>
      <point x="146" y="122" type="line"/>
      <point x="410" y="357" type="line"/>
      <point x="241" y="480" type="line"/>
      <point x="12" y="281" type="line"/>
    </contour>
    <contour>
      <point x="922" y="129" type="line"/>
      <point x="1101" y="269" type="line"/>
      <point x="922" y="491" type="line"/>
      <point x="746" y="362" type="line"/>
    </contour>
    <contour>
      <point x="596" y="520" type="curve" smooth="yes"/>
      <point x="508" y="520"/>
      <point x="456" y="571"/>
      <point x="456" y="653" type="curve" smooth="yes"/>
      <point x="456" y="781"/>
      <point x="549" y="880"/>
      <point x="670" y="880" type="curve" smooth="yes"/>
      <point x="758" y="880"/>
      <point x="810" y="829"/>
      <point x="810" y="747" type="curve" smooth="yes"/>
      <point x="810" y="619"/>
      <point x="717" y="520"/>
    </contour>
    <contour>
      <point x="325" y="926" type="line"/>
      <point x="516" y="1034" type="line"/>
      <point x="338" y="1267" type="line"/>
      <point x="159" y="1127" type="line"/>
    </contour>
    <contour>
      <point x="1026" y="916" type="line"/>
      <point x="1250" y="1118" type="line"/>
      <point x="1106" y="1283" type="line"/>
      <point x="861" y="1040" type="line"/>
    </contour>
  </outline>
</glyph>
<glyph name="yen" format="2">
  <advance width="1200"/>
  <unicode hex="00A5"/>
  <outline>
    <contour>
      <point x="132" y="459" type="line"/>
      <point x="1044" y="459" type="line"/>
      <point x="1083" y="681" type="line"/>
      <point x="706" y="681" type="line"/>
      <point x="624" y="613" type="line"/>
      <point x="563" y="681" type="line"/>
      <point x="171" y="681" type="line"/>
    </contour>
    <contour>
      <point x="74" y="133" type="line"/>
      <point x="986" y="133" type="line"/>
      <point x="1025" y="354" type="line"/>
      <point x="113" y="354" type="line"/>
    </contour>
    <component base="Y"/>
  </outline>
</glyph>
<glyph name="section" format="2">
  <advance width="1200"/>
  <unicode hex="00A7"/>
  <outline>
    <contour>
      <point x="465" y="-219" type="curve" smooth="yes"/>
      <point x="786" y="-219"/>
      <point x="976" y="-96"/>
      <point x="976" y="113" type="curve" smooth="yes"/>
      <point x="976" y="231"/>
      <point x="899" y="339"/>
      <point x="769" y="405" type="curve"/>
      <point x="786" y="305" type="line"/>
      <point x="843" y="461" type="line"/>
      <point x="758" y="408" type="line"/>
      <point x="1025" y="399"/>
      <point x="1183" y="504"/>
      <point x="1183" y="690" type="curve" smooth="yes"/>
      <point x="1183" y="818"/>
      <point x="1111" y="929"/>
      <point x="990" y="989" type="curve" smooth="yes"/>
      <point x="639" y="1168" type="line" smooth="yes"/>
      <point x="604" y="1186"/>
      <point x="584" y="1212"/>
      <point x="584" y="1237" type="curve" smooth="yes"/>
      <point x="584" y="1284"/>
      <point x="637" y="1312"/>
      <point x="727" y="1312" type="curve" smooth="yes"/>
      <point x="840" y="1312"/>
      <point x="966" y="1288"/>
      <point x="1066" y="1247" type="curve"/>
      <point x="1201" y="1479" type="line"/>
      <point x="1102" y="1535"/>
      <point x="948" y="1568"/>
      <point x="787" y="1568" type="curve" smooth="yes"/>
      <point x="492" y="1568"/>
      <point x="318" y="1437"/>
      <point x="318" y="1215" type="curve" smooth="yes"/>
      <point x="318" y="1120"/>
      <point x="360" y="1038"/>
      <point x="430" y="995" type="curve" smooth="yes"/>
      <point x="516" y="942" type="line"/>
      <point x="456" y="1056" type="line"/>
      <point x="415" y="926" type="line"/>
      <point x="445" y="965" type="line"/>
      <point x="217" y="970"/>
      <point x="82" y="867"/>
      <point x="82" y="688" type="curve" smooth="yes"/>
      <point x="82" y="586"/>
      <point x="137" y="493"/>
      <point x="230" y="437" type="curve" smooth="yes"/>
      <point x="622" y="219" type="line" smooth="yes"/>
      <point x="677" y="186"/>
      <point x="710" y="149"/>
      <point x="710" y="120" type="curve" smooth="yes"/>
      <point x="710" y="65"/>
      <point x="626" y="33"/>
      <point x="484" y="33" type="curve" smooth="yes"/>
      <point x="355" y="33"/>
      <point x="197" y="51"/>
      <point x="59" y="81" type="curve"/>
      <point x="17" y="-171" type="line"/>
      <point x="125" y="-201"/>
      <point x="292" y="-219"/>
    </contour>
    <contour>
      <point x="755" y="492" type="curve" smooth="yes"/>
      <point x="704" y="492"/>
      <point x="632" y="518"/>
      <point x="561" y="563" type="curve" smooth="yes"/>
      <point x="447" y="631" type="line" smooth="yes"/>
      <point x="392" y="663"/>
      <point x="360" y="709"/>
      <point x="360" y="755" type="curve" smooth="yes"/>
      <point x="360" y="843"/>
      <point x="421" y="895"/>
      <point x="525" y="895" type="curve" smooth="yes"/>
      <point x="594" y="895"/>
      <point x="677" y="870"/>
      <point x="748" y="828" type="curve" smooth="yes"/>
      <point x="781" y="808" type="line" smooth="yes"/>
      <point x="859" y="760"/>
      <point x="905" y="696"/>
      <point x="905" y="636" type="curve" smooth="yes"/>
      <point x="905" y="545"/>
      <point x="849" y="492"/>
    </contour>
  </outline>
</glyph>
<glyph name="copyright" format="2">
  <advance width="1200"/>
  <unicode hex="00A9"/>
  <outline>
    <contour>
      <point x="509" y="15" type="curve" smooth="yes"/>
      <point x="968" y="15"/>
      <point x="1239" y="345"/>
      <point x="1239" y="903" type="curve" smooth="yes"/>
      <point x="1239" y="1219"/>
      <point x="1059" y="1405"/>
      <point x="754" y="1405" type="curve" smooth="yes"/>
      <point x="293" y="1405"/>
      <point x="21" y="1070"/>
      <point x="21" y="502" type="curve" smooth="yes"/>
      <point x="21" y="196"/>
      <point x="202" y="15"/>
    </contour>
    <contour>
      <point x="647" y="380" type="curve" smooth="yes"/>
      <point x="707" y="380"/>
      <point x="772" y="384"/>
      <point x="832" y="400" type="curve"/>
      <point x="835" y="599" type="line"/>
      <point x="788" y="589"/>
      <point x="737" y="583"/>
      <point x="689" y="583" type="curve" smooth="yes"/>
      <point x="614" y="583"/>
      <point x="573" y="620"/>
      <point x="573" y="689" type="curve" smooth="yes"/>
      <point x="573" y="778"/>
      <point x="623" y="837"/>
      <point x="699" y="837" type="curve" smooth="yes"/>
      <point x="737" y="837"/>
      <point x="770" y="819"/>
      <point x="796" y="784" type="curve"/>
      <point x="944" y="936" type="line"/>
      <point x="887" y="1024"/>
      <point x="808" y="1040"/>
      <point x="715" y="1040" type="curve" smooth="yes"/>
      <point x="487" y="1040"/>
      <point x="336" y="882"/>
      <point x="336" y="645" type="curve" smooth="yes"/>
      <point x="336" y="474"/>
      <point x="446" y="380"/>
    </contour>
    <contour>
      <point x="546" y="227" type="curve" smooth="yes"/>
      <point x="363" y="227"/>
      <point x="255" y="341"/>
      <point x="255" y="534" type="curve" smooth="yes"/>
      <point x="255" y="948"/>
      <point x="426" y="1193"/>
      <point x="716" y="1193" type="curve" smooth="yes"/>
      <point x="898" y="1193"/>
      <point x="1005" y="1074"/>
      <point x="1005" y="873" type="curve" smooth="yes"/>
      <point x="1005" y="467"/>
      <point x="835" y="227"/>
    </contour>
  </outline>
</glyph>
<glyph name="ordfeminine" format="2">
  <advance width="1200"/>
  <unicode hex="00AA"/>
  <outline>
    <contour>
      <point x="985" y="1440" type="line" smooth="yes"/>
      <point x="587" y="1440"/>
      <point x="278" y="1253"/>
      <point x="278" y="965" type="curve" smooth="yes"/>
      <point x="278" y="839"/>
      <point x="338" y="773"/>
      <point x="454" y="773" type="curve" smooth="yes"/>
      <point x="566" y="773"/>
      <point x="655" y="849"/>
      <point x="695" y="982" type="curve"/>
      <point x="652" y="924" type="line"/>
      <point x="778" y="924" type="line"/>
      <point x="701" y="999" type="line"/>
      <point x="691" y="778" type="line"/>
      <point x="996" y="786" type="line"/>
      <point x="1026" y="955" type="line"/>
      <point x="890" y="967" type="line"/>
      <point x="905" y="868" type="line"/>
      <point x="1004" y="1440" type="line"/>
    </contour>
    <contour>
      <point x="567" y="945" type="curve" smooth="yes"/>
      <point x="540" y="945"/>
      <point x="525" y="962"/>
      <point x="525" y="995" type="curve" smooth="yes"/>
      <point x="525" y="1145"/>
      <point x="651" y="1259"/>
      <point x="809" y="1267" type="curve"/>
      <point x="769" y="1327" type="line"/>
      <point x="746" y="1213" type="line" smooth="yes"/>
      <point x="711" y="1041"/>
      <point x="656" y="945"/>
    </contour>
  </outline>
</glyph>
<glyph name="logicalnot" format="2">
  <advance width="1200"/>
  <unicode hex="00AC"/>
  <outline>
    <contour>
      <point x="112" y="689" type="line"/>
      <point x="1145" y="689" type="line"/>
      <point x="1187" y="931" type="line"/>
      <point x="154" y="931" type="line"/>
    </contour>
    <contour>
      <point x="819" y="350" type="line"/>
      <point x="1085" y="350" type="line"/>
      <point x="1167" y="817" type="line"/>
      <point x="901" y="817" type="line"/>
    </contour>
  </outline>
</glyph>
<glyph name="registered" format="2">
  <advance width="1200"/>
  <unicode hex="00AE"/>
  <outline>
    <contour>
      <point x="509" y="15" type="curve" smooth="yes"/>
      <point x="968" y="15"/>
      <point x="1239" y="345"/>
      <point x="1239" y="903" type="curve" smooth="yes"/>
      <point x="1239" y="1219"/>
      <point x="1059" y="1405"/>
      <point x="754" y="1405" type="curve" smooth="yes"/>
      <point x="293" y="1405"/>
      <point x="21" y="1070"/>
      <point x="21" y="502" type="curve" smooth="yes"/>
      <point x="21" y="196"/>
      <point x="202" y="15"/>
    </contour>
    <contour>
      <point x="342" y="396" type="line"/>
      <point x="543" y="396" type="line"/>
      <point x="654" y="1030" type="line"/>
      <point x="453" y="1030" type="line"/>
    </contour>
    <contour>
      <point x="665" y="396" type="line"/>
      <point x="877" y="396" type="line"/>
      <point x="800" y="652" type="line"/>
      <point x="616" y="625" type="line"/>
    </contour>
    <contour>
      <point x="546" y="227" type="curve" smooth="yes"/>
      <point x="363" y="227"/>
      <point x="255" y="341"/>
      <point x="255" y="534" type="curve" smooth="yes"/>
      <point x="255" y="948"/>
      <point x="426" y="1193"/>
      <point x="716" y="1193" type="curve" smooth="yes"/>
      <point x="898" y="1193"/>
      <point x="1005" y="1074"/>
      <point x="1005" y="873" type="curve" smooth="yes"/>
      <point x="1005" y="467"/>
      <point x="835" y="227"/>
    </contour>
    <contour>
      <point x="506" y="583" type="line"/>
      <point x="645" y="583" type="line" smooth="yes"/>
      <point x="811" y="583"/>
      <point x="927" y="690"/>
      <point x="927" y="844" type="curve" smooth="yes"/>
      <point x="927" y="962"/>
      <point x="854" y="1030"/>
      <point x="721" y="1030" type="curve" smooth="yes"/>
      <point x="562" y="1030" type="line"/>
      <point x="539" y="867" type="line"/>
      <point x="678" y="867" type="line" smooth="yes"/>
      <point x="713" y="867"/>
      <point x="732" y="849"/>
      <point x="732" y="819" type="curve" smooth="yes"/>
      <point x="732" y="776"/>
      <point x="698" y="747"/>
      <point x="648" y="747" type="curve" smooth="yes"/>
      <point x="529" y="747" type="line"/>
    </contour>
  </outline>
</glyph>
<glyph name="degree" format="2">
  <advance width="1200"/>
  <unicode hex="00B0"/>
  <outline>
    <contour>
      <point x="628" y="690" type="curve" smooth="yes"/>
      <point x="864" y="690"/>
      <point x="1048" y="840"/>
      <point x="1088" y="1065" type="curve" smooth="yes"/>
      <point x="1128" y="1290"/>
      <point x="996" y="1440"/>
      <point x="760" y="1440" type="curve" smooth="yes"/>
      <point x="524" y="1440"/>
      <point x="340" y="1290"/>
      <point x="300" y="1065" type="curve" smooth="yes"/>
      <point x="260" y="840"/>
      <point x="392" y="690"/>
    </contour>
    <contour>
      <point x="663" y="892" type="curve" smooth="yes"/>
      <point x="567" y="892"/>
      <point x="516" y="961"/>
      <point x="534" y="1065" type="curve" smooth="yes"/>
      <point x="552" y="1169"/>
      <point x="629" y="1238"/>
      <point x="725" y="1238" type="curve" smooth="yes"/>
      <point x="821" y="1238"/>
      <point x="872" y="1169"/>
      <point x="854" y="1065" type="curve" smooth="yes"/>
      <point x="836" y="961"/>
      <point x="759" y="892"/>
    </contour>
  </outline>
</glyph>
<glyph name="plusminus" format="2">
  <advance width="1200"/>
  <unicode hex="00B1"/>
  <outline>
    <contour>
      <point x="419" y="246" type="line"/>
      <point x="681" y="246" type="line"/>
      <point x="853" y="1224" type="line"/>
      <point x="591" y="1224" type="line"/>
    </contour>
    <contour>
      <point x="121" y="651" type="line"/>
      <point x="1121" y="651" type="line"/>
      <point x="1165" y="901" type="line"/>
      <point x="165" y="901" type="line"/>
    </contour>
    <component base="minus" xOffset="-76" yOffset="-430"/>
  </outline>
</glyph>
<glyph name="twosuperior" format="2">
  <advance width="1200"/>
  <unicode hex="00B2"/>
  <outline>
    <contour>
      <point x="430" y="802" type="line"/>
      <point x="766" y="802" type="line"/>
      <point x="766" y="1047" type="line"/>
      <point x="924" y="1119"/>
      <point x="992" y="1188"/>
      <point x="992" y="1278" type="curve" smooth="yes"/>
      <point x="992" y="1377"/>
      <point x="905" y="1440"/>
      <point x="763" y="1440" type="curve" smooth="yes"/>
      <point x="644" y="1440"/>
      <point x="536" y="1419"/>
      <point x="462" y="1380" type="curve"/>
      <point x="495" y="1192" type="line"/>
      <point x="551" y="1217"/>
      <point x="608" y="1230"/>
      <point x="655" y="1230" type="curve" smooth="yes"/>
      <point x="697" y="1230"/>
      <point x="718" y="1219"/>
      <point x="718" y="1195" type="curve" smooth="yes"/>
      <point x="718" y="1135"/>
      <point x="612" y="1077"/>
      <point x="404" y="1026" type="curve"/>
    </contour>
    <contour>
      <point x="456" y="802" type="line"/>
      <point x="935" y="802" type="line"/>
      <point x="971" y="1009" type="line"/>
      <point x="427" y="1009" type="line"/>
    </contour>
  </outline>
</glyph>
<glyph name="threesuperior" format="2">
  <advance width="1200"/>
  <unicode hex="00B3"/>
  <outline>
    <contour>
      <point x="596" y="793" type="curve" smooth="yes"/>
      <point x="830" y="793"/>
      <point x="952" y="858"/>
      <point x="952" y="984" type="curve" smooth="yes"/>
      <point x="952" y="1055"/>
      <point x="889" y="1103"/>
      <point x="769" y="1123" type="curve" smooth="yes"/>
      <point x="569" y="1155" type="line"/>
      <point x="555" y="1042" type="line"/>
      <point x="646" y="1042" type="line" smooth="yes"/>
      <point x="695" y="1042"/>
      <point x="718" y="1031"/>
      <point x="718" y="1010" type="curve" smooth="yes"/>
      <point x="718" y="990"/>
      <point x="679" y="969"/>
      <point x="626" y="969" type="curve" smooth="yes"/>
      <point x="551" y="969"/>
      <point x="494" y="982"/>
      <point x="450" y="990" type="curve"/>
      <point x="379" y="819" type="line"/>
      <point x="435" y="803"/>
      <point x="508" y="793"/>
    </contour>
    <contour>
      <point x="555" y="1042" type="line"/>
      <point x="788" y="1089" type="line"/>
      <point x="799" y="1153" type="line"/>
      <point x="927" y="1175"/>
      <point x="994" y="1229"/>
      <point x="994" y="1311" type="curve" smooth="yes"/>
      <point x="994" y="1396"/>
      <point x="908" y="1440"/>
      <point x="743" y="1440" type="curve" smooth="yes"/>
      <point x="653" y="1440"/>
      <point x="569" y="1431"/>
      <point x="495" y="1410" type="curve"/>
      <point x="485" y="1236" type="line"/>
      <point x="544" y="1255"/>
      <point x="608" y="1265"/>
      <point x="682" y="1265" type="curve" smooth="yes"/>
      <point x="722" y="1265"/>
      <point x="739" y="1256"/>
      <point x="739" y="1240" type="curve" smooth="yes"/>
      <point x="739" y="1221"/>
      <point x="683" y="1198"/>
      <point x="565" y="1192" type="curve"/>
    </contour>
  </outline>
</glyph>
<glyph name="paragraph" format="2">
  <advance width="1200"/>
  <unicode hex="00B6"/>
  <outline>
    <contour>
      <point x="719" y="0" type="line"/>
      <point x="982" y="0" type="line"/>
      <point x="1232" y="1420" type="line"/>
      <point x="969" y="1420" type="line"/>
    </contour>
    <contour>
      <point x="329" y="0" type="line"/>
      <point x="592" y="0" type="line"/>
      <point x="819" y="1286" type="line"/>
      <point x="556" y="1286" type="line"/>
    </contour>
    <contour>
      <point x="504" y="537" type="curve"/>
      <point x="744" y="1420" type="line"/>
      <point x="332" y="1420"/>
      <point x="88" y="1235"/>
      <point x="88" y="922" type="curve" smooth="yes"/>
      <point x="88" y="715"/>
      <point x="243" y="572"/>
    </contour>
    <contour>
      <point x="658" y="1177" type="line"/>
      <point x="1291" y="1177" type="line"/>
      <point x="1334" y="1420" type="line"/>
      <point x="744" y="1420" type="line"/>
    </contour>
  </outline>
</glyph>
<glyph name="onesuperior" format="2">
  <advance width="1200"/>
  <unicode hex="00B9"/>
  <outline>
    <contour>
      <point x="562" y="802" type="line"/>
      <point x="770" y="802" type="line"/>
      <point x="878" y="1420" type="line"/>
      <point x="670" y="1420" type="line"/>
    </contour>
    <contour>
      <point x="372" y="802" type="line"/>
      <point x="571" y="802" type="line"/>
      <point x="607" y="1009" type="line"/>
      <point x="408" y="1009" type="line"/>
    </contour>
    <contour>
      <point x="760" y="802" type="line"/>
      <point x="924" y="802" type="line"/>
      <point x="960" y="1009" type="line"/>
      <point x="796" y="1009" type="line"/>
    </contour>
    <contour>
      <point x="443" y="1155" type="line"/>
      <point x="633" y="1206" type="line"/>
      <point x="670" y="1420" type="line"/>
      <point x="480" y="1367" type="line"/>
    </contour>
  </outline>
</glyph>
<glyph name="ordmasculine" format="2">
  <advance width="1200"/>
  <unicode hex="00BA"/>
  <outline>
    <contour>
      <point x="642" y="770" type="curve" smooth="yes"/>
      <point x="882" y="770"/>
      <point x="1066" y="933"/>
      <point x="1066" y="1154" type="curve" smooth="yes"/>
      <point x="1066" y="1334"/>
      <point x="952" y="1440"/>
      <point x="760" y="1440" type="curve" smooth="yes"/>
      <point x="520" y="1440"/>
      <point x="336" y="1277"/>
      <point x="336" y="1056" type="curve" smooth="yes"/>
      <point x="336" y="876"/>
      <point x="450" y="770"/>
    </contour>
    <contour>
      <point x="677" y="970" type="curve" smooth="yes"/>
      <point x="622" y="970"/>
      <point x="591" y="1013"/>
      <point x="591" y="1079" type="curve" smooth="yes"/>
      <point x="591" y="1158"/>
      <point x="641" y="1240"/>
      <point x="725" y="1240" type="curve" smooth="yes"/>
      <point x="780" y="1240"/>
      <point x="811" y="1197"/>
      <point x="811" y="1131" type="curve" smooth="yes"/>
      <point x="811" y="1052"/>
      <point x="761" y="970"/>
    </contour>
  </outline>
</glyph>
<glyph name="onequarter" format="2">
  <advance width="1200"/>
  <unicode hex="00BC"/>
  <outline>
    <contour>
      <point x="217" y="241" type="line"/>
      <point x="1244" y="969" type="line"/>
      <point x="1123" y="1166" type="line"/>
      <point x="103" y="441" type="line"/>
    </contour>
    <component base="onesuperior" xOffset="-260"/>
    <component base="fourinferior" xOffset="270"/>
  </outline>
</glyph>
<glyph name="onehalf" format="2">
  <advance width="1200"/>
  <unicode hex="00BD"/>
  <outline>
    <contour>
      <point x="190" y="241" type="line"/>
      <point x="1217" y="969" type="line"/>
      <point x="1096" y="1166" type="line"/>
      <point x="76" y="441" type="line"/>
    </contour>
    <component base="onesuperior" xOffset="-260"/>
    <component base="twoinferior" xOffset="270"/>
  </outline>
</glyph>
<glyph name="threequarters" format="2">
  <advance width="1200"/>
  <unicode hex="00BE"/>
  <outline>
    <contour>
      <point x="190" y="241" type="line"/>
      <point x="1217" y="969" type="line"/>
      <point x="1096" y="1166" type="line"/>
      <point x="76" y="441" type="line"/>
    </contour>
    <component base="threesuperior" xOffset="-260"/>
    <component base="fourinferior" xOffset="270"/>
  </outline>
</glyph>
<glyph name="questiondown" format="2">
  <advance width="1200"/>
  <unicode hex="00BF"/>
  <outline>
    <contour>
      <point x="445" y="-380" type="curve"/>
      <point x="491" y="-130" type="line"/>
      <point x="414" y="-130"/>
      <point x="368" y="-91"/>
      <point x="368" y="-25" type="curve" smooth="yes"/>
      <point x="368" y="48"/>
      <point x="411" y="95"/>
      <point x="490" y="156" type="curve" smooth="yes"/>
      <point x="659" y="287"/>
      <point x="782" y="379"/>
      <point x="798" y="541" type="curve" smooth="yes"/>
      <point x="801" y="571" type="line"/>
      <point x="537" y="571" type="line"/>
      <point x="534" y="555" type="line" smooth="yes"/>
      <point x="520" y="482"/>
      <point x="458" y="417"/>
      <point x="331" y="322" type="curve" smooth="yes"/>
      <point x="163" y="197"/>
      <point x="76" y="82"/>
      <point x="76" y="-82" type="curve" smooth="yes"/>
      <point x="76" y="-269"/>
      <point x="213" y="-380"/>
    </contour>
    <contour>
      <point x="445" y="-380" type="line"/>
      <point x="657" y="-380"/>
      <point x="872" y="-297"/>
      <point x="994" y="-171" type="curve"/>
      <point x="841" y="35" type="line"/>
      <point x="744" y="-65"/>
      <point x="608" y="-130"/>
      <point x="491" y="-130" type="curve"/>
    </contour>
    <component base="period" xOffset="174" yOffset="736"/>
  </outline>
</glyph>
<glyph name="AE" format="2">
  <advance width="1200"/>
  <unicode hex="00C6"/>
  <anchor x="506" y="0" name="bottom"/>
  <anchor x="990" y="10" name="ogonek"/>
  <anchor x="857" y="1420" name="top"/>
  <outline>
    <contour>
      <point x="481" y="0" type="line"/>
      <point x="719" y="0" type="line"/>
      <point x="969" y="1420" type="line"/>
      <point x="731" y="1420" type="line"/>
    </contour>
    <contour>
      <point x="513" y="0" type="line"/>
      <point x="1021" y="0" type="line"/>
      <point x="1065" y="242" type="line"/>
      <point x="558" y="242" type="line"/>
    </contour>
    <contour>
      <point x="623" y="590" type="line"/>
      <point x="1067" y="590" type="line"/>
      <point x="1110" y="832" type="line"/>
      <point x="666" y="832" type="line"/>
    </contour>
    <contour>
      <point x="733" y="1179" type="line"/>
      <point x="1231" y="1179" type="line"/>
      <point x="1273" y="1420" type="line"/>
      <point x="773" y="1420" type="line"/>
    </contour>
    <contour>
      <point x="-66" y="0" type="line"/>
      <point x="204" y="0" type="line"/>
      <point x="659" y="1179" type="line"/>
      <point x="724" y="1179" type="line"/>
      <point x="889" y="1420" type="line"/>
      <point x="505" y="1420" type="line"/>
    </contour>
    <contour>
      <point x="200" y="164" type="line"/>
      <point x="660" y="164" type="line"/>
      <point x="694" y="403" type="line"/>
      <point x="234" y="403" type="line"/>
    </contour>
  </outline>
</glyph>
<glyph name="Eth" format="2">
  <advance width="1200"/>
  <unicode hex="00D0"/>
  <outline>
    <contour>
      <point x="22" y="585" type="line"/>
      <point x="661" y="585" type="line"/>
      <point x="705" y="829" type="line"/>
      <point x="66" y="829" type="line"/>
    </contour>
    <component base="D"/>
  </outline>
</glyph>
<glyph name="multiply" format="2">
  <advance width="1200"/>
  <unicode hex="00D7"/>
  <guideline x="314" y="114" angle="0"/>
  <guideline x="314" y="574" angle="0"/>
  <outline>
    <contour>
      <point x="244" y="173" type="line"/>
      <point x="91" y="359" type="line"/>
      <point x="1012" y="1203" type="line"/>
      <point x="1165" y="1017" type="line"/>
    </contour>
    <contour>
      <point x="846" y="193" type="line"/>
      <point x="207" y="1015" type="line"/>
      <point x="410" y="1183" type="line"/>
      <point x="1049" y="359" type="line"/>
    </contour>
  </outline>
</glyph>
<glyph name="Oslash" format="2">
  <advance width="1200"/>
  <unicode hex="00D8"/>
  <outline>
    <contour>
      <point x="116" y="-142" type="line"/>
      <point x="1303" y="1419" type="line"/>
      <point x="1134" y="1540" type="line"/>
      <point x="-43" y="-11" type="line"/>
    </contour>
    <component base="O"/>
  </outline>
</glyph>
<glyph name="Thorn" format="2">
  <advance width="1200"/>
  <unicode hex="00DE"/>
  <anchor x="506" y="0" name="bottom"/>
  <anchor x="757" y="1420" name="top"/>
  <outline>
    <contour>
      <point x="50" y="0" type="line"/>
      <point x="316" y="0" type="line"/>
      <point x="566" y="1420" type="line"/>
      <point x="300" y="1420" type="line"/>
    </contour>
    <contour>
      <point x="134" y="147" type="line"/>
      <point x="246" y="147" type="line" smooth="yes"/>
      <point x="856" y="147"/>
      <point x="1174" y="374"/>
      <point x="1174" y="808" type="curve" smooth="yes"/>
      <point x="1174" y="1103"/>
      <point x="963" y="1257"/>
      <point x="558" y="1257" type="curve" smooth="yes"/>
      <point x="453" y="1257"/>
      <point x="366" y="1250"/>
      <point x="303" y="1237" type="curve"/>
      <point x="270" y="985" type="line"/>
      <point x="343" y="998"/>
      <point x="444" y="1005"/>
      <point x="565" y="1005" type="curve" smooth="yes"/>
      <point x="784" y="1005"/>
      <point x="897" y="926"/>
      <point x="897" y="775" type="curve" smooth="yes"/>
      <point x="897" y="527"/>
      <point x="686" y="399"/>
      <point x="279" y="399" type="curve" smooth="yes"/>
      <point x="167" y="399" type="line"/>
    </contour>
  </outline>
</glyph>
<glyph name="germandbls" format="2">
  <advance width="1200"/>
  <unicode hex="00DF"/>
  <anchor x="438" y="-388" name="bottom"/>
  <anchor x="805" y="1500" name="top"/>
  <outline>
    <contour>
      <point x="709" y="-20" type="curve" smooth="yes"/>
      <point x="963" y="-20"/>
      <point x="1141" y="127"/>
      <point x="1141" y="337" type="curve" smooth="yes"/>
      <point x="1141" y="450"/>
      <point x="1074" y="522"/>
      <point x="1009" y="600" type="curve" smooth="yes"/>
      <point x="969" y="648"/>
      <point x="930" y="702"/>
      <point x="930" y="758" type="curve" smooth="yes"/>
      <point x="930" y="829"/>
      <point x="995" y="902"/>
      <point x="1018" y="926" type="curve" smooth="yes"/>
      <point x="1056" y="965"/>
      <point x="1171" y="1069"/>
      <point x="1171" y="1248" type="curve" smooth="yes"/>
      <point x="1171" y="1422"/>
      <point x="1049" y="1520"/>
      <point x="826" y="1520" type="curve" smooth="yes"/>
      <point x="498" y="1520"/>
      <point x="338" y="1355"/>
      <point x="266" y="943" type="curve" smooth="yes"/>
      <point x="19" y="-460" type="line"/>
      <point x="285" y="-460" type="line"/>
      <point x="535" y="953" type="line" smooth="yes"/>
      <point x="574" y="1175"/>
      <point x="645" y="1264"/>
      <point x="781" y="1263" type="curve" smooth="yes"/>
      <point x="847" y="1262"/>
      <point x="883" y="1229"/>
      <point x="883" y="1178" type="curve" smooth="yes"/>
      <point x="883" y="1102"/>
      <point x="805" y="1026"/>
      <point x="788" y="1005" type="curve" smooth="yes"/>
      <point x="738" y="946"/>
      <point x="667" y="847"/>
      <point x="667" y="716" type="curve" smooth="yes"/>
      <point x="667" y="605"/>
      <point x="723" y="538"/>
      <point x="772" y="490" type="curve" smooth="yes"/>
      <point x="820" y="443"/>
      <point x="872" y="402"/>
      <point x="872" y="331" type="curve" smooth="yes"/>
      <point x="872" y="272"/>
      <point x="823" y="237"/>
      <point x="742" y="237" type="curve" smooth="yes"/>
      <point x="688" y="237"/>
      <point x="619" y="249"/>
      <point x="530" y="269" type="curve"/>
      <point x="462" y="10" type="line"/>
      <point x="524" y="-9"/>
      <point x="602" y="-20"/>
    </contour>
  </outline>
</glyph>
<glyph name="ae" format="2">
  <advance width="1200"/>
  <unicode hex="00E6"/>
  <anchor x="506" y="0" name="bottom"/>
  <anchor x="693" y="1060" name="top"/>
  <outline>
    <contour>
      <point x="908" y="232" type="curve" smooth="yes"/>
      <point x="792" y="232"/>
      <point x="724" y="314"/>
      <point x="723" y="451" type="curve" smooth="yes"/>
      <point x="724" y="674"/>
      <point x="797" y="824"/>
      <point x="906" y="824" type="curve" smooth="yes"/>
      <point x="948" y="824"/>
      <point x="971" y="798"/>
      <point x="971" y="757" type="curve" smooth="yes"/>
      <point x="971" y="643"/>
      <point x="853" y="575"/>
      <point x="652" y="571" type="curve"/>
      <point x="673" y="351" type="line"/>
      <point x="1018" y="360"/>
      <point x="1223" y="524"/>
      <point x="1223" y="790" type="curve" smooth="yes"/>
      <point x="1223" y="972"/>
      <point x="1131" y="1080"/>
      <point x="974" y="1080" type="curve" smooth="yes"/>
      <point x="720" y="1080"/>
      <point x="551" y="804"/>
      <point x="551" y="389" type="curve" smooth="yes"/>
      <point x="551" y="132"/>
      <point x="681" y="-20"/>
      <point x="899" y="-20" type="curve" smooth="yes"/>
      <point x="961" y="-20"/>
      <point x="1034" y="-7"/>
      <point x="1094" y="14" type="curve"/>
      <point x="1053" y="252" type="line"/>
      <point x="1006" y="239"/>
      <point x="952" y="232"/>
    </contour>
    <contour>
      <point x="207" y="-20" type="curve" smooth="yes"/>
      <point x="390" y="-20"/>
      <point x="502" y="72"/>
      <point x="543" y="286" type="curve"/>
      <point x="465" y="254" type="line"/>
      <point x="634" y="254" type="line"/>
      <point x="483" y="556" type="line"/>
      <point x="452" y="380" type="line"/>
      <point x="434" y="270"/>
      <point x="369" y="208"/>
      <point x="293" y="208" type="curve" smooth="yes"/>
      <point x="245" y="208"/>
      <point x="219" y="237"/>
      <point x="219" y="287" type="curve" smooth="yes"/>
      <point x="219" y="379"/>
      <point x="293" y="439"/>
      <point x="408" y="439" type="curve" smooth="yes"/>
      <point x="465" y="439"/>
      <point x="512" y="439"/>
      <point x="535" y="409" type="curve"/>
      <point x="610" y="598" type="line"/>
      <point x="574" y="621"/>
      <point x="507" y="634"/>
      <point x="444" y="634" type="curve" smooth="yes"/>
      <point x="152" y="634"/>
      <point x="-45" y="469"/>
      <point x="-45" y="224" type="curve" smooth="yes"/>
      <point x="-45" y="67"/>
      <point x="44" y="-20"/>
    </contour>
    <contour>
      <point x="447" y="310" type="line"/>
      <point x="609" y="310" type="line"/>
      <point x="653" y="604" type="line" smooth="yes"/>
      <point x="696" y="890"/>
      <point x="565" y="1061"/>
      <point x="293" y="1067" type="curve" smooth="yes"/>
      <point x="171" y="1070" type="line"/>
      <point x="131" y="815" type="line"/>
      <point x="230" y="812" type="line" smooth="yes"/>
      <point x="416" y="807"/>
      <point x="514" y="732"/>
      <point x="494" y="616" type="curve" smooth="yes"/>
      <point x="455" y="392" type="line"/>
    </contour>
  </outline>
</glyph>
<glyph name="eth" format="2">
  <advance width="1200"/>
  <unicode hex="00F0"/>
  <anchor x="506" y="0" name="bottom"/>
  <anchor x="771" y="1500" name="top"/>
  <outline>
    <contour>
      <point x="467" y="1359" type="line"/>
      <point x="805" y="1225"/>
      <point x="858" y="1010"/>
      <point x="828" y="666" type="curve" smooth="yes"/>
      <point x="802" y="379"/>
      <point x="690" y="237"/>
      <point x="490" y="237" type="curve" smooth="yes"/>
      <point x="400" y="237"/>
      <point x="353" y="285"/>
      <point x="353" y="376" type="curve" smooth="yes"/>
      <point x="353" y="588"/>
      <point x="592" y="713"/>
      <point x="989" y="713" type="curve"/>
      <point x="943" y="970" type="line"/>
      <point x="422" y="970"/>
      <point x="66" y="713"/>
      <point x="66" y="339" type="curve" smooth="yes"/>
      <point x="66" y="103"/>
      <point x="196" y="-20"/>
      <point x="445" y="-20" type="curve" smooth="yes"/>
      <point x="833" y="-20"/>
      <point x="1057" y="176"/>
      <point x="1107" y="574" type="curve" smooth="yes"/>
      <point x="1172" y="1087"/>
      <point x="1041" y="1366"/>
      <point x="550" y="1516" type="curve"/>
    </contour>
    <contour>
      <point x="389" y="972" type="line"/>
      <point x="1216" y="1214" type="line"/>
      <point x="1164" y="1439" type="line"/>
      <point x="337" y="1197" type="line"/>
    </contour>
  </outline>
</glyph>
<glyph name="divide" format="2">
  <advance width="1200"/>
  <unicode hex="00F7"/>
  <outline>
    <contour>
      <point x="110" y="584" type="line"/>
      <point x="1110" y="584" type="line"/>
      <point x="1154" y="834" type="line"/>
      <point x="154" y="834" type="line"/>
    </contour>
    <contour>
      <point x="555" y="100" type="curve" smooth="yes"/>
      <point x="654" y="100"/>
      <point x="735" y="181"/>
      <point x="735" y="279" type="curve" smooth="yes"/>
      <point x="735" y="378"/>
      <point x="654" y="459"/>
      <point x="555" y="459" type="curve" smooth="yes"/>
      <point x="456" y="459"/>
      <point x="375" y="378"/>
      <point x="375" y="279" type="curve" smooth="yes"/>
      <point x="375" y="181"/>
      <point x="456" y="100"/>
    </contour>
    <contour>
      <point x="705" y="959" type="curve" smooth="yes"/>
      <point x="803" y="959"/>
      <point x="885" y="1040"/>
      <point x="885" y="1139" type="curve" smooth="yes"/>
      <point x="885" y="1237"/>
      <point x="804" y="1318"/>
      <point x="705" y="1318" type="curve" smooth="yes"/>
      <point x="606" y="1318"/>
      <point x="525" y="1237"/>
      <point x="525" y="1139" type="curve" smooth="yes"/>
      <point x="525" y="1040"/>
      <point x="606" y="959"/>
    </contour>
  </outline>
</glyph>
<glyph name="oslash" format="2">
  <advance width="1200"/>
  <unicode hex="00F8"/>
  <outline>
    <contour>
      <point x="186" y="-124" type="line"/>
      <point x="1109" y="1096" type="line"/>
      <point x="983" y="1188" type="line"/>
      <point x="60" y="-32" type="line"/>
    </contour>
    <component base="o"/>
  </outline>
</glyph>
<glyph name="thorn" format="2">
  <advance width="1200"/>
  <unicode hex="00FE"/>
  <anchor x="438" y="-388" name="bottom"/>
  <anchor x="485" y="1500" name="top"/>
  <outline>
    <contour>
      <point x="252" y="-460" type="line"/>
      <point x="598" y="1514" type="line"/>
      <point x="145" y="1500" type="line"/>
      <point x="103" y="1265" type="line"/>
      <point x="280" y="1265" type="line"/>
      <point x="-23" y="-459" type="line"/>
    </contour>
    <contour>
      <point x="306" y="-20" type="curve" smooth="yes"/>
      <point x="782" y="-20"/>
      <point x="1141" y="298"/>
      <point x="1141" y="720" type="curve" smooth="yes"/>
      <point x="1141" y="950"/>
      <point x="1031" y="1080"/>
      <point x="840" y="1080" type="curve" smooth="yes"/>
      <point x="665" y="1080"/>
      <point x="534" y="983"/>
      <point x="497" y="813" type="curve"/>
      <point x="528" y="869" type="line"/>
      <point x="441" y="869" type="line"/>
      <point x="401" y="388" type="line"/>
      <point x="459" y="693"/>
      <point x="604" y="823"/>
      <point x="738" y="823" type="curve" smooth="yes"/>
      <point x="818" y="823"/>
      <point x="864" y="774"/>
      <point x="864" y="686" type="curve" smooth="yes"/>
      <point x="864" y="430"/>
      <point x="647" y="237"/>
      <point x="359" y="237" type="curve" smooth="yes"/>
      <point x="278" y="237"/>
      <point x="210" y="247"/>
      <point x="177" y="262" type="curve"/>
      <point x="98" y="0" type="line"/>
      <point x="168" y="-12"/>
      <point x="236" y="-20"/>
    </contour>
  </outline>
</glyph>
<glyph name="Aogonek" format="2">
  <advance width="1200"/>
  <unicode hex="0104"/>
  <anchor x="438" y="-388" name="bottom"/>
  <outline>
    <contour>
      <point x="843" y="-424" type="curve" smooth="yes"/>
      <point x="900" y="-424"/>
      <point x="964" y="-408"/>
      <point x="1010" y="-386" type="curve"/>
      <point x="968" y="-172" type="line"/>
      <point x="945" y="-180"/>
      <point x="921" y="-185"/>
      <point x="900" y="-185" type="curve" smooth="yes"/>
      <point x="862" y="-185"/>
      <point x="841" y="-170"/>
      <point x="841" y="-142" type="curve" smooth="yes"/>
      <point x="841" y="-77"/>
      <point x="954" y="-33"/>
      <point x="1079" y="0" type="curve"/>
      <point x="1040" y="30" type="line"/>
      <point x="847" y="30" type="line"/>
      <point x="847" y="-20" type="line"/>
      <point x="706" y="-64"/>
      <point x="624" y="-151"/>
      <point x="624" y="-255" type="curve" smooth="yes"/>
      <point x="624" y="-368"/>
      <point x="699" y="-424"/>
    </contour>
    <component base="A"/>
  </outline>
</glyph>
<glyph name="aogonek" format="2">
  <advance width="1200"/>
  <unicode hex="0105"/>
  <anchor x="438" y="-388" name="bottom"/>
  <outline>
    <contour>
      <point x="841" y="-424" type="curve" smooth="yes"/>
      <point x="899" y="-424"/>
      <point x="966" y="-408"/>
      <point x="1013" y="-386" type="curve"/>
      <point x="971" y="-172" type="line"/>
      <point x="946" y="-180"/>
      <point x="921" y="-185"/>
      <point x="898" y="-185" type="curve" smooth="yes"/>
      <point x="859" y="-185"/>
      <point x="839" y="-170"/>
      <point x="839" y="-142" type="curve" smooth="yes"/>
      <point x="839" y="-81"/>
      <point x="955" y="-9"/>
      <point x="1082" y="-9" type="curve"/>
      <point x="1043" y="21" type="line"/>
      <point x="843" y="37" type="line"/>
      <point x="843" y="-13" type="line"/>
      <point x="704" y="-59"/>
      <point x="622" y="-148"/>
      <point x="622" y="-255" type="curve" smooth="yes"/>
      <point x="622" y="-368"/>
      <point x="697" y="-424"/>
    </contour>
    <component base="a"/>
  </outline>
</glyph>
<glyph name="dcaron" format="2">
  <advance width="1200"/>
  <unicode hex="010F"/>
  <outline>
    <contour>
      <point x="1231" y="1188" type="line"/>
      <point x="1427" y="1188" type="line"/>
      <point x="1584" y="1568" type="line"/>
      <point x="1338" y="1568" type="line"/>
    </contour>
    <component base="d"/>
  </outline>
</glyph>
<glyph name="dcroat" format="2">
  <advance width="1200"/>
  <unicode hex="0111"/>
  <anchor x="486" y="0" name="bottom"/>
  <anchor x="548" y="532" name="center"/>
  <anchor x="1059" y="1500" name="top"/>
  <anchor x="1199" y="1062" name="topright"/>
  <outline>
    <contour>
      <point x="921" y="1500" type="line"/>
      <point x="765" y="619" type="line"/>
      <point x="734" y="289" type="line"/>
      <point x="717" y="-10" type="line"/>
      <point x="1084" y="0" type="line"/>
      <point x="1123" y="220" type="line"/>
      <point x="902" y="220" type="line"/>
      <point x="951" y="116" type="line"/>
      <point x="1196" y="1500" type="line"/>
    </contour>
    <contour>
      <point x="769" y="224" type="line"/>
      <point x="774" y="667" type="line"/>
      <point x="720" y="393"/>
      <point x="599" y="236"/>
      <point x="436" y="236" type="curve" smooth="yes"/>
      <point x="353" y="236"/>
      <point x="314" y="275"/>
      <point x="314" y="359" type="curve" smooth="yes"/>
      <point x="314" y="615"/>
      <point x="593" y="809"/>
      <point x="947" y="823" type="curve"/>
      <point x="1108" y="1080" type="line"/>
      <point x="1090" y="1080" type="line" smooth="yes"/>
      <point x="491" y="1080"/>
      <point x="37" y="765"/>
      <point x="37" y="277" type="curve" smooth="yes"/>
      <point x="37" y="88"/>
      <point x="147" y="-21"/>
      <point x="341" y="-21" type="curve" smooth="yes"/>
      <point x="542" y="-21"/>
      <point x="693" y="125"/>
      <point x="757" y="379" type="curve"/>
      <point x="653" y="224" type="line"/>
    </contour>
    <contour>
      <point x="550" y="1168" type="line"/>
      <point x="1243" y="1168" type="line"/>
      <point x="1283" y="1392" type="line"/>
      <point x="590" y="1392" type="line"/>
    </contour>
  </outline>
</glyph>
<glyph name="Eogonek" format="2">
  <advance width="1200"/>
  <unicode hex="0118"/>
  <anchor x="438" y="-388" name="bottom"/>
  <outline>
    <contour>
      <point x="783" y="-424" type="curve" smooth="yes"/>
      <point x="839" y="-424"/>
      <point x="904" y="-408"/>
      <point x="950" y="-386" type="curve"/>
      <point x="908" y="-172" type="line"/>
      <point x="885" y="-180"/>
      <point x="861" y="-185"/>
      <point x="840" y="-185" type="curve" smooth="yes"/>
      <point x="801" y="-185"/>
      <point x="781" y="-170"/>
      <point x="781" y="-142" type="curve" smooth="yes"/>
      <point x="781" y="-77"/>
      <point x="897" y="-33"/>
      <point x="1024" y="0" type="curve"/>
      <point x="985" y="30" type="line"/>
      <point x="775" y="17" type="line"/>
      <point x="775" y="-33" type="line"/>
      <point x="642" y="-75"/>
      <point x="564" y="-157"/>
      <point x="564" y="-255" type="curve" smooth="yes"/>
      <point x="564" y="-368"/>
      <point x="639" y="-424"/>
    </contour>
    <component base="E"/>
  </outline>
</glyph>
<glyph name="eogonek" format="2">
  <advance width="1200"/>
  <unicode hex="0119"/>
  <anchor x="438" y="-388" name="bottom"/>
  <outline>
    <contour>
      <point x="711" y="-424" type="curve" smooth="yes"/>
      <point x="782" y="-424"/>
      <point x="865" y="-404"/>
      <point x="923" y="-376" type="curve"/>
      <point x="881" y="-162" type="line"/>
      <point x="842" y="-176"/>
      <point x="804" y="-185"/>
      <point x="768" y="-185" type="curve" smooth="yes"/>
      <point x="722" y="-185"/>
      <point x="699" y="-167"/>
      <point x="699" y="-132" type="curve" smooth="yes"/>
      <point x="699" y="-57"/>
      <point x="781" y="-9"/>
      <point x="872" y="32" type="curve"/>
      <point x="833" y="62" type="line"/>
      <point x="613" y="7" type="line"/>
      <point x="613" y="-48" type="line"/>
      <point x="530" y="-86"/>
      <point x="482" y="-161"/>
      <point x="482" y="-250" type="curve" smooth="yes"/>
      <point x="482" y="-366"/>
      <point x="560" y="-424"/>
    </contour>
    <component base="e"/>
  </outline>
</glyph>
<glyph name="hbar" format="2">
  <advance width="1200"/>
  <unicode hex="0127"/>
  <anchor x="506" y="0" name="bottom"/>
  <anchor x="689" y="784" name="center"/>
  <anchor x="457" y="1500" name="top"/>
  <outline>
    <contour>
      <point x="679" y="0" type="line"/>
      <point x="954" y="0" type="line"/>
      <point x="1068" y="646" type="line" smooth="yes"/>
      <point x="1118" y="931"/>
      <point x="1025" y="1080"/>
      <point x="800" y="1080" type="curve" smooth="yes"/>
      <point x="655" y="1080"/>
      <point x="559" y="1003"/>
      <point x="517" y="868" type="curve"/>
      <point x="467" y="868" type="line"/>
      <point x="419" y="511" type="line"/>
      <point x="458" y="745"/>
      <point x="561" y="823"/>
      <point x="677" y="823" type="curve" smooth="yes"/>
      <point x="770" y="823"/>
      <point x="813" y="760"/>
      <point x="792" y="640" type="curve" smooth="yes"/>
    </contour>
    <contour>
      <point x="54" y="0" type="line"/>
      <point x="329" y="0" type="line"/>
      <point x="594" y="1500" type="line"/>
      <point x="320" y="1500" type="line"/>
    </contour>
    <contour>
      <point x="120" y="1185" type="line"/>
      <point x="853" y="1185" type="line"/>
      <point x="893" y="1409" type="line"/>
      <point x="160" y="1409" type="line"/>
    </contour>
  </outline>
</glyph>
<glyph name="Iogonek" format="2">
  <advance width="1200"/>
  <unicode hex="012E"/>
  <anchor x="438" y="-388" name="bottom"/>
  <outline>
    <contour>
      <point x="468" y="-424" type="curve" smooth="yes"/>
      <point x="541" y="-424"/>
      <point x="626" y="-405"/>
      <point x="685" y="-378" type="curve"/>
      <point x="643" y="-164" type="line"/>
      <point x="603" y="-177"/>
      <point x="561" y="-185"/>
      <point x="525" y="-185" type="curve" smooth="yes"/>
      <point x="473" y="-185"/>
      <point x="446" y="-167"/>
      <point x="446" y="-132" type="curve" smooth="yes"/>
      <point x="446" y="-72"/>
      <point x="547" y="0"/>
      <point x="659" y="0" type="curve"/>
      <point x="620" y="30" type="line"/>
      <point x="410" y="17" type="line"/>
      <point x="410" y="-33" type="line"/>
      <point x="290" y="-73"/>
      <point x="219" y="-151"/>
      <point x="219" y="-245" type="curve" smooth="yes"/>
      <point x="219" y="-365"/>
      <point x="305" y="-424"/>
    </contour>
    <component base="I"/>
  </outline>
</glyph>
<glyph name="iogonek" format="2">
  <advance width="1200"/>
  <unicode hex="012F"/>
  <anchor x="438" y="-388" name="bottom"/>
  <outline>
    <contour>
      <point x="591" y="-424" type="curve" smooth="yes"/>
      <point x="662" y="-424"/>
      <point x="745" y="-404"/>
      <point x="803" y="-376" type="curve"/>
      <point x="761" y="-162" type="line"/>
      <point x="722" y="-176"/>
      <point x="684" y="-185"/>
      <point x="648" y="-185" type="curve" smooth="yes"/>
      <point x="602" y="-185"/>
      <point x="579" y="-169"/>
      <point x="579" y="-138" type="curve" smooth="yes"/>
      <point x="579" y="-80"/>
      <point x="679" y="-52"/>
      <point x="851" y="-10" type="curve"/>
      <point x="827" y="19" type="line"/>
      <point x="586" y="30" type="line"/>
      <point x="586" y="-25" type="line"/>
      <point x="445" y="-68"/>
      <point x="362" y="-153"/>
      <point x="362" y="-255" type="curve" smooth="yes"/>
      <point x="362" y="-368"/>
      <point x="440" y="-424"/>
    </contour>
    <component base="i"/>
  </outline>
</glyph>
<glyph name="idotless" format="2">
  <advance width="1200"/>
  <unicode hex="0131"/>
  <anchor x="508" y="0" name="bottom"/>
  <anchor x="731" y="10" name="ogonek"/>
  <anchor x="693" y="1060" name="top"/>
  <outline>
    <contour>
      <point x="750" y="-20" type="curve" smooth="yes"/>
      <point x="883" y="-20"/>
      <point x="981" y="13"/>
      <point x="1075" y="54" type="curve"/>
      <point x="1006" y="292" type="line"/>
      <point x="929" y="252"/>
      <point x="882" y="237"/>
      <point x="809" y="237" type="curve" smooth="yes"/>
      <point x="727" y="237"/>
      <point x="686" y="276"/>
      <point x="687" y="353" type="curve" smooth="yes"/>
      <point x="687" y="387"/>
      <point x="695" y="463"/>
      <point x="722" y="615" type="curve" smooth="yes"/>
      <point x="801" y="1060" type="line"/>
      <point x="238" y="1060" type="line"/>
      <point x="194" y="811" type="line"/>
      <point x="599" y="811" type="line"/>
      <point x="507" y="953" type="line"/>
      <point x="447" y="615" type="line" smooth="yes"/>
      <point x="417" y="445"/>
      <point x="410" y="351"/>
      <point x="410" y="303" type="curve" smooth="yes"/>
      <point x="410" y="87"/>
      <point x="523" y="-20"/>
    </contour>
  </outline>
</glyph>
<glyph name="IJ" format="2">
  <advance width="1200"/>
  <unicode hex="0132"/>
  <guideline x="1046" y="226" angle="80"/>
  <anchor x="506" y="0" name="bottom"/>
  <anchor x="757" y="1420" name="top"/>
  <outline>
    <contour>
      <point x="570" y="-20" type="curve" smooth="yes"/>
      <point x="864" y="-20"/>
      <point x="1022" y="123"/>
      <point x="1077" y="436" type="curve" smooth="yes"/>
      <point x="1250" y="1420" type="line"/>
      <point x="984" y="1420" type="line"/>
      <point x="811" y="436" type="line" smooth="yes"/>
      <point x="786" y="296"/>
      <point x="720" y="232"/>
      <point x="596" y="232" type="curve" smooth="yes"/>
      <point x="471" y="232"/>
      <point x="421" y="293"/>
      <point x="436" y="426" type="curve"/>
      <point x="161" y="426" type="line"/>
      <point x="103" y="120"/>
      <point x="231" y="-20"/>
    </contour>
    <contour>
      <point x="40" y="568" type="line"/>
      <point x="626" y="568" type="line"/>
      <point x="669" y="811" type="line"/>
      <point x="83" y="811" type="line"/>
    </contour>
    <contour>
      <point x="194" y="568" type="line"/>
      <point x="456" y="568" type="line"/>
      <point x="606" y="1420" type="line"/>
      <point x="344" y="1420" type="line"/>
    </contour>
    <contour>
      <point x="147" y="1177" type="line"/>
      <point x="713" y="1177" type="line"/>
      <point x="756" y="1420" type="line"/>
      <point x="190" y="1420" type="line"/>
    </contour>
    <contour>
      <point x="800" y="1177" type="line"/>
      <point x="1083" y="1177" type="line"/>
      <point x="1125" y="1420" type="line"/>
      <point x="843" y="1420" type="line"/>
    </contour>
  </outline>
</glyph>
<glyph name="ij" format="2">
  <advance width="1200"/>
  <unicode hex="0133"/>
  <anchor x="448" y="-329" name="bottom"/>
  <anchor x="795" y="1480" name="top"/>
  <outline>
    <contour>
      <point x="84" y="-480" type="line"/>
      <point x="274" y="-468" type="line" smooth="yes"/>
      <point x="714" y="-440"/>
      <point x="836" y="-267"/>
      <point x="907" y="134" type="curve" smooth="yes"/>
      <point x="1071" y="1060" type="line"/>
      <point x="797" y="1060" type="line"/>
      <point x="627" y="102" type="line" smooth="yes"/>
      <point x="591" y="-99"/>
      <point x="525" y="-190"/>
      <point x="291" y="-209" type="curve" smooth="yes"/>
      <point x="71" y="-227" type="line"/>
    </contour>
    <contour>
      <point x="133" y="0" type="line"/>
      <point x="408" y="0" type="line"/>
      <point x="596" y="1060" type="line"/>
      <point x="321" y="1060" type="line"/>
    </contour>
    <contour>
      <point x="503" y="1203" type="curve" smooth="yes"/>
      <point x="606" y="1203"/>
      <point x="676" y="1273"/>
      <point x="676" y="1376" type="curve" smooth="yes"/>
      <point x="676" y="1479"/>
      <point x="606" y="1549"/>
      <point x="503" y="1549" type="curve" smooth="yes"/>
      <point x="400" y="1549"/>
      <point x="330" y="1479"/>
      <point x="330" y="1376" type="curve" smooth="yes"/>
      <point x="330" y="1273"/>
      <point x="400" y="1203"/>
    </contour>
    <contour>
      <point x="978" y="1203" type="curve" smooth="yes"/>
      <point x="1081" y="1203"/>
      <point x="1151" y="1273"/>
      <point x="1151" y="1376" type="curve" smooth="yes"/>
      <point x="1151" y="1479"/>
      <point x="1081" y="1549"/>
      <point x="978" y="1549" type="curve" smooth="yes"/>
      <point x="875" y="1549"/>
      <point x="805" y="1479"/>
      <point x="805" y="1376" type="curve" smooth="yes"/>
      <point x="805" y="1273"/>
      <point x="875" y="1203"/>
    </contour>
  </outline>
</glyph>
<glyph name="kgreenlandic" format="2">
  <advance width="1200"/>
  <unicode hex="0138"/>
  <anchor x="534" y="0" name="bottom"/>
  <anchor x="721" y="1060" name="top"/>
  <outline>
    <contour>
      <point x="984" y="-20" type="curve" smooth="yes"/>
      <point x="1027" y="-20"/>
      <point x="1057" y="-15"/>
      <point x="1088" y="-9" type="curve"/>
      <point x="1069" y="239" type="line"/>
      <point x="1056" y="237"/>
      <point x="1048" y="237"/>
      <point x="1028" y="237" type="curve" smooth="yes"/>
      <point x="852" y="237"/>
      <point x="763" y="311"/>
      <point x="766" y="519" type="curve"/>
      <point x="746" y="336" type="line"/>
      <point x="980" y="428"/>
      <point x="1116" y="595"/>
      <point x="1116" y="797" type="curve" smooth="yes"/>
      <point x="1116" y="968"/>
      <point x="1004" y="1080"/>
      <point x="834" y="1080" type="curve" smooth="yes"/>
      <point x="676" y="1080"/>
      <point x="549" y="995"/>
      <point x="512" y="868" type="curve"/>
      <point x="463" y="868" type="line"/>
      <point x="419" y="533" type="line"/>
      <point x="453" y="737"/>
      <point x="611" y="823"/>
      <point x="734" y="823" type="curve" smooth="yes"/>
      <point x="804" y="823"/>
      <point x="839" y="793"/>
      <point x="839" y="735" type="curve" smooth="yes"/>
      <point x="839" y="655"/>
      <point x="764" y="559"/>
      <point x="522" y="465" type="curve"/>
      <point x="545" y="152"/>
      <point x="704" y="-20"/>
    </contour>
    <contour>
      <point x="237" y="1060" type="line"/>
      <point x="50" y="0" type="line"/>
      <point x="325" y="0" type="line"/>
      <point x="512" y="1060" type="line"/>
    </contour>
  </outline>
</glyph>
<glyph name="Lcaron" format="2">
  <advance width="1200"/>
  <unicode hex="013D"/>
  <outline>
    <contour>
      <point x="831" y="1188" type="line"/>
      <point x="1057" y="1188" type="line"/>
      <point x="1214" y="1568" type="line"/>
      <point x="938" y="1568" type="line"/>
    </contour>
    <component base="L"/>
  </outline>
</glyph>
<glyph name="lcaron" format="2">
  <advance width="1200"/>
  <unicode hex="013E"/>
  <outline>
    <contour>
      <point x="911" y="1188" type="line"/>
      <point x="1137" y="1188" type="line"/>
      <point x="1294" y="1568" type="line"/>
      <point x="1018" y="1568" type="line"/>
    </contour>
    <component base="l"/>
  </outline>
</glyph>
<glyph name="Lslash" format="2">
  <advance width="1200"/>
  <unicode hex="0141"/>
  <anchor x="554" y="0" name="bottom"/>
  <anchor x="659" y="710" name="center"/>
  <anchor x="517" y="1420" name="top"/>
  <anchor x="1364" y="1420" name="topright"/>
  <outline>
    <contour>
      <point x="1" y="410" type="line"/>
      <point x="966" y="855" type="line"/>
      <point x="1012" y="1115" type="line"/>
      <point x="46" y="670" type="line"/>
    </contour>
    <contour>
      <point x="134" y="0" type="line"/>
      <point x="400" y="0" type="line"/>
      <point x="650" y="1420" type="line"/>
      <point x="384" y="1420" type="line"/>
    </contour>
    <contour>
      <point x="134" y="0" type="line"/>
      <point x="1007" y="0" type="line"/>
      <point x="1050" y="244" type="line"/>
      <point x="177" y="244" type="line"/>
    </contour>
  </outline>
</glyph>
<glyph name="lslash" format="2">
  <advance width="1200"/>
  <unicode hex="0142"/>
  <outline>
    <contour>
      <point x="114" y="422" type="line"/>
      <point x="1110" y="893" type="line"/>
      <point x="1042" y="1087" type="line"/>
      <point x="47" y="616" type="line"/>
    </contour>
    <component base="l"/>
  </outline>
</glyph>
<glyph name="napostrophe" format="2">
  <advance width="1200"/>
  <unicode hex="0149"/>
  <outline>
    <contour>
      <point x="302" y="1110" type="line"/>
      <point x="374" y="1173" type="line" smooth="yes"/>
      <point x="492" y="1277"/>
      <point x="575" y="1382"/>
      <point x="575" y="1509" type="curve" smooth="yes"/>
      <point x="575" y="1661"/>
      <point x="485" y="1740"/>
      <point x="305" y="1740" type="curve" smooth="yes"/>
      <point x="230" y="1740" type="line"/>
      <point x="186" y="1496" type="line"/>
      <point x="231" y="1496" type="line" smooth="yes"/>
      <point x="277" y="1496"/>
      <point x="301" y="1479"/>
      <point x="301" y="1447" type="curve" smooth="yes"/>
      <point x="301" y="1407"/>
      <point x="263" y="1371"/>
      <point x="219" y="1333" type="curve" smooth="yes"/>
      <point x="154" y="1277" type="line"/>
    </contour>
    <component base="n"/>
  </outline>
</glyph>
<glyph name="Eng" format="2">
  <advance width="1200"/>
  <unicode hex="014A"/>
  <guideline x="663" y="123" angle="90"/>
  <anchor x="438" y="-388" name="bottom"/>
  <outline>
    <contour>
      <point x="748" y="151" type="line"/>
      <point x="715" y="-38" type="line" smooth="yes"/>
      <point x="693" y="-163"/>
      <point x="628" y="-212"/>
      <point x="439" y="-239" type="curve" smooth="yes"/>
      <point x="354" y="-251" type="line"/>
      <point x="366" y="-477" type="line"/>
      <point x="441" y="-472" type="line" smooth="yes"/>
      <point x="789" y="-449"/>
      <point x="922" y="-311"/>
      <point x="974" y="-6" type="curve" smooth="yes"/>
      <point x="1001" y="151" type="line"/>
    </contour>
    <component base="N"/>
  </outline>
</glyph>
<glyph name="eng" format="2">
  <advance width="1200"/>
  <unicode hex="014B"/>
  <anchor x="438" y="-388" name="bottom"/>
  <anchor x="693" y="1060" name="top"/>
  <outline>
    <contour>
      <point x="305" y="-480" type="line"/>
      <point x="395" y="-472" type="line" smooth="yes"/>
      <point x="798" y="-436"/>
      <point x="907" y="-266"/>
      <point x="978" y="134" type="curve" smooth="yes"/>
      <point x="1069" y="646" type="line" smooth="yes"/>
      <point x="1120" y="931"/>
      <point x="1026" y="1080"/>
      <point x="800" y="1080" type="curve" smooth="yes"/>
      <point x="650" y="1080"/>
      <point x="551" y="1003"/>
      <point x="506" y="868" type="curve"/>
      <point x="471" y="868" type="line"/>
      <point x="423" y="511" type="line"/>
      <point x="461" y="745"/>
      <point x="563" y="823"/>
      <point x="677" y="823" type="curve" smooth="yes"/>
      <point x="770" y="823"/>
      <point x="814" y="760"/>
      <point x="793" y="640" type="curve" smooth="yes"/>
      <point x="698" y="102" type="line" smooth="yes"/>
      <point x="662" y="-98"/>
      <point x="607" y="-187"/>
      <point x="402" y="-213" type="curve" smooth="yes"/>
      <point x="292" y="-227" type="line"/>
    </contour>
    <contour>
      <point x="58" y="0" type="line"/>
      <point x="333" y="0" type="line"/>
      <point x="475" y="807" type="line"/>
      <point x="482" y="1060" type="line"/>
      <point x="245" y="1060" type="line"/>
    </contour>
  </outline>
</glyph>
<glyph name="OE" format="2">
  <advance width="1200"/>
  <unicode hex="0152"/>
  <anchor x="506" y="0" name="bottom"/>
  <anchor x="757" y="1420" name="top"/>
  <outline>
    <contour>
      <point x="405" y="-20" type="curve" smooth="yes"/>
      <point x="519" y="-20"/>
      <point x="610" y="0"/>
      <point x="681" y="0" type="curve" smooth="yes"/>
      <point x="729" y="0" type="line"/>
      <point x="979" y="1420" type="line"/>
      <point x="931" y="1420" type="line" smooth="yes"/>
      <point x="837" y="1420"/>
      <point x="772" y="1440"/>
      <point x="663" y="1440" type="curve" smooth="yes"/>
      <point x="272" y="1440"/>
      <point x="63" y="896"/>
      <point x="63" y="439" type="curve" smooth="yes"/>
      <point x="63" y="144"/>
      <point x="182" y="-20"/>
    </contour>
    <contour>
      <point x="523" y="0" type="line"/>
      <point x="1023" y="0" type="line"/>
      <point x="1065" y="242" type="line"/>
      <point x="565" y="242" type="line"/>
    </contour>
    <contour>
      <point x="459" y="226" type="curve" smooth="yes"/>
      <point x="382" y="226"/>
      <point x="342" y="311"/>
      <point x="342" y="463" type="curve" smooth="yes"/>
      <point x="342" y="707"/>
      <point x="446" y="1194"/>
      <point x="619" y="1194" type="curve" smooth="yes"/>
      <point x="640" y="1194"/>
      <point x="659" y="1190"/>
      <point x="671" y="1181" type="curve"/>
      <point x="504" y="232" type="line"/>
      <point x="491" y="228"/>
      <point x="475" y="226"/>
    </contour>
    <contour>
      <point x="647" y="590" type="line"/>
      <point x="1067" y="590" type="line"/>
      <point x="1110" y="832" type="line"/>
      <point x="690" y="832" type="line"/>
    </contour>
    <contour>
      <point x="721" y="1178" type="line"/>
      <point x="1231" y="1178" type="line"/>
      <point x="1273" y="1420" type="line"/>
      <point x="763" y="1420" type="line"/>
    </contour>
  </outline>
</glyph>
<glyph name="oe" format="2">
  <advance width="1200"/>
  <unicode hex="0153"/>
  <anchor x="506" y="0" name="bottom"/>
  <anchor x="693" y="1060" name="top"/>
  <outline>
    <contour>
      <point x="908" y="232" type="curve" smooth="yes"/>
      <point x="792" y="232"/>
      <point x="724" y="314"/>
      <point x="723" y="451" type="curve" smooth="yes"/>
      <point x="724" y="674"/>
      <point x="797" y="824"/>
      <point x="906" y="824" type="curve" smooth="yes"/>
      <point x="948" y="824"/>
      <point x="971" y="798"/>
      <point x="971" y="757" type="curve" smooth="yes"/>
      <point x="971" y="643"/>
      <point x="853" y="575"/>
      <point x="652" y="571" type="curve"/>
      <point x="673" y="351" type="line"/>
      <point x="1018" y="360"/>
      <point x="1223" y="524"/>
      <point x="1223" y="790" type="curve" smooth="yes"/>
      <point x="1223" y="972"/>
      <point x="1131" y="1080"/>
      <point x="974" y="1080" type="curve" smooth="yes"/>
      <point x="720" y="1080"/>
      <point x="551" y="804"/>
      <point x="551" y="389" type="curve" smooth="yes"/>
      <point x="551" y="132"/>
      <point x="681" y="-20"/>
      <point x="899" y="-20" type="curve" smooth="yes"/>
      <point x="961" y="-20"/>
      <point x="1034" y="-7"/>
      <point x="1094" y="14" type="curve"/>
      <point x="1053" y="252" type="line"/>
      <point x="1006" y="239"/>
      <point x="952" y="232"/>
    </contour>
    <contour>
      <point x="264" y="-20" type="curve" smooth="yes"/>
      <point x="545" y="-20"/>
      <point x="692" y="249"/>
      <point x="692" y="766" type="curve" smooth="yes"/>
      <point x="692" y="972"/>
      <point x="605" y="1080"/>
      <point x="438" y="1080" type="curve" smooth="yes"/>
      <point x="138" y="1080"/>
      <point x="-18" y="831"/>
      <point x="-18" y="354" type="curve" smooth="yes"/>
      <point x="-18" y="108"/>
      <point x="79" y="-20"/>
    </contour>
    <contour>
      <point x="327" y="228" type="curve" smooth="yes"/>
      <point x="271" y="228"/>
      <point x="242" y="278"/>
      <point x="242" y="375" type="curve" smooth="yes"/>
      <point x="242" y="670"/>
      <point x="302" y="824"/>
      <point x="418" y="824" type="curve" smooth="yes"/>
      <point x="473" y="824"/>
      <point x="501" y="769"/>
      <point x="501" y="663" type="curve" smooth="yes"/>
      <point x="501" y="377"/>
      <point x="441" y="228"/>
    </contour>
  </outline>
</glyph>
<glyph name="tcaron" format="2">
  <advance width="1200"/>
  <unicode hex="0165"/>
  <outline>
    <contour>
      <point x="834" y="1228" type="line"/>
      <point x="1060" y="1228" type="line"/>
      <point x="1217" y="1608" type="line"/>
      <point x="941" y="1608" type="line"/>
    </contour>
    <component base="t"/>
  </outline>
</glyph>
<glyph name="Tbar" format="2">
  <advance width="1200"/>
  <unicode hex="0166"/>
  <outline>
    <contour>
      <point x="176" y="561" type="line"/>
      <point x="1032" y="561" type="line"/>
      <point x="1074" y="803" type="line"/>
      <point x="218" y="803" type="line"/>
    </contour>
    <component base="T"/>
  </outline>
</glyph>
<glyph name="tbar" format="2">
  <advance width="1200"/>
  <unicode hex="0167"/>
  <outline>
    <contour>
      <point x="44" y="421" type="line"/>
      <point x="1015" y="421" type="line"/>
      <point x="1059" y="670" type="line"/>
      <point x="88" y="670" type="line"/>
    </contour>
    <component base="t"/>
  </outline>
</glyph>
<glyph name="Uogonek" format="2">
  <advance width="1200"/>
  <unicode hex="0172"/>
  <anchor x="438" y="-388" name="bottom"/>
  <outline>
    <contour>
      <point x="475" y="-424" type="curve" smooth="yes"/>
      <point x="551" y="-424"/>
      <point x="640" y="-405"/>
      <point x="702" y="-378" type="curve"/>
      <point x="660" y="-164" type="line"/>
      <point x="617" y="-177"/>
      <point x="572" y="-185"/>
      <point x="532" y="-185" type="curve" smooth="yes"/>
      <point x="480" y="-185"/>
      <point x="453" y="-167"/>
      <point x="453" y="-132" type="curve" smooth="yes"/>
      <point x="453" y="-75"/>
      <point x="554" y="-33"/>
      <point x="666" y="-8" type="curve"/>
      <point x="627" y="22" type="line"/>
      <point x="397" y="12" type="line"/>
      <point x="397" y="-38" type="line"/>
      <point x="290" y="-89"/>
      <point x="226" y="-159"/>
      <point x="226" y="-255" type="curve" smooth="yes"/>
      <point x="226" y="-368"/>
      <point x="312" y="-424"/>
    </contour>
    <component base="U"/>
  </outline>
</glyph>
<glyph name="uogonek" format="2">
  <advance width="1200"/>
  <unicode hex="0173"/>
  <outline>
    <contour>
      <point x="832" y="-424" type="curve" smooth="yes"/>
      <point x="890" y="-424"/>
      <point x="957" y="-408"/>
      <point x="1004" y="-386" type="curve"/>
      <point x="962" y="-172" type="line"/>
      <point x="937" y="-180"/>
      <point x="912" y="-185"/>
      <point x="889" y="-185" type="curve" smooth="yes"/>
      <point x="850" y="-185"/>
      <point x="830" y="-170"/>
      <point x="830" y="-142" type="curve" smooth="yes"/>
      <point x="830" y="-77"/>
      <point x="946" y="-33"/>
      <point x="1073" y="0" type="curve"/>
      <point x="1034" y="30" type="line"/>
      <point x="804" y="17" type="line"/>
      <point x="804" y="-33" type="line"/>
      <point x="684" y="-75"/>
      <point x="613" y="-157"/>
      <point x="613" y="-255" type="curve" smooth="yes"/>
      <point x="613" y="-368"/>
      <point x="688" y="-424"/>
    </contour>
    <component base="u"/>
  </outline>
</glyph>
<glyph name="longs" format="2">
  <advance width="1200"/>
  <unicode hex="017F"/>
  <anchor x="388" y="-388" name="bottom"/>
  <anchor x="885" y="1500" name="top"/>
  <outline>
    <contour>
      <point x="-85" y="-477" type="line"/>
      <point x="84" y="-459" type="line" smooth="yes"/>
      <point x="370" y="-429"/>
      <point x="498" y="-287"/>
      <point x="562" y="77" type="curve" smooth="yes"/>
      <point x="721" y="980" type="line" smooth="yes"/>
      <point x="756" y="1179"/>
      <point x="848" y="1263"/>
      <point x="1028" y="1263" type="curve" smooth="yes"/>
      <point x="1084" y="1263"/>
      <point x="1148" y="1259"/>
      <point x="1242" y="1249" type="curve"/>
      <point x="1312" y="1500" type="line"/>
      <point x="1235" y="1514"/>
      <point x="1166" y="1520"/>
      <point x="1079" y="1520" type="curve" smooth="yes"/>
      <point x="706" y="1520"/>
      <point x="517" y="1356"/>
      <point x="449" y="970" type="curve" smooth="yes"/>
      <point x="294" y="92" type="line" smooth="yes"/>
      <point x="258" y="-114"/>
      <point x="188" y="-191"/>
      <point x="48" y="-206" type="curve" smooth="yes"/>
      <point x="-92" y="-221" type="line"/>
    </contour>
    <contour>
      <point x="67" y="617" type="line"/>
      <point x="581" y="617" type="line"/>
      <point x="622" y="849" type="line"/>
      <point x="108" y="849" type="line"/>
    </contour>
  </outline>
</glyph>
<glyph name="Oopen" format="2">
  <advance width="1200"/>
  <unicode hex="0186"/>
  <anchor x="506" y="0" name="bottom"/>
  <anchor x="757" y="1420" name="top"/>
  <outline>
    <contour>
      <point x="649" y="1440" type="curve" smooth="yes"/>
      <point x="514" y="1440"/>
      <point x="376" y="1418"/>
      <point x="240" y="1372" type="curve"/>
      <point x="254" y="1128" type="line"/>
      <point x="365" y="1168"/>
      <point x="475" y="1188"/>
      <point x="582" y="1188" type="curve" smooth="yes"/>
      <point x="799" y="1188"/>
      <point x="909" y="1089"/>
      <point x="909" y="890" type="curve" smooth="yes"/>
      <point x="909" y="511"/>
      <point x="691" y="232"/>
      <point x="395" y="232" type="curve" smooth="yes"/>
      <point x="292" y="232"/>
      <point x="210" y="267"/>
      <point x="134" y="344" type="curve"/>
      <point x="-39" y="139" type="line"/>
      <point x="61" y="29"/>
      <point x="187" y="-20"/>
      <point x="366" y="-20" type="curve" smooth="yes"/>
      <point x="851" y="-20"/>
      <point x="1187" y="357"/>
      <point x="1187" y="897" type="curve" smooth="yes"/>
      <point x="1187" y="1259"/>
      <point x="1007" y="1440"/>
    </contour>
  </outline>
</glyph>
<glyph name="Ereversed" format="2">
  <advance width="1200"/>
  <unicode hex="018E"/>
  <anchor x="506" y="0" name="bottom"/>
  <anchor x="757" y="1420" name="top"/>
  <anchor x="1364" y="1420" name="topright"/>
  <outline>
    <contour>
      <point x="698" y="0" type="line"/>
      <point x="964" y="0" type="line"/>
      <point x="1214" y="1420" type="line"/>
      <point x="948" y="1420" type="line"/>
    </contour>
    <contour>
      <point x="-10" y="0" type="line"/>
      <point x="964" y="0" type="line"/>
      <point x="1007" y="244" type="line"/>
      <point x="33" y="244" type="line"/>
    </contour>
    <contour>
      <point x="273" y="587" type="line"/>
      <point x="1067" y="587" type="line"/>
      <point x="1110" y="831" type="line"/>
      <point x="316" y="831" type="line"/>
    </contour>
    <contour>
      <point x="197" y="1176" type="line"/>
      <point x="1170" y="1176" type="line"/>
      <point x="1214" y="1420" type="line"/>
      <point x="240" y="1420" type="line"/>
    </contour>
  </outline>
</glyph>
<glyph name="Schwa" format="2">
  <advance width="1200"/>
  <unicode hex="018F"/>
  <anchor x="506" y="0" name="bottom"/>
  <anchor x="757" y="1420" name="top"/>
  <outline>
    <contour>
      <point x="566" y="1189" type="curve" smooth="yes"/>
      <point x="781" y="1189"/>
      <point x="909" y="1059"/>
      <point x="911" y="839" type="curve" smooth="yes"/>
      <point x="910" y="458"/>
      <point x="751" y="232"/>
      <point x="483" y="232" type="curve" smooth="yes"/>
      <point x="393" y="232"/>
      <point x="340" y="280"/>
      <point x="340" y="361" type="curve" smooth="yes"/>
      <point x="340" y="547"/>
      <point x="588" y="660"/>
      <point x="1009" y="667" type="curve"/>
      <point x="968" y="919" type="line"/>
      <point x="398" y="906"/>
      <point x="62" y="676"/>
      <point x="62" y="300" type="curve" smooth="yes"/>
      <point x="62" y="108"/>
      <point x="211" y="-20"/>
      <point x="435" y="-20" type="curve" smooth="yes"/>
      <point x="912" y="-20"/>
      <point x="1194" y="304"/>
      <point x="1194" y="851" type="curve" smooth="yes"/>
      <point x="1194" y="1221"/>
      <point x="964" y="1440"/>
      <point x="575" y="1440" type="curve" smooth="yes"/>
      <point x="456" y="1440"/>
      <point x="316" y="1416"/>
      <point x="200" y="1376" type="curve"/>
      <point x="254" y="1128" type="line"/>
      <point x="354" y="1166"/>
      <point x="470" y="1189"/>
    </contour>
  </outline>
</glyph>
<glyph name="Eopen" format="2">
  <advance width="1200"/>
  <unicode hex="0190"/>
  <anchor x="506" y="0" name="bottom"/>
  <anchor x="757" y="1420" name="top"/>
  <outline>
    <contour>
      <point x="850" y="1440" type="curve" smooth="yes"/>
      <point x="518" y="1440"/>
      <point x="260" y="1314"/>
      <point x="260" y="1029" type="curve" smooth="yes"/>
      <point x="260" y="892"/>
      <point x="351" y="794"/>
      <point x="569" y="763" type="curve"/>
      <point x="562" y="819" type="line"/>
      <point x="542" y="702" type="line"/>
      <point x="568" y="756" type="line"/>
      <point x="305" y="751"/>
      <point x="80" y="587"/>
      <point x="80" y="344" type="curve" smooth="yes"/>
      <point x="80" y="121"/>
      <point x="263" y="-20"/>
      <point x="576" y="-20" type="curve" smooth="yes"/>
      <point x="782" y="-20"/>
      <point x="889" y="-4"/>
      <point x="1031" y="48" type="curve"/>
      <point x="1006" y="280" type="line"/>
      <point x="855" y="242"/>
      <point x="777" y="232"/>
      <point x="616" y="232" type="curve" smooth="yes"/>
      <point x="457" y="232"/>
      <point x="364" y="289"/>
      <point x="364" y="386" type="curve" smooth="yes"/>
      <point x="364" y="534"/>
      <point x="511" y="620"/>
      <point x="681" y="620" type="curve" smooth="yes"/>
      <point x="835" y="620" type="line"/>
      <point x="878" y="872" type="line"/>
      <point x="632" y="879"/>
      <point x="529" y="927"/>
      <point x="529" y="1028" type="curve" smooth="yes"/>
      <point x="529" y="1149"/>
      <point x="656" y="1189"/>
      <point x="806" y="1189" type="curve" smooth="yes"/>
      <point x="921" y="1189"/>
      <point x="1006" y="1158"/>
      <point x="1077" y="1089" type="curve"/>
      <point x="1276" y="1278" type="line"/>
      <point x="1157" y="1389"/>
      <point x="1023" y="1440"/>
    </contour>
  </outline>
</glyph>
<glyph name="Fhook" format="2">
  <advance width="1200"/>
  <unicode hex="0191"/>
  <anchor x="438" y="-388" name="bottom"/>
  <outline>
    <contour>
      <point x="97" y="151" type="line"/>
      <point x="64" y="-33" type="line" smooth="yes"/>
      <point x="41" y="-162"/>
      <point x="-30" y="-216"/>
      <point x="-191" y="-246" type="curve" smooth="yes"/>
      <point x="-234" y="-254" type="line"/>
      <point x="-218" y="-476" type="line"/>
      <point x="-187" y="-472" type="line" smooth="yes"/>
      <point x="142" y="-430"/>
      <point x="283" y="-311"/>
      <point x="335" y="-6" type="curve" smooth="yes"/>
      <point x="362" y="151" type="line"/>
    </contour>
    <component base="F"/>
  </outline>
</glyph>
<glyph name="Gammaafrican" format="2">
  <advance width="1200"/>
  <unicode hex="0194"/>
  <anchor x="438" y="-388" name="bottom"/>
  <anchor x="757" y="1420" name="top"/>
  <outline>
    <contour>
      <point x="371" y="-462" type="line"/>
      <point x="617" y="-462"/>
      <point x="781" y="-340"/>
      <point x="781" y="-157" type="curve" smooth="yes"/>
      <point x="781" y="-75"/>
      <point x="740" y="8"/>
      <point x="617" y="106" type="curve"/>
      <point x="433" y="61" type="line"/>
      <point x="498" y="-44"/>
      <point x="521" y="-97"/>
      <point x="521" y="-142" type="curve" smooth="yes"/>
      <point x="521" y="-201"/>
      <point x="476" y="-241"/>
      <point x="408" y="-241" type="curve"/>
    </contour>
    <contour>
      <point x="371" y="-462" type="curve"/>
      <point x="408" y="-241" type="line"/>
      <point x="359" y="-241"/>
      <point x="325" y="-216"/>
      <point x="325" y="-179" type="curve" smooth="yes"/>
      <point x="325" y="-118"/>
      <point x="365" y="-68"/>
      <point x="521" y="61" type="curve"/>
      <point x="335" y="106" type="line"/>
      <point x="175" y="14"/>
      <point x="60" y="-91"/>
      <point x="60" y="-232" type="curve" smooth="yes"/>
      <point x="60" y="-370"/>
      <point x="184" y="-462"/>
    </contour>
    <contour>
      <point x="288" y="0" type="line"/>
      <point x="484" y="51" type="line"/>
      <point x="630" y="0" type="line"/>
      <point x="957" y="368"/>
      <point x="1172" y="856"/>
      <point x="1329" y="1420" type="curve"/>
      <point x="1065" y="1420" type="line"/>
      <point x="929" y="951"/>
      <point x="765" y="552"/>
      <point x="534" y="239" type="curve"/>
      <point x="516" y="239" type="line"/>
      <point x="447" y="1432" type="line"/>
      <point x="185" y="1420" type="line"/>
    </contour>
  </outline>
</glyph>
<glyph name="lbar" format="2">
  <advance width="1200"/>
  <unicode hex="019A"/>
  <outline>
    <contour>
      <point x="135" y="639" type="line"/>
      <point x="995" y="639" type="line"/>
      <point x="1037" y="881" type="line"/>
      <point x="177" y="881" type="line"/>
    </contour>
    <component base="l"/>
  </outline>
</glyph>
<glyph name="lambdastroke" format="2">
  <advance width="1200"/>
  <unicode hex="019B"/>
  <outline>
    <contour>
      <point x="104" y="837" type="line"/>
      <point x="1065" y="1127" type="line"/>
      <point x="1002" y="1361" type="line"/>
      <point x="39" y="1071" type="line"/>
    </contour>
    <component base="lambda"/>
  </outline>
</glyph>
<glyph name="Nhookleft" format="2">
  <advance width="1200"/>
  <unicode hex="019D"/>
  <anchor x="438" y="-388" name="bottom"/>
  <outline>
    <contour>
      <point x="65" y="151" type="line"/>
      <point x="32" y="-33" type="line" smooth="yes"/>
      <point x="9" y="-162"/>
      <point x="-62" y="-216"/>
      <point x="-223" y="-246" type="curve" smooth="yes"/>
      <point x="-266" y="-254" type="line"/>
      <point x="-250" y="-476" type="line"/>
      <point x="-219" y="-472" type="line" smooth="yes"/>
      <point x="110" y="-430"/>
      <point x="251" y="-311"/>
      <point x="303" y="-6" type="curve" smooth="yes"/>
      <point x="330" y="151" type="line"/>
    </contour>
    <component base="N"/>
  </outline>
</glyph>
<glyph name="Uhorn" format="2">
  <advance width="1200"/>
  <unicode hex="01AF"/>
  <outline>
    <contour>
      <point x="1031" y="1205" type="line"/>
      <point x="1092" y="1215" type="line" smooth="yes"/>
      <point x="1318" y="1252"/>
      <point x="1452" y="1399"/>
      <point x="1496" y="1653" type="curve"/>
      <point x="1218" y="1653" type="line"/>
      <point x="1197" y="1518"/>
      <point x="1135" y="1425"/>
      <point x="1035" y="1422" type="curve" smooth="yes"/>
      <point x="984" y="1420" type="line"/>
    </contour>
    <component base="U"/>
  </outline>
</glyph>
<glyph name="Upsilonafrican" format="2">
  <advance width="1200"/>
  <unicode hex="01B1"/>
  <anchor x="506" y="0" name="bottom"/>
  <anchor x="757" y="1420" name="top"/>
  <outline>
    <contour>
      <point x="454" y="1236" type="line"/>
      <point x="454" y="1150" type="line"/>
      <point x="208" y="1080"/>
      <point x="62" y="831"/>
      <point x="62" y="478" type="curve" smooth="yes"/>
      <point x="62" y="165"/>
      <point x="226" y="-20"/>
      <point x="504" y="-20" type="curve" smooth="yes"/>
      <point x="930" y="-20"/>
      <point x="1181" y="283"/>
      <point x="1181" y="797" type="curve" smooth="yes"/>
      <point x="1181" y="971"/>
      <point x="1108" y="1102"/>
      <point x="983" y="1150" type="curve"/>
      <point x="983" y="1228" type="line"/>
      <point x="763" y="1177" type="line"/>
      <point x="851" y="1143"/>
      <point x="903" y="1026"/>
      <point x="903" y="864" type="curve" smooth="yes"/>
      <point x="903" y="467"/>
      <point x="771" y="232"/>
      <point x="547" y="232" type="curve" smooth="yes"/>
      <point x="417" y="232"/>
      <point x="340" y="332"/>
      <point x="340" y="500" type="curve" smooth="yes"/>
      <point x="340" y="854"/>
      <point x="461" y="1105"/>
      <point x="664" y="1177" type="curve"/>
    </contour>
    <contour>
      <point x="240" y="1420" type="line"/>
      <point x="197" y="1177" type="line"/>
      <point x="664" y="1177" type="line"/>
      <point x="707" y="1420" type="line"/>
    </contour>
    <contour>
      <point x="806" y="1420" type="line"/>
      <point x="763" y="1177" type="line"/>
      <point x="1224" y="1177" type="line"/>
      <point x="1267" y="1420" type="line"/>
    </contour>
  </outline>
</glyph>
<glyph name="Vhook" format="2">
  <advance width="1200"/>
  <unicode hex="01B2"/>
  <anchor x="506" y="0" name="bottom"/>
  <anchor x="1005" y="10" name="ogonek"/>
  <anchor x="757" y="1420" name="top"/>
  <anchor x="1354" y="1420" name="topright"/>
  <outline>
    <contour>
      <point x="730" y="1420" type="line"/>
      <point x="687" y="1175" type="line"/>
      <point x="768" y="1175" type="line" smooth="yes"/>
      <point x="882" y="1175"/>
      <point x="916" y="1125"/>
      <point x="892" y="988" type="curve" smooth="yes"/>
      <point x="798" y="456" type="line" smooth="yes"/>
      <point x="772" y="308"/>
      <point x="688" y="233"/>
      <point x="548" y="233" type="curve" smooth="yes"/>
      <point x="403" y="233"/>
      <point x="350" y="308"/>
      <point x="376" y="456" type="curve" smooth="yes"/>
      <point x="546" y="1420" type="line"/>
      <point x="280" y="1420" type="line"/>
      <point x="110" y="456" type="line" smooth="yes"/>
      <point x="54" y="138"/>
      <point x="184" y="-20"/>
      <point x="499" y="-20" type="curve" smooth="yes"/>
      <point x="814" y="-20"/>
      <point x="1008" y="138"/>
      <point x="1064" y="456" type="curve" smooth="yes"/>
      <point x="1165" y="1030" type="line" smooth="yes"/>
      <point x="1212" y="1297"/>
      <point x="1117" y="1420"/>
      <point x="860" y="1420" type="curve" smooth="yes"/>
    </contour>
  </outline>
</glyph>
<glyph name="Ezh" format="2">
  <advance width="1200"/>
  <unicode hex="01B7"/>
  <anchor x="506" y="0" name="bottom"/>
  <anchor x="757" y="1420" name="top"/>
  <outline>
    <contour>
      <point x="459" y="-20" type="curve" smooth="yes"/>
      <point x="854" y="-20"/>
      <point x="1087" y="163"/>
      <point x="1087" y="472" type="curve" smooth="yes"/>
      <point x="1087" y="717"/>
      <point x="919" y="859"/>
      <point x="613" y="864" type="curve"/>
      <point x="723" y="821" type="line"/>
      <point x="1144" y="1162" type="line"/>
      <point x="1090" y="1420" type="line"/>
      <point x="303" y="1420" type="line"/>
      <point x="260" y="1177" type="line"/>
      <point x="954" y="1177" type="line"/>
      <point x="873" y="1238" type="line"/>
      <point x="373" y="834" type="line"/>
      <point x="406" y="626" type="line"/>
      <point x="491" y="626" type="line" smooth="yes"/>
      <point x="694" y="626"/>
      <point x="806" y="564"/>
      <point x="806" y="454" type="curve" smooth="yes"/>
      <point x="806" y="314"/>
      <point x="695" y="232"/>
      <point x="508" y="232" type="curve" smooth="yes"/>
      <point x="377" y="232"/>
      <point x="269" y="272"/>
      <point x="163" y="359" type="curve"/>
      <point x="-10" y="151" type="line"/>
      <point x="104" y="34"/>
      <point x="252" y="-20"/>
    </contour>
  </outline>
</glyph>
<glyph name="Gstroke" format="2">
  <advance width="1200"/>
  <unicode hex="01E4"/>
  <anchor x="586" y="0" name="bottom"/>
  <anchor x="857" y="1420" name="top"/>
  <outline>
    <contour>
      <point x="594" y="-20" type="curve" smooth="yes"/>
      <point x="796" y="-20"/>
      <point x="974" y="22"/>
      <point x="1040" y="40" type="curve"/>
      <point x="980" y="282" type="line"/>
      <point x="905" y="264"/>
      <point x="785" y="232"/>
      <point x="640" y="232" type="curve" smooth="yes"/>
      <point x="443" y="232"/>
      <point x="343" y="334"/>
      <point x="343" y="539" type="curve" smooth="yes"/>
      <point x="343" y="919"/>
      <point x="564" y="1188"/>
      <point x="853" y="1188" type="curve" smooth="yes"/>
      <point x="970" y="1188"/>
      <point x="1055" y="1139"/>
      <point x="1118" y="1076" type="curve"/>
      <point x="1273" y="1299" type="line"/>
      <point x="1197" y="1381"/>
      <point x="1083" y="1440"/>
      <point x="883" y="1440" type="curve" smooth="yes"/>
      <point x="381" y="1440"/>
      <point x="66" y="1046"/>
      <point x="66" y="513" type="curve" smooth="yes"/>
      <point x="66" y="178"/>
      <point x="262" y="-20"/>
    </contour>
    <contour>
      <point x="774" y="40" type="line"/>
      <point x="1040" y="40" type="line"/>
      <point x="1163" y="735" type="line"/>
      <point x="897" y="735" type="line"/>
    </contour>
    <contour>
      <point x="615" y="387" type="line"/>
      <point x="1195" y="387" type="line"/>
      <point x="1238" y="630" type="line"/>
      <point x="658" y="630" type="line"/>
    </contour>
  </outline>
</glyph>
<glyph name="gstroke" format="2">
  <advance width="1200"/>
  <unicode hex="01E5"/>
  <outline>
    <contour>
      <point x="-81" y="-173" type="line"/>
      <point x="1031" y="-173" type="line"/>
      <point x="1051" y="-65" type="line"/>
      <point x="-61" y="-65" type="line"/>
    </contour>
    <component base="g"/>
  </outline>
</glyph>
<glyph name="Oogonek" format="2">
  <advance width="1200"/>
  <unicode hex="01EA"/>
  <anchor x="438" y="-388" name="bottom"/>
  <outline>
    <contour>
      <point x="468" y="-424" type="curve" smooth="yes"/>
      <point x="544" y="-424"/>
      <point x="633" y="-405"/>
      <point x="695" y="-378" type="curve"/>
      <point x="653" y="-164" type="line"/>
      <point x="610" y="-177"/>
      <point x="565" y="-185"/>
      <point x="525" y="-185" type="curve" smooth="yes"/>
      <point x="473" y="-185"/>
      <point x="446" y="-167"/>
      <point x="446" y="-132" type="curve" smooth="yes"/>
      <point x="446" y="-74"/>
      <point x="547" y="-31"/>
      <point x="659" y="-5" type="curve"/>
      <point x="620" y="25" type="line"/>
      <point x="390" y="12" type="line"/>
      <point x="390" y="-38" type="line"/>
      <point x="283" y="-89"/>
      <point x="219" y="-159"/>
      <point x="219" y="-255" type="curve" smooth="yes"/>
      <point x="219" y="-368"/>
      <point x="305" y="-424"/>
    </contour>
    <component base="O"/>
  </outline>
</glyph>
<glyph name="oogonek" format="2">
  <advance width="1200"/>
  <unicode hex="01EB"/>
  <anchor x="438" y="-388" name="bottom"/>
  <outline>
    <contour>
      <point x="490" y="-424" type="curve" smooth="yes"/>
      <point x="561" y="-424"/>
      <point x="644" y="-404"/>
      <point x="702" y="-376" type="curve"/>
      <point x="660" y="-162" type="line"/>
      <point x="621" y="-176"/>
      <point x="583" y="-185"/>
      <point x="547" y="-185" type="curve" smooth="yes"/>
      <point x="501" y="-185"/>
      <point x="478" y="-166"/>
      <point x="478" y="-128" type="curve" smooth="yes"/>
      <point x="478" y="-70"/>
      <point x="515" y="-43"/>
      <point x="665" y="-1" type="curve"/>
      <point x="626" y="29" type="line"/>
      <point x="404" y="14" type="line"/>
      <point x="404" y="-41" type="line"/>
      <point x="314" y="-79"/>
      <point x="261" y="-154"/>
      <point x="261" y="-245" type="curve" smooth="yes"/>
      <point x="261" y="-365"/>
      <point x="339" y="-424"/>
    </contour>
    <component base="o"/>
  </outline>
</glyph>
<glyph name="jdotless" format="2">
  <advance width="1200"/>
  <unicode hex="0237"/>
  <anchor x="411" y="-388" name="bottom"/>
  <anchor x="837" y="1060" name="top"/>
  <outline>
    <contour>
      <point x="27" y="-480" type="line"/>
      <point x="217" y="-468" type="line" smooth="yes"/>
      <point x="657" y="-440"/>
      <point x="779" y="-266"/>
      <point x="850" y="134" type="curve" smooth="yes"/>
      <point x="951" y="707" type="line" smooth="yes"/>
      <point x="995" y="954"/>
      <point x="894" y="1081"/>
      <point x="601" y="1081" type="curve" smooth="yes"/>
      <point x="462" y="1081"/>
      <point x="324" y="1068"/>
      <point x="185" y="1043" type="curve"/>
      <point x="206" y="791" type="line"/>
      <point x="354" y="813"/>
      <point x="475" y="824"/>
      <point x="569" y="824" type="curve" smooth="yes"/>
      <point x="658" y="824"/>
      <point x="691" y="784"/>
      <point x="677" y="707" type="curve" smooth="yes"/>
      <point x="570" y="102" type="line" smooth="yes"/>
      <point x="535" y="-98"/>
      <point x="468" y="-190"/>
      <point x="234" y="-209" type="curve" smooth="yes"/>
      <point x="14" y="-227" type="line"/>
    </contour>
  </outline>
</glyph>
<glyph name="Astroke" format="2">
  <advance width="1200"/>
  <unicode hex="023A"/>
  <anchor x="438" y="-388" name="bottom"/>
  <anchor x="770" y="1500" name="top"/>
  <outline>
    <contour>
      <point x="393" y="-328" type="line"/>
      <point x="629" y="324" type="line"/>
      <point x="609" y="419" type="line"/>
      <point x="788" y="913" type="line"/>
      <point x="897" y="1066" type="line"/>
      <point x="1112" y="1662" type="line"/>
      <point x="930" y="1711" type="line"/>
      <point x="781" y="1299" type="line"/>
      <point x="782" y="1190" type="line"/>
      <point x="511" y="441" type="line"/>
      <point x="445" y="369" type="line"/>
      <point x="210" y="-279" type="line"/>
    </contour>
    <component base="A"/>
  </outline>
</glyph>
<glyph name="Cstroke" format="2">
  <advance width="1200"/>
  <unicode hex="023B"/>
  <anchor x="438" y="-388" name="bottom"/>
  <anchor x="871" y="1500" name="top"/>
  <outline>
    <contour>
      <point x="426" y="-328" type="line"/>
      <point x="1145" y="1662" type="line"/>
      <point x="963" y="1711" type="line"/>
      <point x="243" y="-279" type="line"/>
    </contour>
    <component base="C"/>
  </outline>
</glyph>
<glyph name="Lbar" format="2">
  <advance width="1200"/>
  <unicode hex="023D"/>
  <outline>
    <contour>
      <point x="0" y="641" type="line"/>
      <point x="856" y="641" type="line"/>
      <point x="898" y="883" type="line"/>
      <point x="42" y="883" type="line"/>
    </contour>
    <component base="L"/>
  </outline>
</glyph>
<glyph name="Tdiagonalstroke" format="2">
  <advance width="1200"/>
  <unicode hex="023E"/>
  <anchor x="438" y="-388" name="bottom"/>
  <anchor x="770" y="1500" name="top"/>
  <outline>
    <contour>
      <point x="174" y="-362" type="line"/>
      <point x="1386" y="1658" type="line"/>
      <point x="1223" y="1739" type="line"/>
      <point x="23" y="-285" type="line"/>
    </contour>
    <component base="T"/>
  </outline>
</glyph>
<glyph name="oopen" format="2">
  <advance width="1200"/>
  <unicode hex="0254"/>
  <anchor x="500" y="0" name="bottom"/>
  <anchor x="727" y="1060" name="top"/>
  <outline>
    <contour>
      <point x="576" y="823" type="curve" smooth="yes"/>
      <point x="724" y="823"/>
      <point x="810" y="745"/>
      <point x="811" y="609" type="curve" smooth="yes"/>
      <point x="810" y="385"/>
      <point x="681" y="237"/>
      <point x="483" y="237" type="curve" smooth="yes"/>
      <point x="359" y="237"/>
      <point x="276" y="265"/>
      <point x="206" y="329" type="curve"/>
      <point x="44" y="126" type="line"/>
      <point x="134" y="24"/>
      <point x="257" y="-20"/>
      <point x="455" y="-20" type="curve" smooth="yes"/>
      <point x="837" y="-20"/>
      <point x="1088" y="246"/>
      <point x="1088" y="651" type="curve" smooth="yes"/>
      <point x="1088" y="923"/>
      <point x="912" y="1080"/>
      <point x="605" y="1080" type="curve" smooth="yes"/>
      <point x="470" y="1080"/>
      <point x="335" y="1057"/>
      <point x="234" y="1021" type="curve"/>
      <point x="266" y="771" type="line"/>
      <point x="351" y="802"/>
      <point x="463" y="823"/>
    </contour>
  </outline>
</glyph>
